%TF.GenerationSoftware,KiCad,Pcbnew,9.0.6*%
%TF.CreationDate,2026-02-23T21:39:28+00:00*%
%TF.ProjectId,20250806_UNOQ,32303235-3038-4303-965f-554e4f512e6b,rev?*%
%TF.SameCoordinates,Original*%
%TF.FileFunction,Soldermask,Top*%
%TF.FilePolarity,Negative*%
%FSLAX46Y46*%
G04 Gerber Fmt 4.6, Leading zero omitted, Abs format (unit mm)*
G04 Created by KiCad (PCBNEW 9.0.6) date 2026-02-23 21:39:28*
%MOMM*%
%LPD*%
G01*
G04 APERTURE LIST*
G04 Aperture macros list*
%AMRoundRect*
0 Rectangle with rounded corners*
0 $1 Rounding radius*
0 $2 $3 $4 $5 $6 $7 $8 $9 X,Y pos of 4 corners*
0 Add a 4 corners polygon primitive as box body*
4,1,4,$2,$3,$4,$5,$6,$7,$8,$9,$2,$3,0*
0 Add four circle primitives for the rounded corners*
1,1,$1+$1,$2,$3*
1,1,$1+$1,$4,$5*
1,1,$1+$1,$6,$7*
1,1,$1+$1,$8,$9*
0 Add four rect primitives between the rounded corners*
20,1,$1+$1,$2,$3,$4,$5,0*
20,1,$1+$1,$4,$5,$6,$7,0*
20,1,$1+$1,$6,$7,$8,$9,0*
20,1,$1+$1,$8,$9,$2,$3,0*%
%AMFreePoly0*
4,1,17,0.356937,0.810921,0.810921,0.356937,0.825800,0.321016,0.825800,-0.321016,0.810921,-0.356937,0.356937,-0.810921,0.321016,-0.825800,-0.321016,-0.825800,-0.356937,-0.810921,-0.810921,-0.356937,-0.825800,-0.321016,-0.825800,0.321016,-0.810921,0.356937,-0.356937,0.810921,-0.321016,0.825800,0.321016,0.825800,0.356937,0.810921,0.356937,0.810921,$1*%
%AMFreePoly1*
4,1,17,0.864348,2.035921,2.035921,0.864348,2.050800,0.828427,2.050800,-0.828427,2.035921,-0.864348,0.864348,-2.035921,0.828427,-2.050800,-0.828427,-2.050800,-0.864348,-2.035921,-2.035921,-0.864348,-2.050800,-0.828427,-2.050800,0.828427,-2.035921,0.864348,-0.864348,2.035921,-0.828427,2.050800,0.828427,2.050800,0.864348,2.035921,0.864348,2.035921,$1*%
%AMFreePoly2*
4,1,17,0.383115,0.874121,0.874121,0.383115,0.889000,0.347194,0.889000,-0.347194,0.874121,-0.383115,0.383115,-0.874121,0.347194,-0.889000,-0.347194,-0.889000,-0.383115,-0.874121,-0.874121,-0.383115,-0.889000,-0.347194,-0.889000,0.347194,-0.874121,0.383115,-0.383115,0.874121,-0.347194,0.889000,0.347194,0.889000,0.383115,0.874121,0.383115,0.874121,$1*%
G04 Aperture macros list end*
%ADD10C,2.184400*%
%ADD11C,0.000000*%
%ADD12C,3.200000*%
%ADD13O,1.524000X2.235200*%
%ADD14FreePoly0,270.000000*%
%ADD15RoundRect,0.400000X-0.100000X0.200800X-0.100000X-0.200800X0.100000X-0.200800X0.100000X0.200800X0*%
%ADD16RoundRect,0.075080X0.675720X-1.475720X0.675720X1.475720X-0.675720X1.475720X-0.675720X-1.475720X0*%
%ADD17RoundRect,0.065080X-0.585720X0.585720X-0.585720X-0.585720X0.585720X-0.585720X0.585720X0.585720X0*%
%ADD18RoundRect,0.065080X0.585720X-0.585720X0.585720X0.585720X-0.585720X0.585720X-0.585720X-0.585720X0*%
%ADD19RoundRect,0.125080X1.125720X1.125720X-1.125720X1.125720X-1.125720X-1.125720X1.125720X-1.125720X0*%
%ADD20C,2.051600*%
%ADD21FreePoly1,90.000000*%
%ADD22FreePoly1,180.000000*%
%ADD23RoundRect,0.558800X-0.000010X-0.000010X0.000010X-0.000010X0.000010X0.000010X-0.000010X0.000010X0*%
%ADD24C,3.317600*%
%ADD25FreePoly2,270.000000*%
%ADD26RoundRect,0.115080X1.035720X-1.735720X1.035720X1.735720X-1.035720X1.735720X-1.035720X-1.735720X0*%
%ADD27RoundRect,0.066040X1.102360X-0.594360X1.102360X0.594360X-1.102360X0.594360X-1.102360X-0.594360X0*%
%ADD28RoundRect,0.100080X1.650720X-0.900720X1.650720X0.900720X-1.650720X0.900720X-1.650720X-0.900720X0*%
%ADD29RoundRect,0.400000X0.100000X-0.200800X0.100000X0.200800X-0.100000X0.200800X-0.100000X-0.200800X0*%
%ADD30RoundRect,0.057355X-0.437945X0.387145X-0.437945X-0.387145X0.437945X-0.387145X0.437945X0.387145X0*%
%ADD31RoundRect,0.400000X-0.200800X-0.100000X0.200800X-0.100000X0.200800X0.100000X-0.200800X0.100000X0*%
%ADD32RoundRect,0.152640X-0.248160X0.038160X-0.248160X-0.038160X0.248160X-0.038160X0.248160X0.038160X0*%
%ADD33RoundRect,0.152640X0.038160X0.248160X-0.038160X0.248160X-0.038160X-0.248160X0.038160X-0.248160X0*%
%ADD34FreePoly0,180.000000*%
%ADD35RoundRect,0.055961X0.494839X0.494839X-0.494839X0.494839X-0.494839X-0.494839X0.494839X-0.494839X0*%
%ADD36RoundRect,0.055961X0.594839X0.494839X-0.594839X0.494839X-0.594839X-0.494839X0.594839X-0.494839X0*%
%ADD37RoundRect,0.063500X-0.571500X-0.787400X0.571500X-0.787400X0.571500X0.787400X-0.571500X0.787400X0*%
%ADD38RoundRect,0.400000X0.100000X0.200800X-0.100000X0.200800X-0.100000X-0.200800X0.100000X-0.200800X0*%
%ADD39RoundRect,0.061123X-0.314677X0.239677X-0.314677X-0.239677X0.314677X-0.239677X0.314677X0.239677X0*%
%ADD40RoundRect,0.061123X0.314677X-0.239677X0.314677X0.239677X-0.314677X0.239677X-0.314677X-0.239677X0*%
%ADD41RoundRect,0.400000X0.200800X0.100000X-0.200800X0.100000X-0.200800X-0.100000X0.200800X-0.100000X0*%
%ADD42RoundRect,0.400000X-0.100000X-0.200800X0.100000X-0.200800X0.100000X0.200800X-0.100000X0.200800X0*%
%ADD43FreePoly2,90.000000*%
%ADD44RoundRect,0.068004X0.582796X-0.132796X0.582796X0.132796X-0.582796X0.132796X-0.582796X-0.132796X0*%
%ADD45RoundRect,0.112620X-0.738180X-0.638180X0.738180X-0.638180X0.738180X0.638180X-0.738180X0.638180X0*%
%ADD46RoundRect,0.058173X0.342627X-0.992627X0.342627X0.992627X-0.342627X0.992627X-0.342627X-0.992627X0*%
%ADD47RoundRect,0.060184X-0.590616X0.265616X-0.590616X-0.265616X0.590616X-0.265616X0.590616X0.265616X0*%
%ADD48RoundRect,0.075080X-0.875720X0.675720X-0.875720X-0.675720X0.875720X-0.675720X0.875720X0.675720X0*%
%ADD49RoundRect,0.075080X0.875720X-0.675720X0.875720X0.675720X-0.875720X0.675720X-0.875720X-0.675720X0*%
%ADD50RoundRect,0.055961X-0.594839X-0.494839X0.594839X-0.494839X0.594839X0.494839X-0.594839X0.494839X0*%
G04 APERTURE END LIST*
D10*
%TO.C,FD1*%
X121061100Y-81762600D02*
G75*
G02*
X120061100Y-81762600I-500000J0D01*
G01*
X120061100Y-81762600D02*
G75*
G02*
X121061100Y-81762600I500000J0D01*
G01*
%TO.C,FD2*%
X168551100Y-114932600D02*
G75*
G02*
X167551100Y-114932600I-500000J0D01*
G01*
X167551100Y-114932600D02*
G75*
G02*
X168551100Y-114932600I500000J0D01*
G01*
%TO.C,FD3*%
X118441100Y-128263600D02*
G75*
G02*
X117441100Y-128263600I-500000J0D01*
G01*
X117441100Y-128263600D02*
G75*
G02*
X118441100Y-128263600I500000J0D01*
G01*
D11*
%TO.C,U3*%
G36*
X134381702Y-95689120D02*
G01*
X134606267Y-95749292D01*
X134816971Y-95847545D01*
X135007413Y-95980894D01*
X135171806Y-96145287D01*
X135305155Y-96335729D01*
X135403408Y-96546433D01*
X135463580Y-96770998D01*
X135483843Y-97002600D01*
X135463580Y-97234202D01*
X135403408Y-97458767D01*
X135305155Y-97669471D01*
X135171806Y-97859913D01*
X135007413Y-98024306D01*
X134816971Y-98157655D01*
X134606267Y-98255908D01*
X134381702Y-98316080D01*
X134150100Y-98336343D01*
X133918498Y-98316080D01*
X133693933Y-98255908D01*
X133483229Y-98157655D01*
X133292787Y-98024306D01*
X133128394Y-97859913D01*
X132995045Y-97669471D01*
X132896792Y-97458767D01*
X132836620Y-97234202D01*
X132816357Y-97002600D01*
X132836620Y-96770998D01*
X132896792Y-96546433D01*
X132995045Y-96335729D01*
X133128394Y-96145287D01*
X133292787Y-95980894D01*
X133483229Y-95847545D01*
X133696474Y-95748106D01*
X134147306Y-95668613D01*
X134381702Y-95689120D01*
G37*
%TO.C,RESET-EN0*%
G36*
X142227300Y-105283000D02*
G01*
X142074900Y-105283000D01*
X142074900Y-103454200D01*
X142227300Y-103454200D01*
X142227300Y-105283000D01*
G37*
%TD*%
D12*
%TO.C,UNK_HOLE_0*%
X180251100Y-96113600D03*
%TD*%
%TO.C,UNK_HOLE_1*%
X180251100Y-124053600D03*
%TD*%
%TO.C,UNK_HOLE_2*%
X129451100Y-80873600D03*
%TD*%
%TO.C,UNK_HOLE_3*%
X128181100Y-129133600D03*
%TD*%
D13*
%TO.C,ZU4*%
X177076100Y-119100600D03*
X174536100Y-119100600D03*
X171996100Y-119100600D03*
X169456100Y-119100600D03*
X166916100Y-119100600D03*
X164376100Y-119100600D03*
X161836100Y-119100600D03*
X159296100Y-119100600D03*
X156756100Y-119100600D03*
X154216100Y-119100600D03*
X151676100Y-119100600D03*
X149136100Y-119100600D03*
X146596100Y-119100600D03*
X144056100Y-119100600D03*
X144056100Y-111480600D03*
X146596100Y-111480600D03*
X149136100Y-111480600D03*
X151676100Y-111480600D03*
X154216100Y-111480600D03*
X156756100Y-111480600D03*
X159296100Y-111480600D03*
X161836100Y-111480600D03*
X164376100Y-111480600D03*
X166916100Y-111480600D03*
X169456100Y-111480600D03*
X171996100Y-111480600D03*
X174536100Y-111480600D03*
X177076100Y-111480600D03*
%TD*%
D14*
%TO.C,ICSP0*%
X180378100Y-106273600D03*
X177838100Y-106273600D03*
X180378100Y-103733600D03*
X177838100Y-103733600D03*
X180378100Y-101193600D03*
X177838100Y-101193600D03*
%TD*%
D13*
%TO.C,IOL0*%
X159931100Y-80873600D03*
X162471100Y-80873600D03*
X165011100Y-80873600D03*
X167551100Y-80873600D03*
X170091100Y-80873600D03*
X172631100Y-80873600D03*
X175171100Y-80873600D03*
X177711100Y-80873600D03*
%TD*%
%TO.C,IOH0*%
X133007100Y-80873600D03*
X135547100Y-80873600D03*
X138087100Y-80873600D03*
X140627100Y-80873600D03*
X143167100Y-80873600D03*
X145707100Y-80873600D03*
X148247100Y-80873600D03*
X150787100Y-80873600D03*
X153327100Y-80873600D03*
X155867100Y-80873600D03*
%TD*%
%TO.C,AD0*%
X177711100Y-129133600D03*
X175171100Y-129133600D03*
X172631100Y-129133600D03*
X170091100Y-129133600D03*
X167551100Y-129133600D03*
X165011100Y-129133600D03*
%TD*%
D15*
%TO.C,C2*%
X125387100Y-101828600D03*
X127165100Y-101828600D03*
%TD*%
D16*
%TO.C,PC1*%
X139738100Y-120129600D03*
X139738100Y-124929600D03*
%TD*%
%TO.C,PC2*%
X132626100Y-120129600D03*
X132626100Y-124929600D03*
%TD*%
D17*
%TO.C,ON0*%
X171581100Y-95097600D03*
X173681100Y-95097600D03*
%TD*%
D18*
%TO.C,RX0*%
X143201100Y-97383600D03*
X141101100Y-97383600D03*
%TD*%
%TO.C,TX0*%
X143201100Y-95097600D03*
X141101100Y-95097600D03*
%TD*%
D19*
%TO.C,D1*%
X133601100Y-128879600D03*
X138001100Y-128879600D03*
%TD*%
D20*
%TO.C,X1*%
X125895100Y-122605800D03*
X125895100Y-124129800D03*
X119900700Y-122605800D03*
X119900700Y-124129800D03*
X122135900Y-128371600D03*
X123659900Y-128371600D03*
D21*
X119900700Y-123367800D03*
X125895100Y-123367800D03*
D22*
X122897900Y-128371600D03*
%TD*%
D23*
%TO.C,FD1*%
X120561100Y-81762600D03*
%TD*%
%TO.C,FD2*%
X168051100Y-114932600D03*
%TD*%
%TO.C,FD3*%
X117941100Y-128263600D03*
%TD*%
D24*
%TO.C,X2*%
X118021100Y-99573600D03*
X118021100Y-87573600D03*
D25*
X120731100Y-94823600D03*
X120731100Y-92323600D03*
X122731100Y-92323600D03*
X122731100Y-94823600D03*
%TD*%
D26*
%TO.C,U1*%
X118859100Y-114274600D03*
D27*
X125056900Y-111963200D03*
X125056900Y-114274600D03*
X125056900Y-116586000D03*
%TD*%
D15*
%TO.C,C4*%
X141262100Y-87223600D03*
X143040100Y-87223600D03*
%TD*%
D28*
%TO.C,F1*%
X118275100Y-103180600D03*
X118275100Y-107080600D03*
%TD*%
D29*
%TO.C,C7*%
X143040100Y-100177600D03*
X141262100Y-100177600D03*
%TD*%
D17*
%TO.C,L0*%
X141101100Y-89509600D03*
X143201100Y-89509600D03*
%TD*%
D30*
%TO.C,T1*%
X121323100Y-105156000D03*
X123355100Y-104190800D03*
X123355100Y-106121200D03*
%TD*%
D31*
%TO.C,C1*%
X132626100Y-117195600D03*
X132626100Y-115417600D03*
%TD*%
D32*
%TO.C,U3*%
X131700100Y-98752600D03*
X131700100Y-98252600D03*
X131700100Y-97752600D03*
X131700100Y-97252600D03*
X131700100Y-96752600D03*
X131700100Y-96252600D03*
X131700100Y-95752600D03*
X131700100Y-95252600D03*
D33*
X132400100Y-94552600D03*
X132900100Y-94552600D03*
X133400100Y-94552600D03*
X133900100Y-94552600D03*
X134400100Y-94552600D03*
X134900100Y-94552600D03*
X135400100Y-94552600D03*
X135900100Y-94552600D03*
D32*
X136600100Y-95252600D03*
X136600100Y-95752600D03*
X136600100Y-96252600D03*
X136600100Y-96752600D03*
X136600100Y-97252600D03*
X136600100Y-97752600D03*
X136600100Y-98252600D03*
X136600100Y-98752600D03*
D33*
X135900100Y-99452600D03*
X135400100Y-99452600D03*
X134900100Y-99452600D03*
X134400100Y-99452600D03*
X133900100Y-99452600D03*
X133400100Y-99452600D03*
X132900100Y-99452600D03*
X132400100Y-99452600D03*
%TD*%
D29*
%TO.C,C5*%
X143040100Y-101828600D03*
X141262100Y-101828600D03*
%TD*%
D34*
%TO.C,ICSP1*%
X129959100Y-86715600D03*
X129959100Y-84175600D03*
X132499100Y-86715600D03*
X132499100Y-84175600D03*
X135039100Y-86715600D03*
X135039100Y-84175600D03*
%TD*%
D35*
%TO.C,Z1*%
X125911100Y-92303600D03*
X127911100Y-92303600D03*
%TD*%
%TO.C,Z2*%
X125911100Y-98018600D03*
X127911100Y-98018600D03*
%TD*%
D36*
%TO.C,L1*%
X120731100Y-86588600D03*
X122931100Y-86588600D03*
%TD*%
D37*
%TO.C,RESET-EN0*%
X142913100Y-104368600D03*
X141389100Y-104368600D03*
%TD*%
D38*
%TO.C,R2*%
X154597100Y-108940600D03*
X156375100Y-108940600D03*
%TD*%
D39*
%TO.C,RN2*%
X142826100Y-91103600D03*
X142826100Y-91903600D03*
X142826100Y-92703600D03*
X142826100Y-93503600D03*
X141476100Y-93503600D03*
X141476100Y-92703600D03*
X141476100Y-91903600D03*
X141476100Y-91103600D03*
%TD*%
D40*
%TO.C,RN1*%
X141476100Y-108997600D03*
X141476100Y-108197600D03*
X141476100Y-107397600D03*
X141476100Y-106597600D03*
X142826100Y-106597600D03*
X142826100Y-107397600D03*
X142826100Y-108197600D03*
X142826100Y-108997600D03*
%TD*%
D29*
%TO.C,C6*%
X160820100Y-108813600D03*
X159042100Y-108813600D03*
%TD*%
D15*
%TO.C,C8*%
X126022100Y-89763600D03*
X127800100Y-89763600D03*
%TD*%
D40*
%TO.C,RN4*%
X171956100Y-99091600D03*
X171956100Y-98291600D03*
X171956100Y-97491600D03*
X171956100Y-96691600D03*
X173306100Y-96691600D03*
X173306100Y-97491600D03*
X173306100Y-98291600D03*
X173306100Y-99091600D03*
%TD*%
%TO.C,RN3*%
X126363100Y-96043600D03*
X126363100Y-95243600D03*
X126363100Y-94443600D03*
X126363100Y-93643600D03*
X127713100Y-93643600D03*
X127713100Y-94443600D03*
X127713100Y-95243600D03*
X127713100Y-96043600D03*
%TD*%
D41*
%TO.C,C3*%
X139738100Y-115417600D03*
X139738100Y-117195600D03*
%TD*%
D42*
%TO.C,R1*%
X134150100Y-102082600D03*
X132372100Y-102082600D03*
%TD*%
D15*
%TO.C,C9*%
X129324100Y-102082600D03*
X131102100Y-102082600D03*
%TD*%
D29*
%TO.C,C11*%
X137325100Y-102082600D03*
X135547100Y-102082600D03*
%TD*%
D43*
%TO.C,JP2*%
X132499100Y-89255600D03*
X135039100Y-89255600D03*
X132499100Y-91795600D03*
X135039100Y-91795600D03*
%TD*%
D44*
%TO.C,U5*%
X135374100Y-112329600D03*
X135374100Y-111679600D03*
X135374100Y-111029600D03*
X135374100Y-110379600D03*
X131149100Y-110379600D03*
X131149100Y-111029600D03*
X131149100Y-111679600D03*
X131149100Y-112329600D03*
%TD*%
D45*
%TO.C,RESET0*%
X116361100Y-82270600D03*
X124761100Y-84520600D03*
X116361100Y-84520600D03*
X124761100Y-80020600D03*
X116361100Y-80020600D03*
%TD*%
D46*
%TO.C,Y2*%
X156486100Y-106781600D03*
X155486100Y-106781600D03*
X154486100Y-106781600D03*
%TD*%
D47*
%TO.C,U2*%
X137482100Y-115483600D03*
X137482100Y-117383600D03*
X134882100Y-117383600D03*
X134882100Y-116433600D03*
X134882100Y-115483600D03*
%TD*%
D13*
%TO.C,POWER0*%
X159931100Y-129133600D03*
X157391100Y-129133600D03*
X154851100Y-129133600D03*
X152311100Y-129133600D03*
X149771100Y-129133600D03*
X147231100Y-129133600D03*
X144691100Y-129133600D03*
X142151100Y-129133600D03*
%TD*%
D48*
%TO.C,D2*%
X173647100Y-105433600D03*
X173647100Y-102033600D03*
%TD*%
D49*
%TO.C,D3*%
X127292100Y-83745600D03*
X127292100Y-87145600D03*
%TD*%
D25*
%TO.C,Y1*%
X130594100Y-105511600D03*
X135674100Y-105511600D03*
%TD*%
D50*
%TO.C,L2*%
X154427100Y-123545600D03*
X152227100Y-123545600D03*
%TD*%
D15*
%TO.C,C10*%
X157645100Y-121132600D03*
X159423100Y-121132600D03*
%TD*%
M02*
