%TF.GenerationSoftware,KiCad,Pcbnew,9.0.6*%
%TF.CreationDate,2026-02-23T21:39:28+00:00*%
%TF.ProjectId,20250806_UNOQ,32303235-3038-4303-965f-554e4f512e6b,rev?*%
%TF.SameCoordinates,Original*%
%TF.FileFunction,Soldermask,Bot*%
%TF.FilePolarity,Negative*%
%FSLAX46Y46*%
G04 Gerber Fmt 4.6, Leading zero omitted, Abs format (unit mm)*
G04 Created by KiCad (PCBNEW 9.0.6) date 2026-02-23 21:39:28*
%MOMM*%
%LPD*%
G01*
G04 APERTURE LIST*
G04 Aperture macros list*
%AMRoundRect*
0 Rectangle with rounded corners*
0 $1 Rounding radius*
0 $2 $3 $4 $5 $6 $7 $8 $9 X,Y pos of 4 corners*
0 Add a 4 corners polygon primitive as box body*
4,1,4,$2,$3,$4,$5,$6,$7,$8,$9,$2,$3,0*
0 Add four circle primitives for the rounded corners*
1,1,$1+$1,$2,$3*
1,1,$1+$1,$4,$5*
1,1,$1+$1,$6,$7*
1,1,$1+$1,$8,$9*
0 Add four rect primitives between the rounded corners*
20,1,$1+$1,$2,$3,$4,$5,0*
20,1,$1+$1,$4,$5,$6,$7,0*
20,1,$1+$1,$6,$7,$8,$9,0*
20,1,$1+$1,$8,$9,$2,$3,0*%
%AMFreePoly0*
4,1,17,0.356937,0.810921,0.810921,0.356937,0.825800,0.321016,0.825800,-0.321016,0.810921,-0.356937,0.356937,-0.810921,0.321016,-0.825800,-0.321016,-0.825800,-0.356937,-0.810921,-0.810921,-0.356937,-0.825800,-0.321016,-0.825800,0.321016,-0.810921,0.356937,-0.356937,0.810921,-0.321016,0.825800,0.321016,0.825800,0.356937,0.810921,0.356937,0.810921,$1*%
%AMFreePoly1*
4,1,17,0.864348,2.035921,2.035921,0.864348,2.050800,0.828427,2.050800,-0.828427,2.035921,-0.864348,0.864348,-2.035921,0.828427,-2.050800,-0.828427,-2.050800,-0.864348,-2.035921,-2.035921,-0.864348,-2.050800,-0.828427,-2.050800,0.828427,-2.035921,0.864348,-0.864348,2.035921,-0.828427,2.050800,0.828427,2.050800,0.864348,2.035921,0.864348,2.035921,$1*%
%AMFreePoly2*
4,1,17,0.383115,0.874121,0.874121,0.383115,0.889000,0.347194,0.889000,-0.347194,0.874121,-0.383115,0.383115,-0.874121,0.347194,-0.889000,-0.347194,-0.889000,-0.383115,-0.874121,-0.874121,-0.383115,-0.889000,-0.347194,-0.889000,0.347194,-0.874121,0.383115,-0.383115,0.874121,-0.347194,0.889000,0.347194,0.889000,0.383115,0.874121,0.383115,0.874121,$1*%
G04 Aperture macros list end*
%ADD10C,0.000000*%
%ADD11C,3.200000*%
%ADD12O,1.524000X2.235200*%
%ADD13FreePoly0,270.000000*%
%ADD14C,2.051600*%
%ADD15FreePoly1,90.000000*%
%ADD16FreePoly1,180.000000*%
%ADD17C,3.317600*%
%ADD18FreePoly2,270.000000*%
%ADD19FreePoly0,180.000000*%
%ADD20RoundRect,0.063500X0.571500X0.787400X-0.571500X0.787400X-0.571500X-0.787400X0.571500X-0.787400X0*%
%ADD21FreePoly2,90.000000*%
%ADD22RoundRect,0.450800X-0.000010X-0.000010X0.000010X-0.000010X0.000010X0.000010X-0.000010X0.000010X0*%
G04 APERTURE END LIST*
D10*
%TO.C,GROUND0*%
G36*
X125717300Y-91948000D02*
G01*
X125564900Y-91948000D01*
X125564900Y-90119200D01*
X125717300Y-90119200D01*
X125717300Y-91948000D01*
G37*
%TD*%
D11*
%TO.C,UNK_HOLE_0*%
X180251100Y-96113600D03*
%TD*%
%TO.C,UNK_HOLE_1*%
X180251100Y-124053600D03*
%TD*%
%TO.C,UNK_HOLE_2*%
X129451100Y-80873600D03*
%TD*%
%TO.C,UNK_HOLE_3*%
X128181100Y-129133600D03*
%TD*%
D12*
%TO.C,ZU4*%
X177076100Y-119100600D03*
X174536100Y-119100600D03*
X171996100Y-119100600D03*
X169456100Y-119100600D03*
X166916100Y-119100600D03*
X164376100Y-119100600D03*
X161836100Y-119100600D03*
X159296100Y-119100600D03*
X156756100Y-119100600D03*
X154216100Y-119100600D03*
X151676100Y-119100600D03*
X149136100Y-119100600D03*
X146596100Y-119100600D03*
X144056100Y-119100600D03*
X144056100Y-111480600D03*
X146596100Y-111480600D03*
X149136100Y-111480600D03*
X151676100Y-111480600D03*
X154216100Y-111480600D03*
X156756100Y-111480600D03*
X159296100Y-111480600D03*
X161836100Y-111480600D03*
X164376100Y-111480600D03*
X166916100Y-111480600D03*
X169456100Y-111480600D03*
X171996100Y-111480600D03*
X174536100Y-111480600D03*
X177076100Y-111480600D03*
%TD*%
D13*
%TO.C,ICSP0*%
X180378100Y-106273600D03*
X177838100Y-106273600D03*
X180378100Y-103733600D03*
X177838100Y-103733600D03*
X180378100Y-101193600D03*
X177838100Y-101193600D03*
%TD*%
D12*
%TO.C,IOL0*%
X159931100Y-80873600D03*
X162471100Y-80873600D03*
X165011100Y-80873600D03*
X167551100Y-80873600D03*
X170091100Y-80873600D03*
X172631100Y-80873600D03*
X175171100Y-80873600D03*
X177711100Y-80873600D03*
%TD*%
%TO.C,IOH0*%
X133007100Y-80873600D03*
X135547100Y-80873600D03*
X138087100Y-80873600D03*
X140627100Y-80873600D03*
X143167100Y-80873600D03*
X145707100Y-80873600D03*
X148247100Y-80873600D03*
X150787100Y-80873600D03*
X153327100Y-80873600D03*
X155867100Y-80873600D03*
%TD*%
%TO.C,AD0*%
X177711100Y-129133600D03*
X175171100Y-129133600D03*
X172631100Y-129133600D03*
X170091100Y-129133600D03*
X167551100Y-129133600D03*
X165011100Y-129133600D03*
%TD*%
D14*
%TO.C,X1*%
X125895100Y-122605800D03*
X125895100Y-124129800D03*
X119900700Y-122605800D03*
X119900700Y-124129800D03*
X122135900Y-128371600D03*
X123659900Y-128371600D03*
D15*
X119900700Y-123367800D03*
X125895100Y-123367800D03*
D16*
X122897900Y-128371600D03*
%TD*%
D17*
%TO.C,X2*%
X118021100Y-99573600D03*
X118021100Y-87573600D03*
D18*
X120731100Y-94823600D03*
X120731100Y-92323600D03*
X122731100Y-92323600D03*
X122731100Y-94823600D03*
%TD*%
D19*
%TO.C,ICSP1*%
X129959100Y-86715600D03*
X129959100Y-84175600D03*
X132499100Y-86715600D03*
X132499100Y-84175600D03*
X135039100Y-86715600D03*
X135039100Y-84175600D03*
%TD*%
D20*
%TO.C,GROUND0*%
X124879100Y-91033600D03*
X126403100Y-91033600D03*
%TD*%
D21*
%TO.C,JP2*%
X132499100Y-89255600D03*
X135039100Y-89255600D03*
X132499100Y-91795600D03*
X135039100Y-91795600D03*
%TD*%
D12*
%TO.C,POWER0*%
X159931100Y-129133600D03*
X157391100Y-129133600D03*
X154851100Y-129133600D03*
X152311100Y-129133600D03*
X149771100Y-129133600D03*
X147231100Y-129133600D03*
X144691100Y-129133600D03*
X142151100Y-129133600D03*
%TD*%
D18*
%TO.C,Y1*%
X130594100Y-105511600D03*
X135674100Y-105511600D03*
%TD*%
D22*
%TO.C,ORIGIN0*%
X114211100Y-131673600D03*
%TD*%
%TO.C,GND_TP0*%
X157391100Y-129133600D03*
%TD*%
%TO.C,TP_PWRIN0*%
X127419100Y-123418600D03*
%TD*%
%TO.C,TP_VIN0*%
X159931100Y-129133600D03*
%TD*%
%TO.C,TP_5V0*%
X152311100Y-129133600D03*
%TD*%
%TO.C,TP_3V3*%
X149771100Y-129133600D03*
%TD*%
%TO.C,TP_RESET0*%
X147231100Y-129133600D03*
%TD*%
%TO.C,TP_A0*%
X165011100Y-129133600D03*
%TD*%
%TO.C,TP_A1*%
X167551100Y-129133600D03*
%TD*%
%TO.C,TP_A2*%
X170091100Y-129133600D03*
%TD*%
%TO.C,TP_A3*%
X172631100Y-129133600D03*
%TD*%
%TO.C,TP_A4*%
X175171100Y-129133600D03*
%TD*%
%TO.C,TP_A5*%
X177711100Y-129133600D03*
%TD*%
%TO.C,TP_0*%
X177711100Y-80873600D03*
%TD*%
%TO.C,TP_1*%
X175171100Y-80873600D03*
%TD*%
%TO.C,TP_2*%
X172631100Y-80873600D03*
%TD*%
%TO.C,TP_3*%
X170091100Y-80873600D03*
%TD*%
%TO.C,TP_4*%
X167551100Y-80873600D03*
%TD*%
%TO.C,TP_5*%
X165011100Y-80873600D03*
%TD*%
%TO.C,TP_6*%
X162471100Y-80873600D03*
%TD*%
%TO.C,TP_7*%
X159931100Y-80873600D03*
%TD*%
%TO.C,TP_8*%
X155867100Y-80873600D03*
%TD*%
%TO.C,TP_9*%
X153327100Y-80873600D03*
%TD*%
%TO.C,TP_10*%
X150787100Y-80873600D03*
%TD*%
%TO.C,TP_11*%
X148247100Y-80873600D03*
%TD*%
%TO.C,TP_12*%
X145707100Y-80873600D03*
%TD*%
%TO.C,TP_13*%
X143167100Y-80873600D03*
%TD*%
%TO.C,TP_AREF0*%
X138087100Y-80873600D03*
%TD*%
%TO.C,TP_SDA0*%
X135547100Y-80873600D03*
%TD*%
%TO.C,TP_SCL0*%
X133007100Y-80873600D03*
%TD*%
%TO.C,TP_XT1*%
X156756100Y-111480600D03*
%TD*%
%TO.C,TP_XT2*%
X154216100Y-111480600D03*
%TD*%
%TO.C,TP_ONL0*%
X170853100Y-96621600D03*
%TD*%
%TO.C,TP_RX0*%
X166662100Y-97510600D03*
%TD*%
%TO.C,TP_TX0*%
X165265100Y-99669600D03*
%TD*%
%TO.C,TP_TXL0*%
X145580100Y-92938600D03*
%TD*%
%TO.C,TP_RXL0*%
X145580100Y-95986600D03*
%TD*%
%TO.C,TP_DTR0*%
X140119100Y-101828600D03*
%TD*%
%TO.C,TP_USBVCC0*%
X124117100Y-100812600D03*
%TD*%
%TO.C,TP_VUCAP0*%
X129197100Y-89763600D03*
%TD*%
%TO.C,TP_XT3*%
X130594100Y-105511600D03*
%TD*%
%TO.C,TP_XT4*%
X135674100Y-105511600D03*
%TD*%
%TO.C,TP_PB4*%
X135039100Y-91795600D03*
%TD*%
%TO.C,TP_PB5*%
X135039100Y-89255600D03*
%TD*%
%TO.C,TP_PB6*%
X132499100Y-91795600D03*
%TD*%
%TO.C,TP_PB7*%
X132499100Y-89255600D03*
%TD*%
%TO.C,TP_MISO2*%
X135039100Y-84175600D03*
%TD*%
%TO.C,TP_RESET2*%
X129959100Y-84175600D03*
%TD*%
%TO.C,TP_MOSI2*%
X132499100Y-86715600D03*
%TD*%
%TO.C,TP_SCK2*%
X132499100Y-84175600D03*
%TD*%
%TO.C,TP_XUSB0*%
X122720100Y-94843600D03*
%TD*%
%TO.C,TP_D-0*%
X122720100Y-92303600D03*
%TD*%
%TO.C,TP_D+0*%
X120180100Y-92303600D03*
%TD*%
%TO.C,TP_USH0*%
X123228100Y-88874600D03*
%TD*%
%TO.C,TP_UGND0*%
X120180100Y-94843600D03*
%TD*%
%TO.C,TP_GATE0*%
X126276100Y-110210600D03*
%TD*%
%TO.C,TP_LCMD0*%
X133134100Y-110591600D03*
%TD*%
%TO.C,TP_LL0*%
X139738100Y-88493600D03*
%TD*%
%TO.C,TP_CMP0*%
X144183100Y-108305600D03*
%TD*%
%TO.C,GND_TP1*%
X140627100Y-80873600D03*
%TD*%
%TO.C,TP_5V1*%
X180378100Y-101193600D03*
%TD*%
M02*
