%TF.GenerationSoftware,KiCad,Pcbnew,9.0.6*%
%TF.CreationDate,2026-02-23T21:39:28+00:00*%
%TF.ProjectId,20250806_UNOQ,32303235-3038-4303-965f-554e4f512e6b,rev?*%
%TF.SameCoordinates,Original*%
%TF.FileFunction,Legend,Top*%
%TF.FilePolarity,Positive*%
%FSLAX46Y46*%
G04 Gerber Fmt 4.6, Leading zero omitted, Abs format (unit mm)*
G04 Created by KiCad (PCBNEW 9.0.6) date 2026-02-23 21:39:28*
%MOMM*%
%LPD*%
G01*
G04 APERTURE LIST*
%ADD10C,0.304800*%
%ADD11C,0.254000*%
%ADD12C,0.170688*%
%ADD13C,0.121920*%
%ADD14C,0.251460*%
%ADD15C,0.335280*%
%ADD16C,0.142240*%
%ADD17C,0.190500*%
%ADD18C,0.137160*%
%ADD19C,0.266700*%
%ADD20C,0.476250*%
%ADD21C,0.203200*%
%ADD22C,0.145288*%
%ADD23C,0.262128*%
%ADD24C,0.160020*%
%ADD25C,0.114300*%
%ADD26C,0.093472*%
%ADD27C,0.175260*%
%ADD28C,0.116840*%
%ADD29C,0.097536*%
%ADD30C,0.065024*%
%ADD31C,0.056083*%
%ADD32C,0.160338*%
%ADD33C,0.032715*%
%ADD34C,0.044867*%
%ADD35C,0.152400*%
%ADD36C,0.101600*%
%ADD37C,0.000000*%
%ADD38C,0.127000*%
%ADD39C,0.070000*%
%ADD40C,0.050800*%
%ADD41C,0.220000*%
G04 APERTURE END LIST*
D10*
X174282100Y-85572600D02*
X176060100Y-85572600D01*
X176060100Y-85572600D02*
X175171100Y-84683600D01*
X175171100Y-84683600D02*
X174282100Y-85572600D01*
X178727100Y-84683600D02*
X176949100Y-84683600D01*
X176949100Y-84683600D02*
X177838100Y-85572600D01*
X177838100Y-85572600D02*
X178727100Y-84683600D01*
X174663100Y-85445600D02*
X175171100Y-84937600D01*
X175171100Y-84937600D02*
X175679100Y-85445600D01*
X175679100Y-85445600D02*
X174917100Y-85445600D01*
X174917100Y-85445600D02*
X175298100Y-85191600D01*
X177330100Y-84810600D02*
X178346100Y-84810600D01*
X178346100Y-84810600D02*
X177838100Y-85318600D01*
X177838100Y-85318600D02*
X177457100Y-84937600D01*
X177457100Y-84937600D02*
X177965100Y-84937600D01*
X177838100Y-85064600D02*
X177838100Y-85191600D01*
X152692100Y-86588600D02*
X144564100Y-86588600D01*
X144564100Y-86588600D02*
X143421100Y-85445600D01*
X171488100Y-86588600D02*
X163360100Y-86588600D01*
X172631100Y-85445600D02*
X171488100Y-86588600D01*
D11*
X136563100Y-82905600D02*
G75*
G02*
X136055100Y-82905600I-254000J0D01*
G01*
X136055100Y-82905600D02*
G75*
G02*
X136563100Y-82905600I254000J0D01*
G01*
D12*
X152174474Y-125941826D02*
X151578420Y-125941826D01*
X151578420Y-125941826D02*
X151518815Y-126537879D01*
X151518815Y-126537879D02*
X151578420Y-126478274D01*
X151578420Y-126478274D02*
X151697631Y-126418669D01*
X151697631Y-126418669D02*
X151995658Y-126418669D01*
X151995658Y-126418669D02*
X152114868Y-126478274D01*
X152114868Y-126478274D02*
X152174474Y-126537879D01*
X152174474Y-126537879D02*
X152234079Y-126657090D01*
X152234079Y-126657090D02*
X152234079Y-126955117D01*
X152234079Y-126955117D02*
X152174474Y-127074327D01*
X152174474Y-127074327D02*
X152114868Y-127133933D01*
X152114868Y-127133933D02*
X151995658Y-127193538D01*
X151995658Y-127193538D02*
X151697631Y-127193538D01*
X151697631Y-127193538D02*
X151578420Y-127133933D01*
X151578420Y-127133933D02*
X151518815Y-127074327D01*
X152591711Y-125941826D02*
X153008949Y-127193538D01*
X153008949Y-127193538D02*
X153426186Y-125941826D01*
D13*
X164450210Y-126972190D02*
X164875963Y-126972190D01*
X164365060Y-127227642D02*
X164663087Y-126333562D01*
X164663087Y-126333562D02*
X164961113Y-127227642D01*
X165429441Y-126333562D02*
X165514591Y-126333562D01*
X165514591Y-126333562D02*
X165599742Y-126376137D01*
X165599742Y-126376137D02*
X165642317Y-126418712D01*
X165642317Y-126418712D02*
X165684892Y-126503863D01*
X165684892Y-126503863D02*
X165727467Y-126674164D01*
X165727467Y-126674164D02*
X165727467Y-126887040D01*
X165727467Y-126887040D02*
X165684892Y-127057341D01*
X165684892Y-127057341D02*
X165642317Y-127142491D01*
X165642317Y-127142491D02*
X165599742Y-127185067D01*
X165599742Y-127185067D02*
X165514591Y-127227642D01*
X165514591Y-127227642D02*
X165429441Y-127227642D01*
X165429441Y-127227642D02*
X165344290Y-127185067D01*
X165344290Y-127185067D02*
X165301715Y-127142491D01*
X165301715Y-127142491D02*
X165259140Y-127057341D01*
X165259140Y-127057341D02*
X165216564Y-126887040D01*
X165216564Y-126887040D02*
X165216564Y-126674164D01*
X165216564Y-126674164D02*
X165259140Y-126503863D01*
X165259140Y-126503863D02*
X165301715Y-126418712D01*
X165301715Y-126418712D02*
X165344290Y-126376137D01*
X165344290Y-126376137D02*
X165429441Y-126333562D01*
D14*
X165193951Y-124983013D02*
X165872494Y-124983013D01*
X165058242Y-125390139D02*
X165533222Y-123965199D01*
X165533222Y-123965199D02*
X166008202Y-125390139D01*
X166483182Y-125390139D02*
X166483182Y-123965199D01*
X166483182Y-123965199D02*
X167297433Y-125390139D01*
X167297433Y-125390139D02*
X167297433Y-123965199D01*
X167908122Y-124983013D02*
X168586665Y-124983013D01*
X167772413Y-125390139D02*
X168247393Y-123965199D01*
X168247393Y-123965199D02*
X168722373Y-125390139D01*
X169875896Y-125390139D02*
X169197353Y-125390139D01*
X169197353Y-125390139D02*
X169197353Y-123965199D01*
X170622293Y-123965199D02*
X170893710Y-123965199D01*
X170893710Y-123965199D02*
X171029419Y-124033053D01*
X171029419Y-124033053D02*
X171165127Y-124168762D01*
X171165127Y-124168762D02*
X171232982Y-124440179D01*
X171232982Y-124440179D02*
X171232982Y-124915159D01*
X171232982Y-124915159D02*
X171165127Y-125186576D01*
X171165127Y-125186576D02*
X171029419Y-125322285D01*
X171029419Y-125322285D02*
X170893710Y-125390139D01*
X170893710Y-125390139D02*
X170622293Y-125390139D01*
X170622293Y-125390139D02*
X170486585Y-125322285D01*
X170486585Y-125322285D02*
X170350876Y-125186576D01*
X170350876Y-125186576D02*
X170283022Y-124915159D01*
X170283022Y-124915159D02*
X170283022Y-124440179D01*
X170283022Y-124440179D02*
X170350876Y-124168762D01*
X170350876Y-124168762D02*
X170486585Y-124033053D01*
X170486585Y-124033053D02*
X170622293Y-123965199D01*
X172590067Y-124033053D02*
X172454359Y-123965199D01*
X172454359Y-123965199D02*
X172250796Y-123965199D01*
X172250796Y-123965199D02*
X172047233Y-124033053D01*
X172047233Y-124033053D02*
X171911524Y-124168762D01*
X171911524Y-124168762D02*
X171843670Y-124304470D01*
X171843670Y-124304470D02*
X171775816Y-124575887D01*
X171775816Y-124575887D02*
X171775816Y-124779450D01*
X171775816Y-124779450D02*
X171843670Y-125050867D01*
X171843670Y-125050867D02*
X171911524Y-125186576D01*
X171911524Y-125186576D02*
X172047233Y-125322285D01*
X172047233Y-125322285D02*
X172250796Y-125390139D01*
X172250796Y-125390139D02*
X172386504Y-125390139D01*
X172386504Y-125390139D02*
X172590067Y-125322285D01*
X172590067Y-125322285D02*
X172657921Y-125254430D01*
X172657921Y-125254430D02*
X172657921Y-124779450D01*
X172657921Y-124779450D02*
X172386504Y-124779450D01*
X174354279Y-125390139D02*
X174354279Y-123965199D01*
X175032822Y-125390139D02*
X175032822Y-123965199D01*
X175032822Y-123965199D02*
X175847073Y-125390139D01*
X175847073Y-125390139D02*
X175847073Y-123965199D01*
X153868205Y-87071939D02*
X153868205Y-85646999D01*
X153868205Y-85646999D02*
X154207476Y-85646999D01*
X154207476Y-85646999D02*
X154411039Y-85714853D01*
X154411039Y-85714853D02*
X154546748Y-85850562D01*
X154546748Y-85850562D02*
X154614602Y-85986270D01*
X154614602Y-85986270D02*
X154682456Y-86257687D01*
X154682456Y-86257687D02*
X154682456Y-86461250D01*
X154682456Y-86461250D02*
X154614602Y-86732667D01*
X154614602Y-86732667D02*
X154546748Y-86868376D01*
X154546748Y-86868376D02*
X154411039Y-87004085D01*
X154411039Y-87004085D02*
X154207476Y-87071939D01*
X154207476Y-87071939D02*
X153868205Y-87071939D01*
X155293145Y-87071939D02*
X155293145Y-85646999D01*
X156718085Y-85714853D02*
X156582377Y-85646999D01*
X156582377Y-85646999D02*
X156378814Y-85646999D01*
X156378814Y-85646999D02*
X156175251Y-85714853D01*
X156175251Y-85714853D02*
X156039542Y-85850562D01*
X156039542Y-85850562D02*
X155971688Y-85986270D01*
X155971688Y-85986270D02*
X155903834Y-86257687D01*
X155903834Y-86257687D02*
X155903834Y-86461250D01*
X155903834Y-86461250D02*
X155971688Y-86732667D01*
X155971688Y-86732667D02*
X156039542Y-86868376D01*
X156039542Y-86868376D02*
X156175251Y-87004085D01*
X156175251Y-87004085D02*
X156378814Y-87071939D01*
X156378814Y-87071939D02*
X156514522Y-87071939D01*
X156514522Y-87071939D02*
X156718085Y-87004085D01*
X156718085Y-87004085D02*
X156785939Y-86936230D01*
X156785939Y-86936230D02*
X156785939Y-86461250D01*
X156785939Y-86461250D02*
X156514522Y-86461250D01*
X157396628Y-87071939D02*
X157396628Y-85646999D01*
X157871608Y-85646999D02*
X158685860Y-85646999D01*
X158278734Y-87071939D02*
X158278734Y-85646999D01*
X159092986Y-86664813D02*
X159771529Y-86664813D01*
X158957277Y-87071939D02*
X159432257Y-85646999D01*
X159432257Y-85646999D02*
X159907237Y-87071939D01*
X161060760Y-87071939D02*
X160382217Y-87071939D01*
X160382217Y-87071939D02*
X160382217Y-85646999D01*
D15*
X155540005Y-92552773D02*
X156710824Y-92552773D01*
X155305841Y-93255264D02*
X156125415Y-90796544D01*
X156125415Y-90796544D02*
X156944988Y-93255264D01*
X157764561Y-93255264D02*
X157764561Y-91616118D01*
X157764561Y-92084445D02*
X157881643Y-91850282D01*
X157881643Y-91850282D02*
X157998725Y-91733200D01*
X157998725Y-91733200D02*
X158232889Y-91616118D01*
X158232889Y-91616118D02*
X158467052Y-91616118D01*
X160340363Y-93255264D02*
X160340363Y-90796544D01*
X160340363Y-93138183D02*
X160106199Y-93255264D01*
X160106199Y-93255264D02*
X159637872Y-93255264D01*
X159637872Y-93255264D02*
X159403708Y-93138183D01*
X159403708Y-93138183D02*
X159286626Y-93021101D01*
X159286626Y-93021101D02*
X159169544Y-92786937D01*
X159169544Y-92786937D02*
X159169544Y-92084445D01*
X159169544Y-92084445D02*
X159286626Y-91850282D01*
X159286626Y-91850282D02*
X159403708Y-91733200D01*
X159403708Y-91733200D02*
X159637872Y-91616118D01*
X159637872Y-91616118D02*
X160106199Y-91616118D01*
X160106199Y-91616118D02*
X160340363Y-91733200D01*
X162564919Y-91616118D02*
X162564919Y-93255264D01*
X161511182Y-91616118D02*
X161511182Y-92904019D01*
X161511182Y-92904019D02*
X161628264Y-93138183D01*
X161628264Y-93138183D02*
X161862428Y-93255264D01*
X161862428Y-93255264D02*
X162213673Y-93255264D01*
X162213673Y-93255264D02*
X162447837Y-93138183D01*
X162447837Y-93138183D02*
X162564919Y-93021101D01*
X163735738Y-93255264D02*
X163735738Y-91616118D01*
X163735738Y-90796544D02*
X163618656Y-90913626D01*
X163618656Y-90913626D02*
X163735738Y-91030708D01*
X163735738Y-91030708D02*
X163852820Y-90913626D01*
X163852820Y-90913626D02*
X163735738Y-90796544D01*
X163735738Y-90796544D02*
X163735738Y-91030708D01*
X164906557Y-91616118D02*
X164906557Y-93255264D01*
X164906557Y-91850282D02*
X165023639Y-91733200D01*
X165023639Y-91733200D02*
X165257803Y-91616118D01*
X165257803Y-91616118D02*
X165609048Y-91616118D01*
X165609048Y-91616118D02*
X165843212Y-91733200D01*
X165843212Y-91733200D02*
X165960294Y-91967363D01*
X165960294Y-91967363D02*
X165960294Y-93255264D01*
X167482359Y-93255264D02*
X167248195Y-93138183D01*
X167248195Y-93138183D02*
X167131113Y-93021101D01*
X167131113Y-93021101D02*
X167014031Y-92786937D01*
X167014031Y-92786937D02*
X167014031Y-92084445D01*
X167014031Y-92084445D02*
X167131113Y-91850282D01*
X167131113Y-91850282D02*
X167248195Y-91733200D01*
X167248195Y-91733200D02*
X167482359Y-91616118D01*
X167482359Y-91616118D02*
X167833604Y-91616118D01*
X167833604Y-91616118D02*
X168067768Y-91733200D01*
X168067768Y-91733200D02*
X168184850Y-91850282D01*
X168184850Y-91850282D02*
X168301932Y-92084445D01*
X168301932Y-92084445D02*
X168301932Y-92786937D01*
X168301932Y-92786937D02*
X168184850Y-93021101D01*
X168184850Y-93021101D02*
X168067768Y-93138183D01*
X168067768Y-93138183D02*
X167833604Y-93255264D01*
X167833604Y-93255264D02*
X167482359Y-93255264D01*
D16*
X138695126Y-86977630D02*
X138695126Y-86368030D01*
X139060886Y-87099550D02*
X137780726Y-86672830D01*
X137780726Y-86672830D02*
X139060886Y-86246110D01*
X139060886Y-85087870D02*
X138451286Y-85514590D01*
X139060886Y-85819390D02*
X137780726Y-85819390D01*
X137780726Y-85819390D02*
X137780726Y-85331710D01*
X137780726Y-85331710D02*
X137841686Y-85209790D01*
X137841686Y-85209790D02*
X137902646Y-85148830D01*
X137902646Y-85148830D02*
X138024566Y-85087870D01*
X138024566Y-85087870D02*
X138207446Y-85087870D01*
X138207446Y-85087870D02*
X138329366Y-85148830D01*
X138329366Y-85148830D02*
X138390326Y-85209790D01*
X138390326Y-85209790D02*
X138451286Y-85331710D01*
X138451286Y-85331710D02*
X138451286Y-85819390D01*
X138390326Y-84539230D02*
X138390326Y-84112510D01*
X139060886Y-83929630D02*
X139060886Y-84539230D01*
X139060886Y-84539230D02*
X137780726Y-84539230D01*
X137780726Y-84539230D02*
X137780726Y-83929630D01*
X138390326Y-82954270D02*
X138390326Y-83380990D01*
X139060886Y-83380990D02*
X137780726Y-83380990D01*
X137780726Y-83380990D02*
X137780726Y-82771390D01*
D17*
X176405304Y-101587183D02*
X175788447Y-101587183D01*
X176096875Y-101587183D02*
X176096875Y-100507683D01*
X176096875Y-100507683D02*
X175994066Y-100661898D01*
X175994066Y-100661898D02*
X175891256Y-100764707D01*
X175891256Y-100764707D02*
X175788447Y-100816112D01*
D16*
X140497886Y-85539990D02*
X140436926Y-85661910D01*
X140436926Y-85661910D02*
X140436926Y-85844790D01*
X140436926Y-85844790D02*
X140497886Y-86027670D01*
X140497886Y-86027670D02*
X140619806Y-86149590D01*
X140619806Y-86149590D02*
X140741726Y-86210550D01*
X140741726Y-86210550D02*
X140985566Y-86271510D01*
X140985566Y-86271510D02*
X141168446Y-86271510D01*
X141168446Y-86271510D02*
X141412286Y-86210550D01*
X141412286Y-86210550D02*
X141534206Y-86149590D01*
X141534206Y-86149590D02*
X141656126Y-86027670D01*
X141656126Y-86027670D02*
X141717086Y-85844790D01*
X141717086Y-85844790D02*
X141717086Y-85722870D01*
X141717086Y-85722870D02*
X141656126Y-85539990D01*
X141656126Y-85539990D02*
X141595166Y-85479030D01*
X141595166Y-85479030D02*
X141168446Y-85479030D01*
X141168446Y-85479030D02*
X141168446Y-85722870D01*
X141717086Y-84930390D02*
X140436926Y-84930390D01*
X140436926Y-84930390D02*
X141717086Y-84198870D01*
X141717086Y-84198870D02*
X140436926Y-84198870D01*
X141717086Y-83589270D02*
X140436926Y-83589270D01*
X140436926Y-83589270D02*
X140436926Y-83284470D01*
X140436926Y-83284470D02*
X140497886Y-83101590D01*
X140497886Y-83101590D02*
X140619806Y-82979670D01*
X140619806Y-82979670D02*
X140741726Y-82918710D01*
X140741726Y-82918710D02*
X140985566Y-82857750D01*
X140985566Y-82857750D02*
X141168446Y-82857750D01*
X141168446Y-82857750D02*
X141412286Y-82918710D01*
X141412286Y-82918710D02*
X141534206Y-82979670D01*
X141534206Y-82979670D02*
X141656126Y-83101590D01*
X141656126Y-83101590D02*
X141717086Y-83284470D01*
X141717086Y-83284470D02*
X141717086Y-83589270D01*
D18*
X108074853Y-80496636D02*
X108074853Y-79490796D01*
X108074853Y-79490796D02*
X108410133Y-80209253D01*
X108410133Y-80209253D02*
X108745413Y-79490796D01*
X108745413Y-79490796D02*
X108745413Y-80496636D01*
X109224384Y-80400841D02*
X109272281Y-80448739D01*
X109272281Y-80448739D02*
X109224384Y-80496636D01*
X109224384Y-80496636D02*
X109176487Y-80448739D01*
X109176487Y-80448739D02*
X109224384Y-80400841D01*
X109224384Y-80400841D02*
X109224384Y-80496636D01*
X110038635Y-79969767D02*
X110182327Y-80017664D01*
X110182327Y-80017664D02*
X110230224Y-80065561D01*
X110230224Y-80065561D02*
X110278121Y-80161356D01*
X110278121Y-80161356D02*
X110278121Y-80305047D01*
X110278121Y-80305047D02*
X110230224Y-80400841D01*
X110230224Y-80400841D02*
X110182327Y-80448739D01*
X110182327Y-80448739D02*
X110086532Y-80496636D01*
X110086532Y-80496636D02*
X109703355Y-80496636D01*
X109703355Y-80496636D02*
X109703355Y-79490796D01*
X109703355Y-79490796D02*
X110038635Y-79490796D01*
X110038635Y-79490796D02*
X110134430Y-79538693D01*
X110134430Y-79538693D02*
X110182327Y-79586590D01*
X110182327Y-79586590D02*
X110230224Y-79682384D01*
X110230224Y-79682384D02*
X110230224Y-79778179D01*
X110230224Y-79778179D02*
X110182327Y-79873973D01*
X110182327Y-79873973D02*
X110134430Y-79921870D01*
X110134430Y-79921870D02*
X110038635Y-79969767D01*
X110038635Y-79969767D02*
X109703355Y-79969767D01*
X111140270Y-80496636D02*
X111140270Y-79969767D01*
X111140270Y-79969767D02*
X111092372Y-79873973D01*
X111092372Y-79873973D02*
X110996578Y-79826076D01*
X110996578Y-79826076D02*
X110804990Y-79826076D01*
X110804990Y-79826076D02*
X110709195Y-79873973D01*
X111140270Y-80448739D02*
X111044475Y-80496636D01*
X111044475Y-80496636D02*
X110804990Y-80496636D01*
X110804990Y-80496636D02*
X110709195Y-80448739D01*
X110709195Y-80448739D02*
X110661298Y-80352944D01*
X110661298Y-80352944D02*
X110661298Y-80257150D01*
X110661298Y-80257150D02*
X110709195Y-80161356D01*
X110709195Y-80161356D02*
X110804990Y-80113459D01*
X110804990Y-80113459D02*
X111044475Y-80113459D01*
X111044475Y-80113459D02*
X111140270Y-80065561D01*
X111619241Y-79826076D02*
X111619241Y-80496636D01*
X111619241Y-79921870D02*
X111667138Y-79873973D01*
X111667138Y-79873973D02*
X111762933Y-79826076D01*
X111762933Y-79826076D02*
X111906624Y-79826076D01*
X111906624Y-79826076D02*
X112002418Y-79873973D01*
X112002418Y-79873973D02*
X112050316Y-79969767D01*
X112050316Y-79969767D02*
X112050316Y-80496636D01*
X112433493Y-79826076D02*
X112960362Y-79826076D01*
X112960362Y-79826076D02*
X112433493Y-80496636D01*
X112433493Y-80496636D02*
X112960362Y-80496636D01*
X113343538Y-80496636D02*
X113343538Y-79826076D01*
X113343538Y-79490796D02*
X113295641Y-79538693D01*
X113295641Y-79538693D02*
X113343538Y-79586590D01*
X113343538Y-79586590D02*
X113391435Y-79538693D01*
X113391435Y-79538693D02*
X113343538Y-79490796D01*
X113343538Y-79490796D02*
X113343538Y-79586590D01*
X104166879Y-82401636D02*
X104166879Y-81395796D01*
X104166879Y-81395796D02*
X104406365Y-81395796D01*
X104406365Y-81395796D02*
X104550056Y-81443693D01*
X104550056Y-81443693D02*
X104645851Y-81539487D01*
X104645851Y-81539487D02*
X104693748Y-81635281D01*
X104693748Y-81635281D02*
X104741645Y-81826870D01*
X104741645Y-81826870D02*
X104741645Y-81970561D01*
X104741645Y-81970561D02*
X104693748Y-82162150D01*
X104693748Y-82162150D02*
X104645851Y-82257944D01*
X104645851Y-82257944D02*
X104550056Y-82353739D01*
X104550056Y-82353739D02*
X104406365Y-82401636D01*
X104406365Y-82401636D02*
X104166879Y-82401636D01*
X105172719Y-82305841D02*
X105220616Y-82353739D01*
X105220616Y-82353739D02*
X105172719Y-82401636D01*
X105172719Y-82401636D02*
X105124822Y-82353739D01*
X105124822Y-82353739D02*
X105172719Y-82305841D01*
X105172719Y-82305841D02*
X105172719Y-82401636D01*
X106226456Y-82305841D02*
X106178559Y-82353739D01*
X106178559Y-82353739D02*
X106034867Y-82401636D01*
X106034867Y-82401636D02*
X105939073Y-82401636D01*
X105939073Y-82401636D02*
X105795382Y-82353739D01*
X105795382Y-82353739D02*
X105699587Y-82257944D01*
X105699587Y-82257944D02*
X105651690Y-82162150D01*
X105651690Y-82162150D02*
X105603793Y-81970561D01*
X105603793Y-81970561D02*
X105603793Y-81826870D01*
X105603793Y-81826870D02*
X105651690Y-81635281D01*
X105651690Y-81635281D02*
X105699587Y-81539487D01*
X105699587Y-81539487D02*
X105795382Y-81443693D01*
X105795382Y-81443693D02*
X105939073Y-81395796D01*
X105939073Y-81395796D02*
X106034867Y-81395796D01*
X106034867Y-81395796D02*
X106178559Y-81443693D01*
X106178559Y-81443693D02*
X106226456Y-81491590D01*
X107088605Y-81731076D02*
X107088605Y-82401636D01*
X106657530Y-81731076D02*
X106657530Y-82257944D01*
X106657530Y-82257944D02*
X106705427Y-82353739D01*
X106705427Y-82353739D02*
X106801222Y-82401636D01*
X106801222Y-82401636D02*
X106944913Y-82401636D01*
X106944913Y-82401636D02*
X107040707Y-82353739D01*
X107040707Y-82353739D02*
X107088605Y-82305841D01*
X107998651Y-82401636D02*
X107998651Y-81874767D01*
X107998651Y-81874767D02*
X107950753Y-81778973D01*
X107950753Y-81778973D02*
X107854959Y-81731076D01*
X107854959Y-81731076D02*
X107663371Y-81731076D01*
X107663371Y-81731076D02*
X107567576Y-81778973D01*
X107998651Y-82353739D02*
X107902856Y-82401636D01*
X107902856Y-82401636D02*
X107663371Y-82401636D01*
X107663371Y-82401636D02*
X107567576Y-82353739D01*
X107567576Y-82353739D02*
X107519679Y-82257944D01*
X107519679Y-82257944D02*
X107519679Y-82162150D01*
X107519679Y-82162150D02*
X107567576Y-82066356D01*
X107567576Y-82066356D02*
X107663371Y-82018459D01*
X107663371Y-82018459D02*
X107902856Y-82018459D01*
X107902856Y-82018459D02*
X107998651Y-81970561D01*
X108477622Y-82401636D02*
X108477622Y-81731076D01*
X108477622Y-81922664D02*
X108525519Y-81826870D01*
X108525519Y-81826870D02*
X108573417Y-81778973D01*
X108573417Y-81778973D02*
X108669211Y-81731076D01*
X108669211Y-81731076D02*
X108765005Y-81731076D01*
X108956594Y-81731076D02*
X109339771Y-81731076D01*
X109100285Y-81395796D02*
X109100285Y-82257944D01*
X109100285Y-82257944D02*
X109148182Y-82353739D01*
X109148182Y-82353739D02*
X109243977Y-82401636D01*
X109243977Y-82401636D02*
X109339771Y-82401636D01*
X109675051Y-82401636D02*
X109675051Y-81731076D01*
X109675051Y-81395796D02*
X109627154Y-81443693D01*
X109627154Y-81443693D02*
X109675051Y-81491590D01*
X109675051Y-81491590D02*
X109722948Y-81443693D01*
X109722948Y-81443693D02*
X109675051Y-81395796D01*
X109675051Y-81395796D02*
X109675051Y-81491590D01*
X110537199Y-82353739D02*
X110441405Y-82401636D01*
X110441405Y-82401636D02*
X110249817Y-82401636D01*
X110249817Y-82401636D02*
X110154022Y-82353739D01*
X110154022Y-82353739D02*
X110106125Y-82257944D01*
X110106125Y-82257944D02*
X110106125Y-81874767D01*
X110106125Y-81874767D02*
X110154022Y-81778973D01*
X110154022Y-81778973D02*
X110249817Y-81731076D01*
X110249817Y-81731076D02*
X110441405Y-81731076D01*
X110441405Y-81731076D02*
X110537199Y-81778973D01*
X110537199Y-81778973D02*
X110585097Y-81874767D01*
X110585097Y-81874767D02*
X110585097Y-81970561D01*
X110585097Y-81970561D02*
X110106125Y-82066356D01*
X111159863Y-82401636D02*
X111064068Y-82353739D01*
X111064068Y-82353739D02*
X111016171Y-82257944D01*
X111016171Y-82257944D02*
X111016171Y-81395796D01*
X111686732Y-82401636D02*
X111590937Y-82353739D01*
X111590937Y-82353739D02*
X111543040Y-82257944D01*
X111543040Y-82257944D02*
X111543040Y-81395796D01*
X112453086Y-82353739D02*
X112357292Y-82401636D01*
X112357292Y-82401636D02*
X112165704Y-82401636D01*
X112165704Y-82401636D02*
X112069909Y-82353739D01*
X112069909Y-82353739D02*
X112022012Y-82257944D01*
X112022012Y-82257944D02*
X112022012Y-81874767D01*
X112022012Y-81874767D02*
X112069909Y-81778973D01*
X112069909Y-81778973D02*
X112165704Y-81731076D01*
X112165704Y-81731076D02*
X112357292Y-81731076D01*
X112357292Y-81731076D02*
X112453086Y-81778973D01*
X112453086Y-81778973D02*
X112500984Y-81874767D01*
X112500984Y-81874767D02*
X112500984Y-81970561D01*
X112500984Y-81970561D02*
X112022012Y-82066356D01*
X112884161Y-82353739D02*
X112979955Y-82401636D01*
X112979955Y-82401636D02*
X113171544Y-82401636D01*
X113171544Y-82401636D02*
X113267338Y-82353739D01*
X113267338Y-82353739D02*
X113315235Y-82257944D01*
X113315235Y-82257944D02*
X113315235Y-82210047D01*
X113315235Y-82210047D02*
X113267338Y-82114253D01*
X113267338Y-82114253D02*
X113171544Y-82066356D01*
X113171544Y-82066356D02*
X113027853Y-82066356D01*
X113027853Y-82066356D02*
X112932058Y-82018459D01*
X112932058Y-82018459D02*
X112884161Y-81922664D01*
X112884161Y-81922664D02*
X112884161Y-81874767D01*
X112884161Y-81874767D02*
X112932058Y-81778973D01*
X112932058Y-81778973D02*
X113027853Y-81731076D01*
X113027853Y-81731076D02*
X113171544Y-81731076D01*
X113171544Y-81731076D02*
X113267338Y-81778973D01*
X107902858Y-87227636D02*
X107902858Y-86221796D01*
X107902858Y-86221796D02*
X108142344Y-86221796D01*
X108142344Y-86221796D02*
X108286035Y-86269693D01*
X108286035Y-86269693D02*
X108381830Y-86365487D01*
X108381830Y-86365487D02*
X108429727Y-86461281D01*
X108429727Y-86461281D02*
X108477624Y-86652870D01*
X108477624Y-86652870D02*
X108477624Y-86796561D01*
X108477624Y-86796561D02*
X108429727Y-86988150D01*
X108429727Y-86988150D02*
X108381830Y-87083944D01*
X108381830Y-87083944D02*
X108286035Y-87179739D01*
X108286035Y-87179739D02*
X108142344Y-87227636D01*
X108142344Y-87227636D02*
X107902858Y-87227636D01*
X108908698Y-87131841D02*
X108956595Y-87179739D01*
X108956595Y-87179739D02*
X108908698Y-87227636D01*
X108908698Y-87227636D02*
X108860801Y-87179739D01*
X108860801Y-87179739D02*
X108908698Y-87131841D01*
X108908698Y-87131841D02*
X108908698Y-87227636D01*
X109387669Y-87227636D02*
X109387669Y-86221796D01*
X109387669Y-86221796D02*
X109722949Y-86940253D01*
X109722949Y-86940253D02*
X110058229Y-86221796D01*
X110058229Y-86221796D02*
X110058229Y-87227636D01*
X110920377Y-87179739D02*
X110824583Y-87227636D01*
X110824583Y-87227636D02*
X110632995Y-87227636D01*
X110632995Y-87227636D02*
X110537200Y-87179739D01*
X110537200Y-87179739D02*
X110489303Y-87083944D01*
X110489303Y-87083944D02*
X110489303Y-86700767D01*
X110489303Y-86700767D02*
X110537200Y-86604973D01*
X110537200Y-86604973D02*
X110632995Y-86557076D01*
X110632995Y-86557076D02*
X110824583Y-86557076D01*
X110824583Y-86557076D02*
X110920377Y-86604973D01*
X110920377Y-86604973D02*
X110968275Y-86700767D01*
X110968275Y-86700767D02*
X110968275Y-86796561D01*
X110968275Y-86796561D02*
X110489303Y-86892356D01*
X111543041Y-87227636D02*
X111447246Y-87179739D01*
X111447246Y-87179739D02*
X111399349Y-87083944D01*
X111399349Y-87083944D02*
X111399349Y-86221796D01*
X112069910Y-87227636D02*
X111974115Y-87179739D01*
X111974115Y-87179739D02*
X111926218Y-87083944D01*
X111926218Y-87083944D02*
X111926218Y-86221796D01*
X112453087Y-87227636D02*
X112453087Y-86557076D01*
X112453087Y-86221796D02*
X112405190Y-86269693D01*
X112405190Y-86269693D02*
X112453087Y-86317590D01*
X112453087Y-86317590D02*
X112500984Y-86269693D01*
X112500984Y-86269693D02*
X112453087Y-86221796D01*
X112453087Y-86221796D02*
X112453087Y-86317590D01*
X112884161Y-87179739D02*
X112979955Y-87227636D01*
X112979955Y-87227636D02*
X113171544Y-87227636D01*
X113171544Y-87227636D02*
X113267338Y-87179739D01*
X113267338Y-87179739D02*
X113315235Y-87083944D01*
X113315235Y-87083944D02*
X113315235Y-87036047D01*
X113315235Y-87036047D02*
X113267338Y-86940253D01*
X113267338Y-86940253D02*
X113171544Y-86892356D01*
X113171544Y-86892356D02*
X113027853Y-86892356D01*
X113027853Y-86892356D02*
X112932058Y-86844459D01*
X112932058Y-86844459D02*
X112884161Y-86748664D01*
X112884161Y-86748664D02*
X112884161Y-86700767D01*
X112884161Y-86700767D02*
X112932058Y-86604973D01*
X112932058Y-86604973D02*
X113027853Y-86557076D01*
X113027853Y-86557076D02*
X113171544Y-86557076D01*
X113171544Y-86557076D02*
X113267338Y-86604973D01*
D16*
X174484476Y-88011902D02*
X174484476Y-87280382D01*
X175764636Y-87646142D02*
X174484476Y-87646142D01*
X174484476Y-86975582D02*
X175764636Y-86122142D01*
X174484476Y-86122142D02*
X175764636Y-86975582D01*
X178309036Y-87109702D02*
X177699436Y-87536422D01*
X178309036Y-87841222D02*
X177028876Y-87841222D01*
X177028876Y-87841222D02*
X177028876Y-87353542D01*
X177028876Y-87353542D02*
X177089836Y-87231622D01*
X177089836Y-87231622D02*
X177150796Y-87170662D01*
X177150796Y-87170662D02*
X177272716Y-87109702D01*
X177272716Y-87109702D02*
X177455596Y-87109702D01*
X177455596Y-87109702D02*
X177577516Y-87170662D01*
X177577516Y-87170662D02*
X177638476Y-87231622D01*
X177638476Y-87231622D02*
X177699436Y-87353542D01*
X177699436Y-87353542D02*
X177699436Y-87841222D01*
X177028876Y-86682982D02*
X178309036Y-85829542D01*
X177028876Y-85829542D02*
X178309036Y-86682982D01*
D13*
X144060158Y-95171099D02*
X144454946Y-95171099D01*
X144257552Y-95861979D02*
X144257552Y-95171099D01*
X144619442Y-95171099D02*
X145080028Y-95861979D01*
X145080028Y-95171099D02*
X144619442Y-95861979D01*
X144441593Y-97927710D02*
X144211300Y-97598719D01*
X144046805Y-97927710D02*
X144046805Y-97236830D01*
X144046805Y-97236830D02*
X144309997Y-97236830D01*
X144309997Y-97236830D02*
X144375795Y-97269729D01*
X144375795Y-97269729D02*
X144408694Y-97302628D01*
X144408694Y-97302628D02*
X144441593Y-97368426D01*
X144441593Y-97368426D02*
X144441593Y-97467123D01*
X144441593Y-97467123D02*
X144408694Y-97532921D01*
X144408694Y-97532921D02*
X144375795Y-97565820D01*
X144375795Y-97565820D02*
X144309997Y-97598719D01*
X144309997Y-97598719D02*
X144046805Y-97598719D01*
X144671887Y-97236830D02*
X145132473Y-97927710D01*
X145132473Y-97236830D02*
X144671887Y-97927710D01*
D18*
X107232298Y-84618693D02*
X107136504Y-84570796D01*
X107136504Y-84570796D02*
X106992812Y-84570796D01*
X106992812Y-84570796D02*
X106849121Y-84618693D01*
X106849121Y-84618693D02*
X106753326Y-84714487D01*
X106753326Y-84714487D02*
X106705429Y-84810281D01*
X106705429Y-84810281D02*
X106657532Y-85001870D01*
X106657532Y-85001870D02*
X106657532Y-85145561D01*
X106657532Y-85145561D02*
X106705429Y-85337150D01*
X106705429Y-85337150D02*
X106753326Y-85432944D01*
X106753326Y-85432944D02*
X106849121Y-85528739D01*
X106849121Y-85528739D02*
X106992812Y-85576636D01*
X106992812Y-85576636D02*
X107088606Y-85576636D01*
X107088606Y-85576636D02*
X107232298Y-85528739D01*
X107232298Y-85528739D02*
X107280195Y-85480841D01*
X107280195Y-85480841D02*
X107280195Y-85145561D01*
X107280195Y-85145561D02*
X107088606Y-85145561D01*
X107711269Y-85480841D02*
X107759166Y-85528739D01*
X107759166Y-85528739D02*
X107711269Y-85576636D01*
X107711269Y-85576636D02*
X107663372Y-85528739D01*
X107663372Y-85528739D02*
X107711269Y-85480841D01*
X107711269Y-85480841D02*
X107711269Y-85576636D01*
X108190240Y-85576636D02*
X108190240Y-84570796D01*
X108190240Y-84570796D02*
X108525520Y-85289253D01*
X108525520Y-85289253D02*
X108860800Y-84570796D01*
X108860800Y-84570796D02*
X108860800Y-85576636D01*
X109770846Y-85576636D02*
X109770846Y-85049767D01*
X109770846Y-85049767D02*
X109722948Y-84953973D01*
X109722948Y-84953973D02*
X109627154Y-84906076D01*
X109627154Y-84906076D02*
X109435566Y-84906076D01*
X109435566Y-84906076D02*
X109339771Y-84953973D01*
X109770846Y-85528739D02*
X109675051Y-85576636D01*
X109675051Y-85576636D02*
X109435566Y-85576636D01*
X109435566Y-85576636D02*
X109339771Y-85528739D01*
X109339771Y-85528739D02*
X109291874Y-85432944D01*
X109291874Y-85432944D02*
X109291874Y-85337150D01*
X109291874Y-85337150D02*
X109339771Y-85241356D01*
X109339771Y-85241356D02*
X109435566Y-85193459D01*
X109435566Y-85193459D02*
X109675051Y-85193459D01*
X109675051Y-85193459D02*
X109770846Y-85145561D01*
X110249817Y-85576636D02*
X110249817Y-84906076D01*
X110249817Y-85097664D02*
X110297714Y-85001870D01*
X110297714Y-85001870D02*
X110345612Y-84953973D01*
X110345612Y-84953973D02*
X110441406Y-84906076D01*
X110441406Y-84906076D02*
X110537200Y-84906076D01*
X110728789Y-84906076D02*
X111111966Y-84906076D01*
X110872480Y-84570796D02*
X110872480Y-85432944D01*
X110872480Y-85432944D02*
X110920377Y-85528739D01*
X110920377Y-85528739D02*
X111016172Y-85576636D01*
X111016172Y-85576636D02*
X111111966Y-85576636D01*
X111447246Y-85576636D02*
X111447246Y-84906076D01*
X111447246Y-84570796D02*
X111399349Y-84618693D01*
X111399349Y-84618693D02*
X111447246Y-84666590D01*
X111447246Y-84666590D02*
X111495143Y-84618693D01*
X111495143Y-84618693D02*
X111447246Y-84570796D01*
X111447246Y-84570796D02*
X111447246Y-84666590D01*
X111926217Y-84906076D02*
X111926217Y-85576636D01*
X111926217Y-85001870D02*
X111974114Y-84953973D01*
X111974114Y-84953973D02*
X112069909Y-84906076D01*
X112069909Y-84906076D02*
X112213600Y-84906076D01*
X112213600Y-84906076D02*
X112309394Y-84953973D01*
X112309394Y-84953973D02*
X112357292Y-85049767D01*
X112357292Y-85049767D02*
X112357292Y-85576636D01*
X112979955Y-85576636D02*
X112884160Y-85528739D01*
X112884160Y-85528739D02*
X112836263Y-85480841D01*
X112836263Y-85480841D02*
X112788366Y-85385047D01*
X112788366Y-85385047D02*
X112788366Y-85097664D01*
X112788366Y-85097664D02*
X112836263Y-85001870D01*
X112836263Y-85001870D02*
X112884160Y-84953973D01*
X112884160Y-84953973D02*
X112979955Y-84906076D01*
X112979955Y-84906076D02*
X113123646Y-84906076D01*
X113123646Y-84906076D02*
X113219440Y-84953973D01*
X113219440Y-84953973D02*
X113267338Y-85001870D01*
X113267338Y-85001870D02*
X113315235Y-85097664D01*
X113315235Y-85097664D02*
X113315235Y-85385047D01*
X113315235Y-85385047D02*
X113267338Y-85480841D01*
X113267338Y-85480841D02*
X113219440Y-85528739D01*
X113219440Y-85528739D02*
X113123646Y-85576636D01*
X113123646Y-85576636D02*
X112979955Y-85576636D01*
D19*
X145734393Y-75340776D02*
X145734393Y-73829476D01*
X145734393Y-73829476D02*
X146238160Y-74908976D01*
X146238160Y-74908976D02*
X146741926Y-73829476D01*
X146741926Y-73829476D02*
X146741926Y-75340776D01*
X147389626Y-74908976D02*
X148109293Y-74908976D01*
X147245693Y-75340776D02*
X147749460Y-73829476D01*
X147749460Y-73829476D02*
X148253226Y-75340776D01*
X148756993Y-75340776D02*
X148756993Y-73829476D01*
X148756993Y-73829476D02*
X149116826Y-73829476D01*
X149116826Y-73829476D02*
X149332726Y-73901443D01*
X149332726Y-73901443D02*
X149476660Y-74045376D01*
X149476660Y-74045376D02*
X149548626Y-74189310D01*
X149548626Y-74189310D02*
X149620593Y-74477176D01*
X149620593Y-74477176D02*
X149620593Y-74693076D01*
X149620593Y-74693076D02*
X149548626Y-74980943D01*
X149548626Y-74980943D02*
X149476660Y-75124876D01*
X149476660Y-75124876D02*
X149332726Y-75268810D01*
X149332726Y-75268810D02*
X149116826Y-75340776D01*
X149116826Y-75340776D02*
X148756993Y-75340776D01*
X150268293Y-74549143D02*
X150772060Y-74549143D01*
X150987960Y-75340776D02*
X150268293Y-75340776D01*
X150268293Y-75340776D02*
X150268293Y-73829476D01*
X150268293Y-73829476D02*
X150987960Y-73829476D01*
X152787127Y-75340776D02*
X152787127Y-73829476D01*
X153506794Y-75340776D02*
X153506794Y-73829476D01*
X153506794Y-73829476D02*
X154370394Y-75340776D01*
X154370394Y-75340776D02*
X154370394Y-73829476D01*
X157799393Y-75213776D02*
X157799393Y-73702476D01*
X158303160Y-73702476D02*
X159166760Y-73702476D01*
X158734960Y-75213776D02*
X158734960Y-73702476D01*
X159598560Y-74781976D02*
X160318227Y-74781976D01*
X159454627Y-75213776D02*
X159958394Y-73702476D01*
X159958394Y-73702476D02*
X160462160Y-75213776D01*
X161685594Y-75213776D02*
X160965927Y-75213776D01*
X160965927Y-75213776D02*
X160965927Y-73702476D01*
X162477227Y-74494110D02*
X162477227Y-75213776D01*
X161973460Y-73702476D02*
X162477227Y-74494110D01*
X162477227Y-74494110D02*
X162980993Y-73702476D01*
D18*
X109196081Y-82919796D02*
X109770847Y-82919796D01*
X109483464Y-83925636D02*
X109483464Y-82919796D01*
X110106126Y-83829841D02*
X110154023Y-83877739D01*
X110154023Y-83877739D02*
X110106126Y-83925636D01*
X110106126Y-83925636D02*
X110058229Y-83877739D01*
X110058229Y-83877739D02*
X110106126Y-83829841D01*
X110106126Y-83829841D02*
X110106126Y-83925636D01*
X110585097Y-83925636D02*
X110585097Y-82919796D01*
X111495143Y-83255076D02*
X111495143Y-84069327D01*
X111495143Y-84069327D02*
X111447245Y-84165121D01*
X111447245Y-84165121D02*
X111399348Y-84213019D01*
X111399348Y-84213019D02*
X111303554Y-84260916D01*
X111303554Y-84260916D02*
X111159863Y-84260916D01*
X111159863Y-84260916D02*
X111064068Y-84213019D01*
X111495143Y-83877739D02*
X111399348Y-83925636D01*
X111399348Y-83925636D02*
X111207760Y-83925636D01*
X111207760Y-83925636D02*
X111111965Y-83877739D01*
X111111965Y-83877739D02*
X111064068Y-83829841D01*
X111064068Y-83829841D02*
X111016171Y-83734047D01*
X111016171Y-83734047D02*
X111016171Y-83446664D01*
X111016171Y-83446664D02*
X111064068Y-83350870D01*
X111064068Y-83350870D02*
X111111965Y-83302973D01*
X111111965Y-83302973D02*
X111207760Y-83255076D01*
X111207760Y-83255076D02*
X111399348Y-83255076D01*
X111399348Y-83255076D02*
X111495143Y-83302973D01*
X112117806Y-83925636D02*
X112022011Y-83877739D01*
X112022011Y-83877739D02*
X111974114Y-83829841D01*
X111974114Y-83829841D02*
X111926217Y-83734047D01*
X111926217Y-83734047D02*
X111926217Y-83446664D01*
X111926217Y-83446664D02*
X111974114Y-83350870D01*
X111974114Y-83350870D02*
X112022011Y-83302973D01*
X112022011Y-83302973D02*
X112117806Y-83255076D01*
X112117806Y-83255076D02*
X112261497Y-83255076D01*
X112261497Y-83255076D02*
X112357291Y-83302973D01*
X112357291Y-83302973D02*
X112405189Y-83350870D01*
X112405189Y-83350870D02*
X112453086Y-83446664D01*
X112453086Y-83446664D02*
X112453086Y-83734047D01*
X112453086Y-83734047D02*
X112405189Y-83829841D01*
X112405189Y-83829841D02*
X112357291Y-83877739D01*
X112357291Y-83877739D02*
X112261497Y-83925636D01*
X112261497Y-83925636D02*
X112117806Y-83925636D01*
X113267337Y-83877739D02*
X113171543Y-83925636D01*
X113171543Y-83925636D02*
X112979955Y-83925636D01*
X112979955Y-83925636D02*
X112884160Y-83877739D01*
X112884160Y-83877739D02*
X112836263Y-83781944D01*
X112836263Y-83781944D02*
X112836263Y-83398767D01*
X112836263Y-83398767D02*
X112884160Y-83302973D01*
X112884160Y-83302973D02*
X112979955Y-83255076D01*
X112979955Y-83255076D02*
X113171543Y-83255076D01*
X113171543Y-83255076D02*
X113267337Y-83302973D01*
X113267337Y-83302973D02*
X113315235Y-83398767D01*
X113315235Y-83398767D02*
X113315235Y-83494561D01*
X113315235Y-83494561D02*
X112836263Y-83590356D01*
D20*
X155806981Y-94329809D02*
X155806981Y-96514512D01*
X155806981Y-96514512D02*
X155935493Y-96771536D01*
X155935493Y-96771536D02*
X156064005Y-96900048D01*
X156064005Y-96900048D02*
X156321029Y-97028559D01*
X156321029Y-97028559D02*
X156835076Y-97028559D01*
X156835076Y-97028559D02*
X157092100Y-96900048D01*
X157092100Y-96900048D02*
X157220612Y-96771536D01*
X157220612Y-96771536D02*
X157349124Y-96514512D01*
X157349124Y-96514512D02*
X157349124Y-94329809D01*
X158634243Y-97028559D02*
X158634243Y-94329809D01*
X158634243Y-94329809D02*
X160176386Y-97028559D01*
X160176386Y-97028559D02*
X160176386Y-94329809D01*
X161975553Y-94329809D02*
X162489600Y-94329809D01*
X162489600Y-94329809D02*
X162746624Y-94458321D01*
X162746624Y-94458321D02*
X163003648Y-94715345D01*
X163003648Y-94715345D02*
X163132160Y-95229393D01*
X163132160Y-95229393D02*
X163132160Y-96128976D01*
X163132160Y-96128976D02*
X163003648Y-96643024D01*
X163003648Y-96643024D02*
X162746624Y-96900048D01*
X162746624Y-96900048D02*
X162489600Y-97028559D01*
X162489600Y-97028559D02*
X161975553Y-97028559D01*
X161975553Y-97028559D02*
X161718529Y-96900048D01*
X161718529Y-96900048D02*
X161461505Y-96643024D01*
X161461505Y-96643024D02*
X161332993Y-96128976D01*
X161332993Y-96128976D02*
X161332993Y-95229393D01*
X161332993Y-95229393D02*
X161461505Y-94715345D01*
X161461505Y-94715345D02*
X161718529Y-94458321D01*
X161718529Y-94458321D02*
X161975553Y-94329809D01*
D16*
X147321036Y-126098702D02*
X146711436Y-126525422D01*
X147321036Y-126830222D02*
X146040876Y-126830222D01*
X146040876Y-126830222D02*
X146040876Y-126342542D01*
X146040876Y-126342542D02*
X146101836Y-126220622D01*
X146101836Y-126220622D02*
X146162796Y-126159662D01*
X146162796Y-126159662D02*
X146284716Y-126098702D01*
X146284716Y-126098702D02*
X146467596Y-126098702D01*
X146467596Y-126098702D02*
X146589516Y-126159662D01*
X146589516Y-126159662D02*
X146650476Y-126220622D01*
X146650476Y-126220622D02*
X146711436Y-126342542D01*
X146711436Y-126342542D02*
X146711436Y-126830222D01*
X146650476Y-125550062D02*
X146650476Y-125123342D01*
X147321036Y-124940462D02*
X147321036Y-125550062D01*
X147321036Y-125550062D02*
X146040876Y-125550062D01*
X146040876Y-125550062D02*
X146040876Y-124940462D01*
X147260076Y-124452782D02*
X147321036Y-124269902D01*
X147321036Y-124269902D02*
X147321036Y-123965102D01*
X147321036Y-123965102D02*
X147260076Y-123843182D01*
X147260076Y-123843182D02*
X147199116Y-123782222D01*
X147199116Y-123782222D02*
X147077196Y-123721262D01*
X147077196Y-123721262D02*
X146955276Y-123721262D01*
X146955276Y-123721262D02*
X146833356Y-123782222D01*
X146833356Y-123782222D02*
X146772396Y-123843182D01*
X146772396Y-123843182D02*
X146711436Y-123965102D01*
X146711436Y-123965102D02*
X146650476Y-124208942D01*
X146650476Y-124208942D02*
X146589516Y-124330862D01*
X146589516Y-124330862D02*
X146528556Y-124391822D01*
X146528556Y-124391822D02*
X146406636Y-124452782D01*
X146406636Y-124452782D02*
X146284716Y-124452782D01*
X146284716Y-124452782D02*
X146162796Y-124391822D01*
X146162796Y-124391822D02*
X146101836Y-124330862D01*
X146101836Y-124330862D02*
X146040876Y-124208942D01*
X146040876Y-124208942D02*
X146040876Y-123904142D01*
X146040876Y-123904142D02*
X146101836Y-123721262D01*
X146650476Y-123172622D02*
X146650476Y-122745902D01*
X147321036Y-122563022D02*
X147321036Y-123172622D01*
X147321036Y-123172622D02*
X146040876Y-123172622D01*
X146040876Y-123172622D02*
X146040876Y-122563022D01*
X146040876Y-122197262D02*
X146040876Y-121465742D01*
X147321036Y-121831502D02*
X146040876Y-121831502D01*
X148834876Y-127079142D02*
X148834876Y-126286662D01*
X148834876Y-126286662D02*
X149322556Y-126713382D01*
X149322556Y-126713382D02*
X149322556Y-126530502D01*
X149322556Y-126530502D02*
X149383516Y-126408582D01*
X149383516Y-126408582D02*
X149444476Y-126347622D01*
X149444476Y-126347622D02*
X149566396Y-126286662D01*
X149566396Y-126286662D02*
X149871196Y-126286662D01*
X149871196Y-126286662D02*
X149993116Y-126347622D01*
X149993116Y-126347622D02*
X150054076Y-126408582D01*
X150054076Y-126408582D02*
X150115036Y-126530502D01*
X150115036Y-126530502D02*
X150115036Y-126896262D01*
X150115036Y-126896262D02*
X150054076Y-127018182D01*
X150054076Y-127018182D02*
X149993116Y-127079142D01*
X148834876Y-125920902D02*
X150115036Y-125494182D01*
X150115036Y-125494182D02*
X148834876Y-125067462D01*
X148834876Y-124762662D02*
X148834876Y-123970182D01*
X148834876Y-123970182D02*
X149322556Y-124396902D01*
X149322556Y-124396902D02*
X149322556Y-124214022D01*
X149322556Y-124214022D02*
X149383516Y-124092102D01*
X149383516Y-124092102D02*
X149444476Y-124031142D01*
X149444476Y-124031142D02*
X149566396Y-123970182D01*
X149566396Y-123970182D02*
X149871196Y-123970182D01*
X149871196Y-123970182D02*
X149993116Y-124031142D01*
X149993116Y-124031142D02*
X150054076Y-124092102D01*
X150054076Y-124092102D02*
X150115036Y-124214022D01*
X150115036Y-124214022D02*
X150115036Y-124579782D01*
X150115036Y-124579782D02*
X150054076Y-124701702D01*
X150054076Y-124701702D02*
X149993116Y-124762662D01*
D21*
X170937193Y-90745761D02*
X171401650Y-90745761D01*
X171169422Y-91558561D02*
X171169422Y-90745761D01*
X171672583Y-91558561D02*
X171672583Y-90745761D01*
X171672583Y-90745761D02*
X171943517Y-91326333D01*
X171943517Y-91326333D02*
X172214450Y-90745761D01*
X172214450Y-90745761D02*
X172214450Y-91558561D01*
D13*
X166990210Y-126972190D02*
X167415963Y-126972190D01*
X166905060Y-127227642D02*
X167203087Y-126333562D01*
X167203087Y-126333562D02*
X167501113Y-127227642D01*
X168267467Y-127227642D02*
X167756564Y-127227642D01*
X168012016Y-127227642D02*
X168012016Y-126333562D01*
X168012016Y-126333562D02*
X167926865Y-126461287D01*
X167926865Y-126461287D02*
X167841715Y-126546438D01*
X167841715Y-126546438D02*
X167756564Y-126589013D01*
X169530210Y-126972190D02*
X169955963Y-126972190D01*
X169445060Y-127227642D02*
X169743087Y-126333562D01*
X169743087Y-126333562D02*
X170041113Y-127227642D01*
X170296564Y-126418712D02*
X170339140Y-126376137D01*
X170339140Y-126376137D02*
X170424290Y-126333562D01*
X170424290Y-126333562D02*
X170637166Y-126333562D01*
X170637166Y-126333562D02*
X170722317Y-126376137D01*
X170722317Y-126376137D02*
X170764892Y-126418712D01*
X170764892Y-126418712D02*
X170807467Y-126503863D01*
X170807467Y-126503863D02*
X170807467Y-126589013D01*
X170807467Y-126589013D02*
X170764892Y-126716739D01*
X170764892Y-126716739D02*
X170253989Y-127227642D01*
X170253989Y-127227642D02*
X170807467Y-127227642D01*
X172070210Y-126972190D02*
X172495963Y-126972190D01*
X171985060Y-127227642D02*
X172283087Y-126333562D01*
X172283087Y-126333562D02*
X172581113Y-127227642D01*
X172793989Y-126333562D02*
X173347467Y-126333562D01*
X173347467Y-126333562D02*
X173049441Y-126674164D01*
X173049441Y-126674164D02*
X173177166Y-126674164D01*
X173177166Y-126674164D02*
X173262317Y-126716739D01*
X173262317Y-126716739D02*
X173304892Y-126759314D01*
X173304892Y-126759314D02*
X173347467Y-126844465D01*
X173347467Y-126844465D02*
X173347467Y-127057341D01*
X173347467Y-127057341D02*
X173304892Y-127142491D01*
X173304892Y-127142491D02*
X173262317Y-127185067D01*
X173262317Y-127185067D02*
X173177166Y-127227642D01*
X173177166Y-127227642D02*
X172921715Y-127227642D01*
X172921715Y-127227642D02*
X172836564Y-127185067D01*
X172836564Y-127185067D02*
X172793989Y-127142491D01*
X174610210Y-126972190D02*
X175035963Y-126972190D01*
X174525060Y-127227642D02*
X174823087Y-126333562D01*
X174823087Y-126333562D02*
X175121113Y-127227642D01*
X175802317Y-126631588D02*
X175802317Y-127227642D01*
X175589441Y-126290987D02*
X175376564Y-126929615D01*
X175376564Y-126929615D02*
X175930043Y-126929615D01*
X177150210Y-126972190D02*
X177575963Y-126972190D01*
X177065060Y-127227642D02*
X177363087Y-126333562D01*
X177363087Y-126333562D02*
X177661113Y-127227642D01*
X178384892Y-126333562D02*
X177959140Y-126333562D01*
X177959140Y-126333562D02*
X177916564Y-126759314D01*
X177916564Y-126759314D02*
X177959140Y-126716739D01*
X177959140Y-126716739D02*
X178044290Y-126674164D01*
X178044290Y-126674164D02*
X178257166Y-126674164D01*
X178257166Y-126674164D02*
X178342317Y-126716739D01*
X178342317Y-126716739D02*
X178384892Y-126759314D01*
X178384892Y-126759314D02*
X178427467Y-126844465D01*
X178427467Y-126844465D02*
X178427467Y-127057341D01*
X178427467Y-127057341D02*
X178384892Y-127142491D01*
X178384892Y-127142491D02*
X178342317Y-127185067D01*
X178342317Y-127185067D02*
X178257166Y-127227642D01*
X178257166Y-127227642D02*
X178044290Y-127227642D01*
X178044290Y-127227642D02*
X177959140Y-127185067D01*
X177959140Y-127185067D02*
X177916564Y-127142491D01*
D12*
X158765604Y-125941826D02*
X159182842Y-127193538D01*
X159182842Y-127193538D02*
X159600079Y-125941826D01*
X160017316Y-127193538D02*
X160017316Y-125941826D01*
X160613369Y-127193538D02*
X160613369Y-125941826D01*
X160613369Y-125941826D02*
X161328633Y-127193538D01*
X161328633Y-127193538D02*
X161328633Y-125941826D01*
X155290479Y-126014631D02*
X155171268Y-125955026D01*
X155171268Y-125955026D02*
X154992452Y-125955026D01*
X154992452Y-125955026D02*
X154813636Y-126014631D01*
X154813636Y-126014631D02*
X154694426Y-126133842D01*
X154694426Y-126133842D02*
X154634820Y-126253053D01*
X154634820Y-126253053D02*
X154575215Y-126491474D01*
X154575215Y-126491474D02*
X154575215Y-126670290D01*
X154575215Y-126670290D02*
X154634820Y-126908711D01*
X154634820Y-126908711D02*
X154694426Y-127027922D01*
X154694426Y-127027922D02*
X154813636Y-127147133D01*
X154813636Y-127147133D02*
X154992452Y-127206738D01*
X154992452Y-127206738D02*
X155111663Y-127206738D01*
X155111663Y-127206738D02*
X155290479Y-127147133D01*
X155290479Y-127147133D02*
X155350084Y-127087527D01*
X155350084Y-127087527D02*
X155350084Y-126670290D01*
X155350084Y-126670290D02*
X155111663Y-126670290D01*
X155886532Y-127206738D02*
X155886532Y-125955026D01*
X155886532Y-125955026D02*
X156601796Y-127206738D01*
X156601796Y-127206738D02*
X156601796Y-125955026D01*
X157197849Y-127206738D02*
X157197849Y-125955026D01*
X157197849Y-125955026D02*
X157495876Y-125955026D01*
X157495876Y-125955026D02*
X157674692Y-126014631D01*
X157674692Y-126014631D02*
X157793903Y-126133842D01*
X157793903Y-126133842D02*
X157853508Y-126253053D01*
X157853508Y-126253053D02*
X157913113Y-126491474D01*
X157913113Y-126491474D02*
X157913113Y-126670290D01*
X157913113Y-126670290D02*
X157853508Y-126908711D01*
X157853508Y-126908711D02*
X157793903Y-127027922D01*
X157793903Y-127027922D02*
X157674692Y-127147133D01*
X157674692Y-127147133D02*
X157495876Y-127206738D01*
X157495876Y-127206738D02*
X157197849Y-127206738D01*
X144306656Y-84231556D02*
X144306656Y-84946820D01*
X144306656Y-84589188D02*
X143054944Y-84589188D01*
X143054944Y-84589188D02*
X143233760Y-84708399D01*
X143233760Y-84708399D02*
X143352971Y-84827610D01*
X143352971Y-84827610D02*
X143412576Y-84946820D01*
X143054944Y-83814319D02*
X143054944Y-83039449D01*
X143054944Y-83039449D02*
X143531787Y-83456687D01*
X143531787Y-83456687D02*
X143531787Y-83277871D01*
X143531787Y-83277871D02*
X143591392Y-83158660D01*
X143591392Y-83158660D02*
X143650997Y-83099055D01*
X143650997Y-83099055D02*
X143770208Y-83039449D01*
X143770208Y-83039449D02*
X144068235Y-83039449D01*
X144068235Y-83039449D02*
X144187445Y-83099055D01*
X144187445Y-83099055D02*
X144247051Y-83158660D01*
X144247051Y-83158660D02*
X144306656Y-83277871D01*
X144306656Y-83277871D02*
X144306656Y-83635503D01*
X144306656Y-83635503D02*
X144247051Y-83754713D01*
X144247051Y-83754713D02*
X144187445Y-83814319D01*
X146846656Y-84231556D02*
X146846656Y-84946820D01*
X146846656Y-84589188D02*
X145594944Y-84589188D01*
X145594944Y-84589188D02*
X145773760Y-84708399D01*
X145773760Y-84708399D02*
X145892971Y-84827610D01*
X145892971Y-84827610D02*
X145952576Y-84946820D01*
X145714155Y-83754713D02*
X145654549Y-83695108D01*
X145654549Y-83695108D02*
X145594944Y-83575897D01*
X145594944Y-83575897D02*
X145594944Y-83277871D01*
X145594944Y-83277871D02*
X145654549Y-83158660D01*
X145654549Y-83158660D02*
X145714155Y-83099055D01*
X145714155Y-83099055D02*
X145833365Y-83039449D01*
X145833365Y-83039449D02*
X145952576Y-83039449D01*
X145952576Y-83039449D02*
X146131392Y-83099055D01*
X146131392Y-83099055D02*
X146846656Y-83814319D01*
X146846656Y-83814319D02*
X146846656Y-83039449D01*
X149386656Y-84231556D02*
X149386656Y-84946820D01*
X149386656Y-84589188D02*
X148134944Y-84589188D01*
X148134944Y-84589188D02*
X148313760Y-84708399D01*
X148313760Y-84708399D02*
X148432971Y-84827610D01*
X148432971Y-84827610D02*
X148492576Y-84946820D01*
X149386656Y-83039449D02*
X149386656Y-83754713D01*
X149386656Y-83397081D02*
X148134944Y-83397081D01*
X148134944Y-83397081D02*
X148313760Y-83516292D01*
X148313760Y-83516292D02*
X148432971Y-83635503D01*
X148432971Y-83635503D02*
X148492576Y-83754713D01*
X151926656Y-84231556D02*
X151926656Y-84946820D01*
X151926656Y-84589188D02*
X150674944Y-84589188D01*
X150674944Y-84589188D02*
X150853760Y-84708399D01*
X150853760Y-84708399D02*
X150972971Y-84827610D01*
X150972971Y-84827610D02*
X151032576Y-84946820D01*
X150674944Y-83456687D02*
X150674944Y-83337476D01*
X150674944Y-83337476D02*
X150734549Y-83218265D01*
X150734549Y-83218265D02*
X150794155Y-83158660D01*
X150794155Y-83158660D02*
X150913365Y-83099055D01*
X150913365Y-83099055D02*
X151151787Y-83039449D01*
X151151787Y-83039449D02*
X151449813Y-83039449D01*
X151449813Y-83039449D02*
X151688235Y-83099055D01*
X151688235Y-83099055D02*
X151807445Y-83158660D01*
X151807445Y-83158660D02*
X151867051Y-83218265D01*
X151867051Y-83218265D02*
X151926656Y-83337476D01*
X151926656Y-83337476D02*
X151926656Y-83456687D01*
X151926656Y-83456687D02*
X151867051Y-83575897D01*
X151867051Y-83575897D02*
X151807445Y-83635503D01*
X151807445Y-83635503D02*
X151688235Y-83695108D01*
X151688235Y-83695108D02*
X151449813Y-83754713D01*
X151449813Y-83754713D02*
X151151787Y-83754713D01*
X151151787Y-83754713D02*
X150913365Y-83695108D01*
X150913365Y-83695108D02*
X150794155Y-83635503D01*
X150794155Y-83635503D02*
X150734549Y-83575897D01*
X150734549Y-83575897D02*
X150674944Y-83456687D01*
X154466656Y-83635503D02*
X154466656Y-83397081D01*
X154466656Y-83397081D02*
X154407051Y-83277871D01*
X154407051Y-83277871D02*
X154347445Y-83218265D01*
X154347445Y-83218265D02*
X154168629Y-83099055D01*
X154168629Y-83099055D02*
X153930208Y-83039449D01*
X153930208Y-83039449D02*
X153453365Y-83039449D01*
X153453365Y-83039449D02*
X153334155Y-83099055D01*
X153334155Y-83099055D02*
X153274549Y-83158660D01*
X153274549Y-83158660D02*
X153214944Y-83277871D01*
X153214944Y-83277871D02*
X153214944Y-83516292D01*
X153214944Y-83516292D02*
X153274549Y-83635503D01*
X153274549Y-83635503D02*
X153334155Y-83695108D01*
X153334155Y-83695108D02*
X153453365Y-83754713D01*
X153453365Y-83754713D02*
X153751392Y-83754713D01*
X153751392Y-83754713D02*
X153870603Y-83695108D01*
X153870603Y-83695108D02*
X153930208Y-83635503D01*
X153930208Y-83635503D02*
X153989813Y-83516292D01*
X153989813Y-83516292D02*
X153989813Y-83277871D01*
X153989813Y-83277871D02*
X153930208Y-83158660D01*
X153930208Y-83158660D02*
X153870603Y-83099055D01*
X153870603Y-83099055D02*
X153751392Y-83039449D01*
X156291392Y-83516292D02*
X156231787Y-83635503D01*
X156231787Y-83635503D02*
X156172181Y-83695108D01*
X156172181Y-83695108D02*
X156052971Y-83754713D01*
X156052971Y-83754713D02*
X155993365Y-83754713D01*
X155993365Y-83754713D02*
X155874155Y-83695108D01*
X155874155Y-83695108D02*
X155814549Y-83635503D01*
X155814549Y-83635503D02*
X155754944Y-83516292D01*
X155754944Y-83516292D02*
X155754944Y-83277871D01*
X155754944Y-83277871D02*
X155814549Y-83158660D01*
X155814549Y-83158660D02*
X155874155Y-83099055D01*
X155874155Y-83099055D02*
X155993365Y-83039449D01*
X155993365Y-83039449D02*
X156052971Y-83039449D01*
X156052971Y-83039449D02*
X156172181Y-83099055D01*
X156172181Y-83099055D02*
X156231787Y-83158660D01*
X156231787Y-83158660D02*
X156291392Y-83277871D01*
X156291392Y-83277871D02*
X156291392Y-83516292D01*
X156291392Y-83516292D02*
X156350997Y-83635503D01*
X156350997Y-83635503D02*
X156410603Y-83695108D01*
X156410603Y-83695108D02*
X156529813Y-83754713D01*
X156529813Y-83754713D02*
X156768235Y-83754713D01*
X156768235Y-83754713D02*
X156887445Y-83695108D01*
X156887445Y-83695108D02*
X156947051Y-83635503D01*
X156947051Y-83635503D02*
X157006656Y-83516292D01*
X157006656Y-83516292D02*
X157006656Y-83277871D01*
X157006656Y-83277871D02*
X156947051Y-83158660D01*
X156947051Y-83158660D02*
X156887445Y-83099055D01*
X156887445Y-83099055D02*
X156768235Y-83039449D01*
X156768235Y-83039449D02*
X156529813Y-83039449D01*
X156529813Y-83039449D02*
X156410603Y-83099055D01*
X156410603Y-83099055D02*
X156350997Y-83158660D01*
X156350997Y-83158660D02*
X156291392Y-83277871D01*
X159818944Y-83814319D02*
X159818944Y-82979844D01*
X159818944Y-82979844D02*
X161070656Y-83516292D01*
X162358944Y-83158660D02*
X162358944Y-83397081D01*
X162358944Y-83397081D02*
X162418549Y-83516292D01*
X162418549Y-83516292D02*
X162478155Y-83575897D01*
X162478155Y-83575897D02*
X162656971Y-83695108D01*
X162656971Y-83695108D02*
X162895392Y-83754713D01*
X162895392Y-83754713D02*
X163372235Y-83754713D01*
X163372235Y-83754713D02*
X163491445Y-83695108D01*
X163491445Y-83695108D02*
X163551051Y-83635503D01*
X163551051Y-83635503D02*
X163610656Y-83516292D01*
X163610656Y-83516292D02*
X163610656Y-83277871D01*
X163610656Y-83277871D02*
X163551051Y-83158660D01*
X163551051Y-83158660D02*
X163491445Y-83099055D01*
X163491445Y-83099055D02*
X163372235Y-83039449D01*
X163372235Y-83039449D02*
X163074208Y-83039449D01*
X163074208Y-83039449D02*
X162954997Y-83099055D01*
X162954997Y-83099055D02*
X162895392Y-83158660D01*
X162895392Y-83158660D02*
X162835787Y-83277871D01*
X162835787Y-83277871D02*
X162835787Y-83516292D01*
X162835787Y-83516292D02*
X162895392Y-83635503D01*
X162895392Y-83635503D02*
X162954997Y-83695108D01*
X162954997Y-83695108D02*
X163074208Y-83754713D01*
X164898944Y-83099055D02*
X164898944Y-83695108D01*
X164898944Y-83695108D02*
X165494997Y-83754713D01*
X165494997Y-83754713D02*
X165435392Y-83695108D01*
X165435392Y-83695108D02*
X165375787Y-83575897D01*
X165375787Y-83575897D02*
X165375787Y-83277871D01*
X165375787Y-83277871D02*
X165435392Y-83158660D01*
X165435392Y-83158660D02*
X165494997Y-83099055D01*
X165494997Y-83099055D02*
X165614208Y-83039449D01*
X165614208Y-83039449D02*
X165912235Y-83039449D01*
X165912235Y-83039449D02*
X166031445Y-83099055D01*
X166031445Y-83099055D02*
X166091051Y-83158660D01*
X166091051Y-83158660D02*
X166150656Y-83277871D01*
X166150656Y-83277871D02*
X166150656Y-83575897D01*
X166150656Y-83575897D02*
X166091051Y-83695108D01*
X166091051Y-83695108D02*
X166031445Y-83754713D01*
X167856181Y-83158660D02*
X168690656Y-83158660D01*
X167379339Y-83456687D02*
X168273419Y-83754713D01*
X168273419Y-83754713D02*
X168273419Y-82979844D01*
X169978944Y-83814319D02*
X169978944Y-83039449D01*
X169978944Y-83039449D02*
X170455787Y-83456687D01*
X170455787Y-83456687D02*
X170455787Y-83277871D01*
X170455787Y-83277871D02*
X170515392Y-83158660D01*
X170515392Y-83158660D02*
X170574997Y-83099055D01*
X170574997Y-83099055D02*
X170694208Y-83039449D01*
X170694208Y-83039449D02*
X170992235Y-83039449D01*
X170992235Y-83039449D02*
X171111445Y-83099055D01*
X171111445Y-83099055D02*
X171171051Y-83158660D01*
X171171051Y-83158660D02*
X171230656Y-83277871D01*
X171230656Y-83277871D02*
X171230656Y-83635503D01*
X171230656Y-83635503D02*
X171171051Y-83754713D01*
X171171051Y-83754713D02*
X171111445Y-83814319D01*
X172638155Y-83754713D02*
X172578549Y-83695108D01*
X172578549Y-83695108D02*
X172518944Y-83575897D01*
X172518944Y-83575897D02*
X172518944Y-83277871D01*
X172518944Y-83277871D02*
X172578549Y-83158660D01*
X172578549Y-83158660D02*
X172638155Y-83099055D01*
X172638155Y-83099055D02*
X172757365Y-83039449D01*
X172757365Y-83039449D02*
X172876576Y-83039449D01*
X172876576Y-83039449D02*
X173055392Y-83099055D01*
X173055392Y-83099055D02*
X173770656Y-83814319D01*
X173770656Y-83814319D02*
X173770656Y-83039449D01*
X176310656Y-83039449D02*
X176310656Y-83754713D01*
X176310656Y-83397081D02*
X175058944Y-83397081D01*
X175058944Y-83397081D02*
X175237760Y-83516292D01*
X175237760Y-83516292D02*
X175356971Y-83635503D01*
X175356971Y-83635503D02*
X175416576Y-83754713D01*
X177598944Y-83456687D02*
X177598944Y-83337476D01*
X177598944Y-83337476D02*
X177658549Y-83218265D01*
X177658549Y-83218265D02*
X177718155Y-83158660D01*
X177718155Y-83158660D02*
X177837365Y-83099055D01*
X177837365Y-83099055D02*
X178075787Y-83039449D01*
X178075787Y-83039449D02*
X178373813Y-83039449D01*
X178373813Y-83039449D02*
X178612235Y-83099055D01*
X178612235Y-83099055D02*
X178731445Y-83158660D01*
X178731445Y-83158660D02*
X178791051Y-83218265D01*
X178791051Y-83218265D02*
X178850656Y-83337476D01*
X178850656Y-83337476D02*
X178850656Y-83456687D01*
X178850656Y-83456687D02*
X178791051Y-83575897D01*
X178791051Y-83575897D02*
X178731445Y-83635503D01*
X178731445Y-83635503D02*
X178612235Y-83695108D01*
X178612235Y-83695108D02*
X178373813Y-83754713D01*
X178373813Y-83754713D02*
X178075787Y-83754713D01*
X178075787Y-83754713D02*
X177837365Y-83695108D01*
X177837365Y-83695108D02*
X177718155Y-83635503D01*
X177718155Y-83635503D02*
X177658549Y-83575897D01*
X177658549Y-83575897D02*
X177598944Y-83456687D01*
D22*
X155709990Y-88818156D02*
X155478487Y-88818156D01*
X155478487Y-88818156D02*
X155478487Y-87429139D01*
X155478487Y-87429139D02*
X155709990Y-87429139D01*
X156034094Y-87845844D02*
X156728602Y-87845844D01*
X156311897Y-87429139D02*
X156034094Y-88679254D01*
X156636001Y-88262549D02*
X155941493Y-88262549D01*
X156358198Y-88679254D02*
X156636001Y-87429139D01*
X157052706Y-87984746D02*
X157793516Y-87984746D01*
X157793516Y-88262549D02*
X157052706Y-88262549D01*
X158256521Y-88494052D02*
X158256521Y-87521740D01*
X158256521Y-87521740D02*
X158626926Y-87521740D01*
X158626926Y-87521740D02*
X158719527Y-87568041D01*
X158719527Y-87568041D02*
X158765828Y-87614341D01*
X158765828Y-87614341D02*
X158812128Y-87706942D01*
X158812128Y-87706942D02*
X158812128Y-87845844D01*
X158812128Y-87845844D02*
X158765828Y-87938445D01*
X158765828Y-87938445D02*
X158719527Y-87984746D01*
X158719527Y-87984746D02*
X158626926Y-88031046D01*
X158626926Y-88031046D02*
X158256521Y-88031046D01*
X159136232Y-87521740D02*
X159367735Y-88494052D01*
X159367735Y-88494052D02*
X159552937Y-87799544D01*
X159552937Y-87799544D02*
X159738140Y-88494052D01*
X159738140Y-88494052D02*
X159969643Y-87521740D01*
X160340047Y-88494052D02*
X160340047Y-87521740D01*
X160340047Y-87521740D02*
X160664151Y-88216249D01*
X160664151Y-88216249D02*
X160988255Y-87521740D01*
X160988255Y-87521740D02*
X160988255Y-88494052D01*
X161358660Y-88818156D02*
X161590163Y-88818156D01*
X161590163Y-88818156D02*
X161590163Y-87429139D01*
X161590163Y-87429139D02*
X161358660Y-87429139D01*
X148107344Y-86053813D02*
X148107344Y-85359305D01*
X147690639Y-85776010D02*
X148940754Y-86053813D01*
X148524049Y-85451906D02*
X148524049Y-86146414D01*
X148940754Y-85729709D02*
X147690639Y-85451906D01*
X150647344Y-86053813D02*
X150647344Y-85359305D01*
X150230639Y-85776010D02*
X151480754Y-86053813D01*
X151064049Y-85451906D02*
X151064049Y-86146414D01*
X151480754Y-85729709D02*
X150230639Y-85451906D01*
X164744344Y-84783813D02*
X164744344Y-84089305D01*
X164327639Y-84506010D02*
X165577754Y-84783813D01*
X165161049Y-84181906D02*
X165161049Y-84876414D01*
X165577754Y-84459709D02*
X164327639Y-84181906D01*
X169824344Y-84783813D02*
X169824344Y-84089305D01*
X169407639Y-84506010D02*
X170657754Y-84783813D01*
X170241049Y-84181906D02*
X170241049Y-84876414D01*
X170657754Y-84459709D02*
X169407639Y-84181906D01*
X162331344Y-84783813D02*
X162331344Y-84089305D01*
X161914639Y-84506010D02*
X163164754Y-84783813D01*
X162748049Y-84181906D02*
X162748049Y-84876414D01*
X163164754Y-84459709D02*
X161914639Y-84181906D01*
X153060344Y-84783813D02*
X153060344Y-84089305D01*
X152643639Y-84506010D02*
X153893754Y-84783813D01*
X153477049Y-84181906D02*
X153477049Y-84876414D01*
X153893754Y-84459709D02*
X152643639Y-84181906D01*
D23*
X147170162Y-98139205D02*
X147536309Y-99420719D01*
X147536309Y-99420719D02*
X147902456Y-98505352D01*
X147902456Y-98505352D02*
X148268603Y-99420719D01*
X148268603Y-99420719D02*
X148634750Y-98139205D01*
X149183971Y-98139205D02*
X149550118Y-99420719D01*
X149550118Y-99420719D02*
X149916265Y-98505352D01*
X149916265Y-98505352D02*
X150282412Y-99420719D01*
X150282412Y-99420719D02*
X150648559Y-98139205D01*
X151197780Y-98139205D02*
X151563927Y-99420719D01*
X151563927Y-99420719D02*
X151930074Y-98505352D01*
X151930074Y-98505352D02*
X152296221Y-99420719D01*
X152296221Y-99420719D02*
X152662368Y-98139205D01*
X153394662Y-99237646D02*
X153486199Y-99329183D01*
X153486199Y-99329183D02*
X153394662Y-99420719D01*
X153394662Y-99420719D02*
X153303126Y-99329183D01*
X153303126Y-99329183D02*
X153394662Y-99237646D01*
X153394662Y-99237646D02*
X153394662Y-99420719D01*
X155133861Y-99420719D02*
X155133861Y-98413815D01*
X155133861Y-98413815D02*
X155042324Y-98230741D01*
X155042324Y-98230741D02*
X154859251Y-98139205D01*
X154859251Y-98139205D02*
X154493104Y-98139205D01*
X154493104Y-98139205D02*
X154310030Y-98230741D01*
X155133861Y-99329183D02*
X154950788Y-99420719D01*
X154950788Y-99420719D02*
X154493104Y-99420719D01*
X154493104Y-99420719D02*
X154310030Y-99329183D01*
X154310030Y-99329183D02*
X154218494Y-99146109D01*
X154218494Y-99146109D02*
X154218494Y-98963035D01*
X154218494Y-98963035D02*
X154310030Y-98779962D01*
X154310030Y-98779962D02*
X154493104Y-98688425D01*
X154493104Y-98688425D02*
X154950788Y-98688425D01*
X154950788Y-98688425D02*
X155133861Y-98596888D01*
X156049228Y-99420719D02*
X156049228Y-98139205D01*
X156049228Y-98505352D02*
X156140765Y-98322278D01*
X156140765Y-98322278D02*
X156232302Y-98230741D01*
X156232302Y-98230741D02*
X156415375Y-98139205D01*
X156415375Y-98139205D02*
X156598449Y-98139205D01*
X158063037Y-99420719D02*
X158063037Y-97498447D01*
X158063037Y-99329183D02*
X157879964Y-99420719D01*
X157879964Y-99420719D02*
X157513817Y-99420719D01*
X157513817Y-99420719D02*
X157330743Y-99329183D01*
X157330743Y-99329183D02*
X157239206Y-99237646D01*
X157239206Y-99237646D02*
X157147670Y-99054572D01*
X157147670Y-99054572D02*
X157147670Y-98505352D01*
X157147670Y-98505352D02*
X157239206Y-98322278D01*
X157239206Y-98322278D02*
X157330743Y-98230741D01*
X157330743Y-98230741D02*
X157513817Y-98139205D01*
X157513817Y-98139205D02*
X157879964Y-98139205D01*
X157879964Y-98139205D02*
X158063037Y-98230741D01*
X159802235Y-98139205D02*
X159802235Y-99420719D01*
X158978404Y-98139205D02*
X158978404Y-99146109D01*
X158978404Y-99146109D02*
X159069941Y-99329183D01*
X159069941Y-99329183D02*
X159253015Y-99420719D01*
X159253015Y-99420719D02*
X159527625Y-99420719D01*
X159527625Y-99420719D02*
X159710698Y-99329183D01*
X159710698Y-99329183D02*
X159802235Y-99237646D01*
X160717602Y-99420719D02*
X160717602Y-98139205D01*
X160717602Y-97498447D02*
X160626066Y-97589984D01*
X160626066Y-97589984D02*
X160717602Y-97681521D01*
X160717602Y-97681521D02*
X160809139Y-97589984D01*
X160809139Y-97589984D02*
X160717602Y-97498447D01*
X160717602Y-97498447D02*
X160717602Y-97681521D01*
X161632970Y-98139205D02*
X161632970Y-99420719D01*
X161632970Y-98322278D02*
X161724507Y-98230741D01*
X161724507Y-98230741D02*
X161907581Y-98139205D01*
X161907581Y-98139205D02*
X162182191Y-98139205D01*
X162182191Y-98139205D02*
X162365264Y-98230741D01*
X162365264Y-98230741D02*
X162456801Y-98413815D01*
X162456801Y-98413815D02*
X162456801Y-99420719D01*
X163646779Y-99420719D02*
X163463705Y-99329183D01*
X163463705Y-99329183D02*
X163372168Y-99237646D01*
X163372168Y-99237646D02*
X163280632Y-99054572D01*
X163280632Y-99054572D02*
X163280632Y-98505352D01*
X163280632Y-98505352D02*
X163372168Y-98322278D01*
X163372168Y-98322278D02*
X163463705Y-98230741D01*
X163463705Y-98230741D02*
X163646779Y-98139205D01*
X163646779Y-98139205D02*
X163921389Y-98139205D01*
X163921389Y-98139205D02*
X164104462Y-98230741D01*
X164104462Y-98230741D02*
X164195999Y-98322278D01*
X164195999Y-98322278D02*
X164287536Y-98505352D01*
X164287536Y-98505352D02*
X164287536Y-99054572D01*
X164287536Y-99054572D02*
X164195999Y-99237646D01*
X164195999Y-99237646D02*
X164104462Y-99329183D01*
X164104462Y-99329183D02*
X163921389Y-99420719D01*
X163921389Y-99420719D02*
X163646779Y-99420719D01*
X165111366Y-99237646D02*
X165202903Y-99329183D01*
X165202903Y-99329183D02*
X165111366Y-99420719D01*
X165111366Y-99420719D02*
X165019830Y-99329183D01*
X165019830Y-99329183D02*
X165111366Y-99237646D01*
X165111366Y-99237646D02*
X165111366Y-99420719D01*
X166850565Y-99329183D02*
X166667492Y-99420719D01*
X166667492Y-99420719D02*
X166301345Y-99420719D01*
X166301345Y-99420719D02*
X166118271Y-99329183D01*
X166118271Y-99329183D02*
X166026734Y-99237646D01*
X166026734Y-99237646D02*
X165935198Y-99054572D01*
X165935198Y-99054572D02*
X165935198Y-98505352D01*
X165935198Y-98505352D02*
X166026734Y-98322278D01*
X166026734Y-98322278D02*
X166118271Y-98230741D01*
X166118271Y-98230741D02*
X166301345Y-98139205D01*
X166301345Y-98139205D02*
X166667492Y-98139205D01*
X166667492Y-98139205D02*
X166850565Y-98230741D01*
X168498227Y-99329183D02*
X168315154Y-99420719D01*
X168315154Y-99420719D02*
X167949007Y-99420719D01*
X167949007Y-99420719D02*
X167765933Y-99329183D01*
X167765933Y-99329183D02*
X167674396Y-99237646D01*
X167674396Y-99237646D02*
X167582860Y-99054572D01*
X167582860Y-99054572D02*
X167582860Y-98505352D01*
X167582860Y-98505352D02*
X167674396Y-98322278D01*
X167674396Y-98322278D02*
X167765933Y-98230741D01*
X167765933Y-98230741D02*
X167949007Y-98139205D01*
X167949007Y-98139205D02*
X168315154Y-98139205D01*
X168315154Y-98139205D02*
X168498227Y-98230741D01*
D16*
X145162036Y-126830222D02*
X143881876Y-126830222D01*
X143881876Y-125976782D02*
X143881876Y-125732942D01*
X143881876Y-125732942D02*
X143942836Y-125611022D01*
X143942836Y-125611022D02*
X144064756Y-125489102D01*
X144064756Y-125489102D02*
X144308596Y-125428142D01*
X144308596Y-125428142D02*
X144735316Y-125428142D01*
X144735316Y-125428142D02*
X144979156Y-125489102D01*
X144979156Y-125489102D02*
X145101076Y-125611022D01*
X145101076Y-125611022D02*
X145162036Y-125732942D01*
X145162036Y-125732942D02*
X145162036Y-125976782D01*
X145162036Y-125976782D02*
X145101076Y-126098702D01*
X145101076Y-126098702D02*
X144979156Y-126220622D01*
X144979156Y-126220622D02*
X144735316Y-126281582D01*
X144735316Y-126281582D02*
X144308596Y-126281582D01*
X144308596Y-126281582D02*
X144064756Y-126220622D01*
X144064756Y-126220622D02*
X143942836Y-126098702D01*
X143942836Y-126098702D02*
X143881876Y-125976782D01*
X145162036Y-124147982D02*
X144552436Y-124574702D01*
X145162036Y-124879502D02*
X143881876Y-124879502D01*
X143881876Y-124879502D02*
X143881876Y-124391822D01*
X143881876Y-124391822D02*
X143942836Y-124269902D01*
X143942836Y-124269902D02*
X144003796Y-124208942D01*
X144003796Y-124208942D02*
X144125716Y-124147982D01*
X144125716Y-124147982D02*
X144308596Y-124147982D01*
X144308596Y-124147982D02*
X144430516Y-124208942D01*
X144430516Y-124208942D02*
X144491476Y-124269902D01*
X144491476Y-124269902D02*
X144552436Y-124391822D01*
X144552436Y-124391822D02*
X144552436Y-124879502D01*
X144491476Y-123599342D02*
X144491476Y-123172622D01*
X145162036Y-122989742D02*
X145162036Y-123599342D01*
X145162036Y-123599342D02*
X143881876Y-123599342D01*
X143881876Y-123599342D02*
X143881876Y-122989742D01*
X144491476Y-122014382D02*
X144491476Y-122441102D01*
X145162036Y-122441102D02*
X143881876Y-122441102D01*
X143881876Y-122441102D02*
X143881876Y-121831502D01*
X136308276Y-77755382D02*
X136369236Y-77572502D01*
X136369236Y-77572502D02*
X136369236Y-77267702D01*
X136369236Y-77267702D02*
X136308276Y-77145782D01*
X136308276Y-77145782D02*
X136247316Y-77084822D01*
X136247316Y-77084822D02*
X136125396Y-77023862D01*
X136125396Y-77023862D02*
X136003476Y-77023862D01*
X136003476Y-77023862D02*
X135881556Y-77084822D01*
X135881556Y-77084822D02*
X135820596Y-77145782D01*
X135820596Y-77145782D02*
X135759636Y-77267702D01*
X135759636Y-77267702D02*
X135698676Y-77511542D01*
X135698676Y-77511542D02*
X135637716Y-77633462D01*
X135637716Y-77633462D02*
X135576756Y-77694422D01*
X135576756Y-77694422D02*
X135454836Y-77755382D01*
X135454836Y-77755382D02*
X135332916Y-77755382D01*
X135332916Y-77755382D02*
X135210996Y-77694422D01*
X135210996Y-77694422D02*
X135150036Y-77633462D01*
X135150036Y-77633462D02*
X135089076Y-77511542D01*
X135089076Y-77511542D02*
X135089076Y-77206742D01*
X135089076Y-77206742D02*
X135150036Y-77023862D01*
X136369236Y-76475222D02*
X135089076Y-76475222D01*
X135089076Y-76475222D02*
X135089076Y-76170422D01*
X135089076Y-76170422D02*
X135150036Y-75987542D01*
X135150036Y-75987542D02*
X135271956Y-75865622D01*
X135271956Y-75865622D02*
X135393876Y-75804662D01*
X135393876Y-75804662D02*
X135637716Y-75743702D01*
X135637716Y-75743702D02*
X135820596Y-75743702D01*
X135820596Y-75743702D02*
X136064436Y-75804662D01*
X136064436Y-75804662D02*
X136186356Y-75865622D01*
X136186356Y-75865622D02*
X136308276Y-75987542D01*
X136308276Y-75987542D02*
X136369236Y-76170422D01*
X136369236Y-76170422D02*
X136369236Y-76475222D01*
X136003476Y-75256022D02*
X136003476Y-74646422D01*
X136369236Y-75377942D02*
X135089076Y-74951222D01*
X135089076Y-74951222D02*
X136369236Y-74524502D01*
X133514276Y-77628382D02*
X133575236Y-77445502D01*
X133575236Y-77445502D02*
X133575236Y-77140702D01*
X133575236Y-77140702D02*
X133514276Y-77018782D01*
X133514276Y-77018782D02*
X133453316Y-76957822D01*
X133453316Y-76957822D02*
X133331396Y-76896862D01*
X133331396Y-76896862D02*
X133209476Y-76896862D01*
X133209476Y-76896862D02*
X133087556Y-76957822D01*
X133087556Y-76957822D02*
X133026596Y-77018782D01*
X133026596Y-77018782D02*
X132965636Y-77140702D01*
X132965636Y-77140702D02*
X132904676Y-77384542D01*
X132904676Y-77384542D02*
X132843716Y-77506462D01*
X132843716Y-77506462D02*
X132782756Y-77567422D01*
X132782756Y-77567422D02*
X132660836Y-77628382D01*
X132660836Y-77628382D02*
X132538916Y-77628382D01*
X132538916Y-77628382D02*
X132416996Y-77567422D01*
X132416996Y-77567422D02*
X132356036Y-77506462D01*
X132356036Y-77506462D02*
X132295076Y-77384542D01*
X132295076Y-77384542D02*
X132295076Y-77079742D01*
X132295076Y-77079742D02*
X132356036Y-76896862D01*
X133453316Y-75616702D02*
X133514276Y-75677662D01*
X133514276Y-75677662D02*
X133575236Y-75860542D01*
X133575236Y-75860542D02*
X133575236Y-75982462D01*
X133575236Y-75982462D02*
X133514276Y-76165342D01*
X133514276Y-76165342D02*
X133392356Y-76287262D01*
X133392356Y-76287262D02*
X133270436Y-76348222D01*
X133270436Y-76348222D02*
X133026596Y-76409182D01*
X133026596Y-76409182D02*
X132843716Y-76409182D01*
X132843716Y-76409182D02*
X132599876Y-76348222D01*
X132599876Y-76348222D02*
X132477956Y-76287262D01*
X132477956Y-76287262D02*
X132356036Y-76165342D01*
X132356036Y-76165342D02*
X132295076Y-75982462D01*
X132295076Y-75982462D02*
X132295076Y-75860542D01*
X132295076Y-75860542D02*
X132356036Y-75677662D01*
X132356036Y-75677662D02*
X132416996Y-75616702D01*
X133575236Y-74458462D02*
X133575236Y-75068062D01*
X133575236Y-75068062D02*
X132295076Y-75068062D01*
D24*
X159287544Y-113753058D02*
X160027531Y-113753058D01*
X160027531Y-113753058D02*
X159287544Y-114863038D01*
X159287544Y-114863038D02*
X160027531Y-114863038D01*
X160450380Y-113753058D02*
X160450380Y-114651613D01*
X160450380Y-114651613D02*
X160503237Y-114757325D01*
X160503237Y-114757325D02*
X160556093Y-114810182D01*
X160556093Y-114810182D02*
X160661805Y-114863038D01*
X160661805Y-114863038D02*
X160873230Y-114863038D01*
X160873230Y-114863038D02*
X160978942Y-114810182D01*
X160978942Y-114810182D02*
X161031799Y-114757325D01*
X161031799Y-114757325D02*
X161084655Y-114651613D01*
X161084655Y-114651613D02*
X161084655Y-113753058D01*
X162088922Y-114123051D02*
X162088922Y-114863038D01*
X161824641Y-113700202D02*
X161560360Y-114493044D01*
X161560360Y-114493044D02*
X162247491Y-114493044D01*
D25*
X176103720Y-106521236D02*
X174948020Y-106521236D01*
X175993653Y-105310503D02*
X176048687Y-105365536D01*
X176048687Y-105365536D02*
X176103720Y-105530636D01*
X176103720Y-105530636D02*
X176103720Y-105640703D01*
X176103720Y-105640703D02*
X176048687Y-105805803D01*
X176048687Y-105805803D02*
X175938620Y-105915870D01*
X175938620Y-105915870D02*
X175828553Y-105970903D01*
X175828553Y-105970903D02*
X175608420Y-106025936D01*
X175608420Y-106025936D02*
X175443320Y-106025936D01*
X175443320Y-106025936D02*
X175223187Y-105970903D01*
X175223187Y-105970903D02*
X175113120Y-105915870D01*
X175113120Y-105915870D02*
X175003053Y-105805803D01*
X175003053Y-105805803D02*
X174948020Y-105640703D01*
X174948020Y-105640703D02*
X174948020Y-105530636D01*
X174948020Y-105530636D02*
X175003053Y-105365536D01*
X175003053Y-105365536D02*
X175058087Y-105310503D01*
X176048687Y-104870236D02*
X176103720Y-104705136D01*
X176103720Y-104705136D02*
X176103720Y-104429970D01*
X176103720Y-104429970D02*
X176048687Y-104319903D01*
X176048687Y-104319903D02*
X175993653Y-104264870D01*
X175993653Y-104264870D02*
X175883587Y-104209836D01*
X175883587Y-104209836D02*
X175773520Y-104209836D01*
X175773520Y-104209836D02*
X175663453Y-104264870D01*
X175663453Y-104264870D02*
X175608420Y-104319903D01*
X175608420Y-104319903D02*
X175553387Y-104429970D01*
X175553387Y-104429970D02*
X175498353Y-104650103D01*
X175498353Y-104650103D02*
X175443320Y-104760170D01*
X175443320Y-104760170D02*
X175388287Y-104815203D01*
X175388287Y-104815203D02*
X175278220Y-104870236D01*
X175278220Y-104870236D02*
X175168153Y-104870236D01*
X175168153Y-104870236D02*
X175058087Y-104815203D01*
X175058087Y-104815203D02*
X175003053Y-104760170D01*
X175003053Y-104760170D02*
X174948020Y-104650103D01*
X174948020Y-104650103D02*
X174948020Y-104374936D01*
X174948020Y-104374936D02*
X175003053Y-104209836D01*
X176103720Y-103714536D02*
X174948020Y-103714536D01*
X174948020Y-103714536D02*
X174948020Y-103274269D01*
X174948020Y-103274269D02*
X175003053Y-103164203D01*
X175003053Y-103164203D02*
X175058087Y-103109169D01*
X175058087Y-103109169D02*
X175168153Y-103054136D01*
X175168153Y-103054136D02*
X175333253Y-103054136D01*
X175333253Y-103054136D02*
X175443320Y-103109169D01*
X175443320Y-103109169D02*
X175498353Y-103164203D01*
X175498353Y-103164203D02*
X175553387Y-103274269D01*
X175553387Y-103274269D02*
X175553387Y-103714536D01*
X174948020Y-102338703D02*
X174948020Y-102228636D01*
X174948020Y-102228636D02*
X175003053Y-102118569D01*
X175003053Y-102118569D02*
X175058087Y-102063536D01*
X175058087Y-102063536D02*
X175168153Y-102008503D01*
X175168153Y-102008503D02*
X175388287Y-101953469D01*
X175388287Y-101953469D02*
X175663453Y-101953469D01*
X175663453Y-101953469D02*
X175883587Y-102008503D01*
X175883587Y-102008503D02*
X175993653Y-102063536D01*
X175993653Y-102063536D02*
X176048687Y-102118569D01*
X176048687Y-102118569D02*
X176103720Y-102228636D01*
X176103720Y-102228636D02*
X176103720Y-102338703D01*
X176103720Y-102338703D02*
X176048687Y-102448769D01*
X176048687Y-102448769D02*
X175993653Y-102503803D01*
X175993653Y-102503803D02*
X175883587Y-102558836D01*
X175883587Y-102558836D02*
X175663453Y-102613869D01*
X175663453Y-102613869D02*
X175388287Y-102613869D01*
X175388287Y-102613869D02*
X175168153Y-102558836D01*
X175168153Y-102558836D02*
X175058087Y-102503803D01*
X175058087Y-102503803D02*
X175003053Y-102448769D01*
X175003053Y-102448769D02*
X174948020Y-102338703D01*
D26*
X126284907Y-100905200D02*
X126250653Y-100939454D01*
X126250653Y-100939454D02*
X126147892Y-100973707D01*
X126147892Y-100973707D02*
X126079384Y-100973707D01*
X126079384Y-100973707D02*
X125976623Y-100939454D01*
X125976623Y-100939454D02*
X125908116Y-100870946D01*
X125908116Y-100870946D02*
X125873862Y-100802439D01*
X125873862Y-100802439D02*
X125839608Y-100665424D01*
X125839608Y-100665424D02*
X125839608Y-100562663D01*
X125839608Y-100562663D02*
X125873862Y-100425648D01*
X125873862Y-100425648D02*
X125908116Y-100357140D01*
X125908116Y-100357140D02*
X125976623Y-100288633D01*
X125976623Y-100288633D02*
X126079384Y-100254379D01*
X126079384Y-100254379D02*
X126147892Y-100254379D01*
X126147892Y-100254379D02*
X126250653Y-100288633D01*
X126250653Y-100288633D02*
X126284907Y-100322887D01*
X126558936Y-100322887D02*
X126593190Y-100288633D01*
X126593190Y-100288633D02*
X126661698Y-100254379D01*
X126661698Y-100254379D02*
X126832966Y-100254379D01*
X126832966Y-100254379D02*
X126901474Y-100288633D01*
X126901474Y-100288633D02*
X126935727Y-100322887D01*
X126935727Y-100322887D02*
X126969981Y-100391394D01*
X126969981Y-100391394D02*
X126969981Y-100459902D01*
X126969981Y-100459902D02*
X126935727Y-100562663D01*
X126935727Y-100562663D02*
X126524683Y-100973707D01*
X126524683Y-100973707D02*
X126969981Y-100973707D01*
D27*
X175820890Y-94323720D02*
X176058441Y-94323720D01*
X176058441Y-94323720D02*
X176177216Y-94383108D01*
X176177216Y-94383108D02*
X176295991Y-94501883D01*
X176295991Y-94501883D02*
X176355379Y-94739433D01*
X176355379Y-94739433D02*
X176355379Y-95155147D01*
X176355379Y-95155147D02*
X176295991Y-95392697D01*
X176295991Y-95392697D02*
X176177216Y-95511473D01*
X176177216Y-95511473D02*
X176058441Y-95570860D01*
X176058441Y-95570860D02*
X175820890Y-95570860D01*
X175820890Y-95570860D02*
X175702115Y-95511473D01*
X175702115Y-95511473D02*
X175583340Y-95392697D01*
X175583340Y-95392697D02*
X175523952Y-95155147D01*
X175523952Y-95155147D02*
X175523952Y-94739433D01*
X175523952Y-94739433D02*
X175583340Y-94501883D01*
X175583340Y-94501883D02*
X175702115Y-94383108D01*
X175702115Y-94383108D02*
X175820890Y-94323720D01*
X176889868Y-95570860D02*
X176889868Y-94323720D01*
X176889868Y-94323720D02*
X177602519Y-95570860D01*
X177602519Y-95570860D02*
X177602519Y-94323720D01*
X178433946Y-94323720D02*
X178552721Y-94323720D01*
X178552721Y-94323720D02*
X178671497Y-94383108D01*
X178671497Y-94383108D02*
X178730884Y-94442495D01*
X178730884Y-94442495D02*
X178790272Y-94561271D01*
X178790272Y-94561271D02*
X178849659Y-94798821D01*
X178849659Y-94798821D02*
X178849659Y-95095759D01*
X178849659Y-95095759D02*
X178790272Y-95333310D01*
X178790272Y-95333310D02*
X178730884Y-95452085D01*
X178730884Y-95452085D02*
X178671497Y-95511473D01*
X178671497Y-95511473D02*
X178552721Y-95570860D01*
X178552721Y-95570860D02*
X178433946Y-95570860D01*
X178433946Y-95570860D02*
X178315171Y-95511473D01*
X178315171Y-95511473D02*
X178255783Y-95452085D01*
X178255783Y-95452085D02*
X178196396Y-95333310D01*
X178196396Y-95333310D02*
X178137008Y-95095759D01*
X178137008Y-95095759D02*
X178137008Y-94798821D01*
X178137008Y-94798821D02*
X178196396Y-94561271D01*
X178196396Y-94561271D02*
X178255783Y-94442495D01*
X178255783Y-94442495D02*
X178315171Y-94383108D01*
X178315171Y-94383108D02*
X178433946Y-94323720D01*
D28*
X130721157Y-129729624D02*
X130721157Y-129033664D01*
X130721157Y-129033664D02*
X130886862Y-129033664D01*
X130886862Y-129033664D02*
X130986285Y-129066805D01*
X130986285Y-129066805D02*
X131052567Y-129133087D01*
X131052567Y-129133087D02*
X131085708Y-129199369D01*
X131085708Y-129199369D02*
X131118849Y-129331933D01*
X131118849Y-129331933D02*
X131118849Y-129431356D01*
X131118849Y-129431356D02*
X131085708Y-129563920D01*
X131085708Y-129563920D02*
X131052567Y-129630202D01*
X131052567Y-129630202D02*
X130986285Y-129696484D01*
X130986285Y-129696484D02*
X130886862Y-129729624D01*
X130886862Y-129729624D02*
X130721157Y-129729624D01*
X131781668Y-129729624D02*
X131383976Y-129729624D01*
X131582822Y-129729624D02*
X131582822Y-129033664D01*
X131582822Y-129033664D02*
X131516540Y-129133087D01*
X131516540Y-129133087D02*
X131450258Y-129199369D01*
X131450258Y-129199369D02*
X131383976Y-129232510D01*
X116992705Y-93035239D02*
X117761478Y-94188399D01*
X117761478Y-93035239D02*
X116992705Y-94188399D01*
X118145865Y-93145064D02*
X118200777Y-93090151D01*
X118200777Y-93090151D02*
X118310602Y-93035239D01*
X118310602Y-93035239D02*
X118585164Y-93035239D01*
X118585164Y-93035239D02*
X118694989Y-93090151D01*
X118694989Y-93090151D02*
X118749901Y-93145064D01*
X118749901Y-93145064D02*
X118804814Y-93254888D01*
X118804814Y-93254888D02*
X118804814Y-93364713D01*
X118804814Y-93364713D02*
X118749901Y-93529450D01*
X118749901Y-93529450D02*
X118090953Y-94188399D01*
X118090953Y-94188399D02*
X118804814Y-94188399D01*
X121114939Y-114812170D02*
X122048449Y-114812170D01*
X122048449Y-114812170D02*
X122158274Y-114757257D01*
X122158274Y-114757257D02*
X122213187Y-114702345D01*
X122213187Y-114702345D02*
X122268099Y-114592520D01*
X122268099Y-114592520D02*
X122268099Y-114372871D01*
X122268099Y-114372871D02*
X122213187Y-114263046D01*
X122213187Y-114263046D02*
X122158274Y-114208133D01*
X122158274Y-114208133D02*
X122048449Y-114153221D01*
X122048449Y-114153221D02*
X121114939Y-114153221D01*
X122268099Y-113000061D02*
X122268099Y-113659010D01*
X122268099Y-113329536D02*
X121114939Y-113329536D01*
X121114939Y-113329536D02*
X121279676Y-113439360D01*
X121279676Y-113439360D02*
X121389501Y-113549185D01*
X121389501Y-113549185D02*
X121444413Y-113659010D01*
D29*
X125545750Y-115364791D02*
X125511690Y-115330731D01*
X125511690Y-115330731D02*
X125477630Y-115262610D01*
X125477630Y-115262610D02*
X125477630Y-115092309D01*
X125477630Y-115092309D02*
X125511690Y-115024189D01*
X125511690Y-115024189D02*
X125545750Y-114990129D01*
X125545750Y-114990129D02*
X125613870Y-114956068D01*
X125613870Y-114956068D02*
X125681991Y-114956068D01*
X125681991Y-114956068D02*
X125784171Y-114990129D01*
X125784171Y-114990129D02*
X126192894Y-115398851D01*
X126192894Y-115398851D02*
X126192894Y-114956068D01*
X126183494Y-117118068D02*
X126183494Y-117526791D01*
X126183494Y-117322430D02*
X125468230Y-117322430D01*
X125468230Y-117322430D02*
X125570410Y-117390550D01*
X125570410Y-117390550D02*
X125638531Y-117458670D01*
X125638531Y-117458670D02*
X125672591Y-117526791D01*
X118848651Y-111828589D02*
X119325494Y-111828589D01*
X118576170Y-111998890D02*
X119087072Y-112169191D01*
X119087072Y-112169191D02*
X119087072Y-111726408D01*
X125468230Y-113087451D02*
X125468230Y-112644668D01*
X125468230Y-112644668D02*
X125740711Y-112883090D01*
X125740711Y-112883090D02*
X125740711Y-112780909D01*
X125740711Y-112780909D02*
X125774771Y-112712789D01*
X125774771Y-112712789D02*
X125808832Y-112678729D01*
X125808832Y-112678729D02*
X125876952Y-112644668D01*
X125876952Y-112644668D02*
X126047253Y-112644668D01*
X126047253Y-112644668D02*
X126115373Y-112678729D01*
X126115373Y-112678729D02*
X126149434Y-112712789D01*
X126149434Y-112712789D02*
X126183494Y-112780909D01*
X126183494Y-112780909D02*
X126183494Y-112985270D01*
X126183494Y-112985270D02*
X126149434Y-113053391D01*
X126149434Y-113053391D02*
X126115373Y-113087451D01*
D28*
X144061364Y-87447070D02*
X144028223Y-87480211D01*
X144028223Y-87480211D02*
X143928800Y-87513351D01*
X143928800Y-87513351D02*
X143862518Y-87513351D01*
X143862518Y-87513351D02*
X143763095Y-87480211D01*
X143763095Y-87480211D02*
X143696813Y-87413929D01*
X143696813Y-87413929D02*
X143663672Y-87347647D01*
X143663672Y-87347647D02*
X143630531Y-87215083D01*
X143630531Y-87215083D02*
X143630531Y-87115660D01*
X143630531Y-87115660D02*
X143663672Y-86983096D01*
X143663672Y-86983096D02*
X143696813Y-86916814D01*
X143696813Y-86916814D02*
X143763095Y-86850532D01*
X143763095Y-86850532D02*
X143862518Y-86817391D01*
X143862518Y-86817391D02*
X143928800Y-86817391D01*
X143928800Y-86817391D02*
X144028223Y-86850532D01*
X144028223Y-86850532D02*
X144061364Y-86883673D01*
X144657901Y-87049378D02*
X144657901Y-87513351D01*
X144492196Y-86784251D02*
X144326491Y-87281365D01*
X144326491Y-87281365D02*
X144757324Y-87281365D01*
X118158863Y-105537783D02*
X118158863Y-105922170D01*
X118762899Y-105922170D02*
X117609739Y-105922170D01*
X117609739Y-105922170D02*
X117609739Y-105373046D01*
X118762899Y-104329710D02*
X118762899Y-104988659D01*
X118762899Y-104659185D02*
X117609739Y-104659185D01*
X117609739Y-104659185D02*
X117774476Y-104769009D01*
X117774476Y-104769009D02*
X117884301Y-104878834D01*
X117884301Y-104878834D02*
X117939213Y-104988659D01*
X144939478Y-100428574D02*
X144884566Y-100483487D01*
X144884566Y-100483487D02*
X144719828Y-100538399D01*
X144719828Y-100538399D02*
X144610004Y-100538399D01*
X144610004Y-100538399D02*
X144445267Y-100483487D01*
X144445267Y-100483487D02*
X144335442Y-100373662D01*
X144335442Y-100373662D02*
X144280529Y-100263837D01*
X144280529Y-100263837D02*
X144225617Y-100044187D01*
X144225617Y-100044187D02*
X144225617Y-99879450D01*
X144225617Y-99879450D02*
X144280529Y-99659801D01*
X144280529Y-99659801D02*
X144335442Y-99549976D01*
X144335442Y-99549976D02*
X144445267Y-99440151D01*
X144445267Y-99440151D02*
X144610004Y-99385239D01*
X144610004Y-99385239D02*
X144719828Y-99385239D01*
X144719828Y-99385239D02*
X144884566Y-99440151D01*
X144884566Y-99440151D02*
X144939478Y-99495064D01*
X145323865Y-99385239D02*
X146092638Y-99385239D01*
X146092638Y-99385239D02*
X145598427Y-100538399D01*
D27*
X139332270Y-90172013D02*
X138738394Y-90172013D01*
X138738394Y-90172013D02*
X138738394Y-88924873D01*
X139985534Y-88924873D02*
X140104309Y-88924873D01*
X140104309Y-88924873D02*
X140223085Y-88984261D01*
X140223085Y-88984261D02*
X140282472Y-89043648D01*
X140282472Y-89043648D02*
X140341860Y-89162424D01*
X140341860Y-89162424D02*
X140401247Y-89399974D01*
X140401247Y-89399974D02*
X140401247Y-89696912D01*
X140401247Y-89696912D02*
X140341860Y-89934463D01*
X140341860Y-89934463D02*
X140282472Y-90053238D01*
X140282472Y-90053238D02*
X140223085Y-90112626D01*
X140223085Y-90112626D02*
X140104309Y-90172013D01*
X140104309Y-90172013D02*
X139985534Y-90172013D01*
X139985534Y-90172013D02*
X139866759Y-90112626D01*
X139866759Y-90112626D02*
X139807371Y-90053238D01*
X139807371Y-90053238D02*
X139747984Y-89934463D01*
X139747984Y-89934463D02*
X139688596Y-89696912D01*
X139688596Y-89696912D02*
X139688596Y-89399974D01*
X139688596Y-89399974D02*
X139747984Y-89162424D01*
X139747984Y-89162424D02*
X139807371Y-89043648D01*
X139807371Y-89043648D02*
X139866759Y-88984261D01*
X139866759Y-88984261D02*
X139985534Y-88924873D01*
D25*
X123540363Y-104462520D02*
X124200763Y-104462520D01*
X123870563Y-105618220D02*
X123870563Y-104462520D01*
X125191363Y-105618220D02*
X124530963Y-105618220D01*
X124861163Y-105618220D02*
X124861163Y-104462520D01*
X124861163Y-104462520D02*
X124751096Y-104627620D01*
X124751096Y-104627620D02*
X124641030Y-104737687D01*
X124641030Y-104737687D02*
X124530963Y-104792720D01*
D28*
X131123843Y-115908850D02*
X131156984Y-115941991D01*
X131156984Y-115941991D02*
X131190124Y-116041414D01*
X131190124Y-116041414D02*
X131190124Y-116107696D01*
X131190124Y-116107696D02*
X131156984Y-116207119D01*
X131156984Y-116207119D02*
X131090702Y-116273401D01*
X131090702Y-116273401D02*
X131024420Y-116306542D01*
X131024420Y-116306542D02*
X130891856Y-116339683D01*
X130891856Y-116339683D02*
X130792433Y-116339683D01*
X130792433Y-116339683D02*
X130659869Y-116306542D01*
X130659869Y-116306542D02*
X130593587Y-116273401D01*
X130593587Y-116273401D02*
X130527305Y-116207119D01*
X130527305Y-116207119D02*
X130494164Y-116107696D01*
X130494164Y-116107696D02*
X130494164Y-116041414D01*
X130494164Y-116041414D02*
X130527305Y-115941991D01*
X130527305Y-115941991D02*
X130560446Y-115908850D01*
X131190124Y-115246031D02*
X131190124Y-115643723D01*
X131190124Y-115444877D02*
X130494164Y-115444877D01*
X130494164Y-115444877D02*
X130593587Y-115511159D01*
X130593587Y-115511159D02*
X130659869Y-115577441D01*
X130659869Y-115577441D02*
X130693010Y-115643723D01*
X133495429Y-95627439D02*
X133495429Y-96560949D01*
X133495429Y-96560949D02*
X133550342Y-96670774D01*
X133550342Y-96670774D02*
X133605254Y-96725687D01*
X133605254Y-96725687D02*
X133715079Y-96780599D01*
X133715079Y-96780599D02*
X133934728Y-96780599D01*
X133934728Y-96780599D02*
X134044553Y-96725687D01*
X134044553Y-96725687D02*
X134099466Y-96670774D01*
X134099466Y-96670774D02*
X134154378Y-96560949D01*
X134154378Y-96560949D02*
X134154378Y-95627439D01*
X134593677Y-95627439D02*
X135307538Y-95627439D01*
X135307538Y-95627439D02*
X134923151Y-96066738D01*
X134923151Y-96066738D02*
X135087888Y-96066738D01*
X135087888Y-96066738D02*
X135197713Y-96121650D01*
X135197713Y-96121650D02*
X135252625Y-96176563D01*
X135252625Y-96176563D02*
X135307538Y-96286387D01*
X135307538Y-96286387D02*
X135307538Y-96560949D01*
X135307538Y-96560949D02*
X135252625Y-96670774D01*
X135252625Y-96670774D02*
X135197713Y-96725687D01*
X135197713Y-96725687D02*
X135087888Y-96780599D01*
X135087888Y-96780599D02*
X134758414Y-96780599D01*
X134758414Y-96780599D02*
X134648589Y-96725687D01*
X134648589Y-96725687D02*
X134593677Y-96670774D01*
D30*
X132055205Y-99490087D02*
X132055205Y-99917388D01*
X132055205Y-99703738D02*
X131307429Y-99703738D01*
X131307429Y-99703738D02*
X131414254Y-99774954D01*
X131414254Y-99774954D02*
X131485471Y-99846171D01*
X131485471Y-99846171D02*
X131521079Y-99917388D01*
D28*
X144812478Y-102206574D02*
X144757566Y-102261487D01*
X144757566Y-102261487D02*
X144592828Y-102316399D01*
X144592828Y-102316399D02*
X144483004Y-102316399D01*
X144483004Y-102316399D02*
X144318267Y-102261487D01*
X144318267Y-102261487D02*
X144208442Y-102151662D01*
X144208442Y-102151662D02*
X144153529Y-102041837D01*
X144153529Y-102041837D02*
X144098617Y-101822187D01*
X144098617Y-101822187D02*
X144098617Y-101657450D01*
X144098617Y-101657450D02*
X144153529Y-101437801D01*
X144153529Y-101437801D02*
X144208442Y-101327976D01*
X144208442Y-101327976D02*
X144318267Y-101218151D01*
X144318267Y-101218151D02*
X144483004Y-101163239D01*
X144483004Y-101163239D02*
X144592828Y-101163239D01*
X144592828Y-101163239D02*
X144757566Y-101218151D01*
X144757566Y-101218151D02*
X144812478Y-101273064D01*
X145855813Y-101163239D02*
X145306689Y-101163239D01*
X145306689Y-101163239D02*
X145251777Y-101712363D01*
X145251777Y-101712363D02*
X145306689Y-101657450D01*
X145306689Y-101657450D02*
X145416514Y-101602538D01*
X145416514Y-101602538D02*
X145691076Y-101602538D01*
X145691076Y-101602538D02*
X145800901Y-101657450D01*
X145800901Y-101657450D02*
X145855813Y-101712363D01*
X145855813Y-101712363D02*
X145910726Y-101822187D01*
X145910726Y-101822187D02*
X145910726Y-102096749D01*
X145910726Y-102096749D02*
X145855813Y-102206574D01*
X145855813Y-102206574D02*
X145800901Y-102261487D01*
X145800901Y-102261487D02*
X145691076Y-102316399D01*
X145691076Y-102316399D02*
X145416514Y-102316399D01*
X145416514Y-102316399D02*
X145306689Y-102261487D01*
X145306689Y-102261487D02*
X145251777Y-102206574D01*
D25*
X130430002Y-86015389D02*
X130430002Y-84859689D01*
X131640735Y-85905322D02*
X131585702Y-85960356D01*
X131585702Y-85960356D02*
X131420602Y-86015389D01*
X131420602Y-86015389D02*
X131310535Y-86015389D01*
X131310535Y-86015389D02*
X131145435Y-85960356D01*
X131145435Y-85960356D02*
X131035369Y-85850289D01*
X131035369Y-85850289D02*
X130980335Y-85740222D01*
X130980335Y-85740222D02*
X130925302Y-85520089D01*
X130925302Y-85520089D02*
X130925302Y-85354989D01*
X130925302Y-85354989D02*
X130980335Y-85134856D01*
X130980335Y-85134856D02*
X131035369Y-85024789D01*
X131035369Y-85024789D02*
X131145435Y-84914722D01*
X131145435Y-84914722D02*
X131310535Y-84859689D01*
X131310535Y-84859689D02*
X131420602Y-84859689D01*
X131420602Y-84859689D02*
X131585702Y-84914722D01*
X131585702Y-84914722D02*
X131640735Y-84969756D01*
X132081002Y-85960356D02*
X132246102Y-86015389D01*
X132246102Y-86015389D02*
X132521269Y-86015389D01*
X132521269Y-86015389D02*
X132631335Y-85960356D01*
X132631335Y-85960356D02*
X132686369Y-85905322D01*
X132686369Y-85905322D02*
X132741402Y-85795256D01*
X132741402Y-85795256D02*
X132741402Y-85685189D01*
X132741402Y-85685189D02*
X132686369Y-85575122D01*
X132686369Y-85575122D02*
X132631335Y-85520089D01*
X132631335Y-85520089D02*
X132521269Y-85465056D01*
X132521269Y-85465056D02*
X132301135Y-85410022D01*
X132301135Y-85410022D02*
X132191069Y-85354989D01*
X132191069Y-85354989D02*
X132136035Y-85299956D01*
X132136035Y-85299956D02*
X132081002Y-85189889D01*
X132081002Y-85189889D02*
X132081002Y-85079822D01*
X132081002Y-85079822D02*
X132136035Y-84969756D01*
X132136035Y-84969756D02*
X132191069Y-84914722D01*
X132191069Y-84914722D02*
X132301135Y-84859689D01*
X132301135Y-84859689D02*
X132576302Y-84859689D01*
X132576302Y-84859689D02*
X132741402Y-84914722D01*
X133236702Y-86015389D02*
X133236702Y-84859689D01*
X133236702Y-84859689D02*
X133676969Y-84859689D01*
X133676969Y-84859689D02*
X133787036Y-84914722D01*
X133787036Y-84914722D02*
X133842069Y-84969756D01*
X133842069Y-84969756D02*
X133897102Y-85079822D01*
X133897102Y-85079822D02*
X133897102Y-85244922D01*
X133897102Y-85244922D02*
X133842069Y-85354989D01*
X133842069Y-85354989D02*
X133787036Y-85410022D01*
X133787036Y-85410022D02*
X133676969Y-85465056D01*
X133676969Y-85465056D02*
X133236702Y-85465056D01*
X134997769Y-86015389D02*
X134337369Y-86015389D01*
X134667569Y-86015389D02*
X134667569Y-84859689D01*
X134667569Y-84859689D02*
X134557502Y-85024789D01*
X134557502Y-85024789D02*
X134447436Y-85134856D01*
X134447436Y-85134856D02*
X134337369Y-85189889D01*
D26*
X126464355Y-90872379D02*
X126943907Y-90872379D01*
X126943907Y-90872379D02*
X126464355Y-91591707D01*
X126464355Y-91591707D02*
X126943907Y-91591707D01*
X127594727Y-91591707D02*
X127183682Y-91591707D01*
X127389205Y-91591707D02*
X127389205Y-90872379D01*
X127389205Y-90872379D02*
X127320697Y-90975140D01*
X127320697Y-90975140D02*
X127252190Y-91043648D01*
X127252190Y-91043648D02*
X127183682Y-91077902D01*
X128242355Y-97984379D02*
X128721907Y-97984379D01*
X128721907Y-97984379D02*
X128242355Y-98703707D01*
X128242355Y-98703707D02*
X128721907Y-98703707D01*
X128961682Y-98052887D02*
X128995936Y-98018633D01*
X128995936Y-98018633D02*
X129064444Y-97984379D01*
X129064444Y-97984379D02*
X129235712Y-97984379D01*
X129235712Y-97984379D02*
X129304220Y-98018633D01*
X129304220Y-98018633D02*
X129338473Y-98052887D01*
X129338473Y-98052887D02*
X129372727Y-98121394D01*
X129372727Y-98121394D02*
X129372727Y-98189902D01*
X129372727Y-98189902D02*
X129338473Y-98292663D01*
X129338473Y-98292663D02*
X128927429Y-98703707D01*
X128927429Y-98703707D02*
X129372727Y-98703707D01*
D31*
X119687079Y-87135623D02*
X119109023Y-87135623D01*
X119109023Y-87135623D02*
X119109023Y-85921706D01*
X120727580Y-87135623D02*
X120033913Y-87135623D01*
X120380746Y-87135623D02*
X120380746Y-85921706D01*
X120380746Y-85921706D02*
X120265135Y-86095123D01*
X120265135Y-86095123D02*
X120149524Y-86210734D01*
X120149524Y-86210734D02*
X120033913Y-86268540D01*
D32*
X145188773Y-104535773D02*
X144974989Y-104230368D01*
X144822287Y-104535773D02*
X144822287Y-103894423D01*
X144822287Y-103894423D02*
X145066611Y-103894423D01*
X145066611Y-103894423D02*
X145127692Y-103924963D01*
X145127692Y-103924963D02*
X145158232Y-103955504D01*
X145158232Y-103955504D02*
X145188773Y-104016585D01*
X145188773Y-104016585D02*
X145188773Y-104108206D01*
X145188773Y-104108206D02*
X145158232Y-104169287D01*
X145158232Y-104169287D02*
X145127692Y-104199828D01*
X145127692Y-104199828D02*
X145066611Y-104230368D01*
X145066611Y-104230368D02*
X144822287Y-104230368D01*
X145463637Y-104199828D02*
X145677420Y-104199828D01*
X145769042Y-104535773D02*
X145463637Y-104535773D01*
X145463637Y-104535773D02*
X145463637Y-103894423D01*
X145463637Y-103894423D02*
X145769042Y-103894423D01*
X146013365Y-104505233D02*
X146104987Y-104535773D01*
X146104987Y-104535773D02*
X146257689Y-104535773D01*
X146257689Y-104535773D02*
X146318770Y-104505233D01*
X146318770Y-104505233D02*
X146349311Y-104474692D01*
X146349311Y-104474692D02*
X146379851Y-104413611D01*
X146379851Y-104413611D02*
X146379851Y-104352530D01*
X146379851Y-104352530D02*
X146349311Y-104291449D01*
X146349311Y-104291449D02*
X146318770Y-104260909D01*
X146318770Y-104260909D02*
X146257689Y-104230368D01*
X146257689Y-104230368D02*
X146135527Y-104199828D01*
X146135527Y-104199828D02*
X146074446Y-104169287D01*
X146074446Y-104169287D02*
X146043906Y-104138747D01*
X146043906Y-104138747D02*
X146013365Y-104077666D01*
X146013365Y-104077666D02*
X146013365Y-104016585D01*
X146013365Y-104016585D02*
X146043906Y-103955504D01*
X146043906Y-103955504D02*
X146074446Y-103924963D01*
X146074446Y-103924963D02*
X146135527Y-103894423D01*
X146135527Y-103894423D02*
X146288230Y-103894423D01*
X146288230Y-103894423D02*
X146379851Y-103924963D01*
X146654716Y-104199828D02*
X146868499Y-104199828D01*
X146960121Y-104535773D02*
X146654716Y-104535773D01*
X146654716Y-104535773D02*
X146654716Y-103894423D01*
X146654716Y-103894423D02*
X146960121Y-103894423D01*
X147143363Y-103894423D02*
X147509849Y-103894423D01*
X147326606Y-104535773D02*
X147326606Y-103894423D01*
X147723633Y-104291449D02*
X148212281Y-104291449D01*
X148517685Y-104199828D02*
X148731468Y-104199828D01*
X148823090Y-104535773D02*
X148517685Y-104535773D01*
X148517685Y-104535773D02*
X148517685Y-103894423D01*
X148517685Y-103894423D02*
X148823090Y-103894423D01*
X149097954Y-104535773D02*
X149097954Y-103894423D01*
X149097954Y-103894423D02*
X149464440Y-104535773D01*
X149464440Y-104535773D02*
X149464440Y-103894423D01*
X149892006Y-103894423D02*
X149953087Y-103894423D01*
X149953087Y-103894423D02*
X150014168Y-103924963D01*
X150014168Y-103924963D02*
X150044708Y-103955504D01*
X150044708Y-103955504D02*
X150075249Y-104016585D01*
X150075249Y-104016585D02*
X150105789Y-104138747D01*
X150105789Y-104138747D02*
X150105789Y-104291449D01*
X150105789Y-104291449D02*
X150075249Y-104413611D01*
X150075249Y-104413611D02*
X150044708Y-104474692D01*
X150044708Y-104474692D02*
X150014168Y-104505233D01*
X150014168Y-104505233D02*
X149953087Y-104535773D01*
X149953087Y-104535773D02*
X149892006Y-104535773D01*
X149892006Y-104535773D02*
X149830925Y-104505233D01*
X149830925Y-104505233D02*
X149800384Y-104474692D01*
X149800384Y-104474692D02*
X149769844Y-104413611D01*
X149769844Y-104413611D02*
X149739303Y-104291449D01*
X149739303Y-104291449D02*
X149739303Y-104138747D01*
X149739303Y-104138747D02*
X149769844Y-104016585D01*
X149769844Y-104016585D02*
X149800384Y-103955504D01*
X149800384Y-103955504D02*
X149830925Y-103924963D01*
X149830925Y-103924963D02*
X149892006Y-103894423D01*
D28*
X152567334Y-109761596D02*
X152182947Y-109212472D01*
X151908385Y-109761596D02*
X151908385Y-108608436D01*
X151908385Y-108608436D02*
X152347684Y-108608436D01*
X152347684Y-108608436D02*
X152457509Y-108663348D01*
X152457509Y-108663348D02*
X152512422Y-108718261D01*
X152512422Y-108718261D02*
X152567334Y-108828085D01*
X152567334Y-108828085D02*
X152567334Y-108992823D01*
X152567334Y-108992823D02*
X152512422Y-109102647D01*
X152512422Y-109102647D02*
X152457509Y-109157560D01*
X152457509Y-109157560D02*
X152347684Y-109212472D01*
X152347684Y-109212472D02*
X151908385Y-109212472D01*
X153006633Y-108718261D02*
X153061545Y-108663348D01*
X153061545Y-108663348D02*
X153171370Y-108608436D01*
X153171370Y-108608436D02*
X153445932Y-108608436D01*
X153445932Y-108608436D02*
X153555757Y-108663348D01*
X153555757Y-108663348D02*
X153610669Y-108718261D01*
X153610669Y-108718261D02*
X153665582Y-108828085D01*
X153665582Y-108828085D02*
X153665582Y-108937910D01*
X153665582Y-108937910D02*
X153610669Y-109102647D01*
X153610669Y-109102647D02*
X152951721Y-109761596D01*
X152951721Y-109761596D02*
X153665582Y-109761596D01*
D25*
X142495917Y-92765844D02*
X142163298Y-92998677D01*
X142495917Y-93164987D02*
X141797417Y-93164987D01*
X141797417Y-93164987D02*
X141797417Y-92898892D01*
X141797417Y-92898892D02*
X141830679Y-92832368D01*
X141830679Y-92832368D02*
X141863941Y-92799106D01*
X141863941Y-92799106D02*
X141930465Y-92765844D01*
X141930465Y-92765844D02*
X142030251Y-92765844D01*
X142030251Y-92765844D02*
X142096775Y-92799106D01*
X142096775Y-92799106D02*
X142130036Y-92832368D01*
X142130036Y-92832368D02*
X142163298Y-92898892D01*
X142163298Y-92898892D02*
X142163298Y-93164987D01*
X142495917Y-92466487D02*
X141797417Y-92466487D01*
X141797417Y-92466487D02*
X142495917Y-92067344D01*
X142495917Y-92067344D02*
X141797417Y-92067344D01*
X141863941Y-91767987D02*
X141830679Y-91734725D01*
X141830679Y-91734725D02*
X141797417Y-91668201D01*
X141797417Y-91668201D02*
X141797417Y-91501892D01*
X141797417Y-91501892D02*
X141830679Y-91435368D01*
X141830679Y-91435368D02*
X141863941Y-91402106D01*
X141863941Y-91402106D02*
X141930465Y-91368844D01*
X141930465Y-91368844D02*
X141996989Y-91368844D01*
X141996989Y-91368844D02*
X142096775Y-91402106D01*
X142096775Y-91402106D02*
X142495917Y-91801249D01*
X142495917Y-91801249D02*
X142495917Y-91368844D01*
X142440672Y-108299950D02*
X142108053Y-108532783D01*
X142440672Y-108699093D02*
X141742172Y-108699093D01*
X141742172Y-108699093D02*
X141742172Y-108432998D01*
X141742172Y-108432998D02*
X141775434Y-108366474D01*
X141775434Y-108366474D02*
X141808696Y-108333212D01*
X141808696Y-108333212D02*
X141875220Y-108299950D01*
X141875220Y-108299950D02*
X141975006Y-108299950D01*
X141975006Y-108299950D02*
X142041530Y-108333212D01*
X142041530Y-108333212D02*
X142074791Y-108366474D01*
X142074791Y-108366474D02*
X142108053Y-108432998D01*
X142108053Y-108432998D02*
X142108053Y-108699093D01*
X142440672Y-108000593D02*
X141742172Y-108000593D01*
X141742172Y-108000593D02*
X142440672Y-107601450D01*
X142440672Y-107601450D02*
X141742172Y-107601450D01*
X142440672Y-106902950D02*
X142440672Y-107302093D01*
X142440672Y-107102521D02*
X141742172Y-107102521D01*
X141742172Y-107102521D02*
X141841958Y-107169045D01*
X141841958Y-107169045D02*
X141908482Y-107235569D01*
X141908482Y-107235569D02*
X141941744Y-107302093D01*
D28*
X162211478Y-107921574D02*
X162156566Y-107976487D01*
X162156566Y-107976487D02*
X161991828Y-108031399D01*
X161991828Y-108031399D02*
X161882004Y-108031399D01*
X161882004Y-108031399D02*
X161717267Y-107976487D01*
X161717267Y-107976487D02*
X161607442Y-107866662D01*
X161607442Y-107866662D02*
X161552529Y-107756837D01*
X161552529Y-107756837D02*
X161497617Y-107537187D01*
X161497617Y-107537187D02*
X161497617Y-107372450D01*
X161497617Y-107372450D02*
X161552529Y-107152801D01*
X161552529Y-107152801D02*
X161607442Y-107042976D01*
X161607442Y-107042976D02*
X161717267Y-106933151D01*
X161717267Y-106933151D02*
X161882004Y-106878239D01*
X161882004Y-106878239D02*
X161991828Y-106878239D01*
X161991828Y-106878239D02*
X162156566Y-106933151D01*
X162156566Y-106933151D02*
X162211478Y-106988064D01*
X163199901Y-106878239D02*
X162980251Y-106878239D01*
X162980251Y-106878239D02*
X162870427Y-106933151D01*
X162870427Y-106933151D02*
X162815514Y-106988064D01*
X162815514Y-106988064D02*
X162705689Y-107152801D01*
X162705689Y-107152801D02*
X162650777Y-107372450D01*
X162650777Y-107372450D02*
X162650777Y-107811749D01*
X162650777Y-107811749D02*
X162705689Y-107921574D01*
X162705689Y-107921574D02*
X162760602Y-107976487D01*
X162760602Y-107976487D02*
X162870427Y-108031399D01*
X162870427Y-108031399D02*
X163090076Y-108031399D01*
X163090076Y-108031399D02*
X163199901Y-107976487D01*
X163199901Y-107976487D02*
X163254813Y-107921574D01*
X163254813Y-107921574D02*
X163309726Y-107811749D01*
X163309726Y-107811749D02*
X163309726Y-107537187D01*
X163309726Y-107537187D02*
X163254813Y-107427363D01*
X163254813Y-107427363D02*
X163199901Y-107372450D01*
X163199901Y-107372450D02*
X163090076Y-107317538D01*
X163090076Y-107317538D02*
X162870427Y-107317538D01*
X162870427Y-107317538D02*
X162760602Y-107372450D01*
X162760602Y-107372450D02*
X162705689Y-107427363D01*
X162705689Y-107427363D02*
X162650777Y-107537187D01*
X126789364Y-88844070D02*
X126756223Y-88877211D01*
X126756223Y-88877211D02*
X126656800Y-88910351D01*
X126656800Y-88910351D02*
X126590518Y-88910351D01*
X126590518Y-88910351D02*
X126491095Y-88877211D01*
X126491095Y-88877211D02*
X126424813Y-88810929D01*
X126424813Y-88810929D02*
X126391672Y-88744647D01*
X126391672Y-88744647D02*
X126358531Y-88612083D01*
X126358531Y-88612083D02*
X126358531Y-88512660D01*
X126358531Y-88512660D02*
X126391672Y-88380096D01*
X126391672Y-88380096D02*
X126424813Y-88313814D01*
X126424813Y-88313814D02*
X126491095Y-88247532D01*
X126491095Y-88247532D02*
X126590518Y-88214391D01*
X126590518Y-88214391D02*
X126656800Y-88214391D01*
X126656800Y-88214391D02*
X126756223Y-88247532D01*
X126756223Y-88247532D02*
X126789364Y-88280673D01*
X127187055Y-88512660D02*
X127120773Y-88479519D01*
X127120773Y-88479519D02*
X127087632Y-88446378D01*
X127087632Y-88446378D02*
X127054491Y-88380096D01*
X127054491Y-88380096D02*
X127054491Y-88346955D01*
X127054491Y-88346955D02*
X127087632Y-88280673D01*
X127087632Y-88280673D02*
X127120773Y-88247532D01*
X127120773Y-88247532D02*
X127187055Y-88214391D01*
X127187055Y-88214391D02*
X127319619Y-88214391D01*
X127319619Y-88214391D02*
X127385901Y-88247532D01*
X127385901Y-88247532D02*
X127419042Y-88280673D01*
X127419042Y-88280673D02*
X127452183Y-88346955D01*
X127452183Y-88346955D02*
X127452183Y-88380096D01*
X127452183Y-88380096D02*
X127419042Y-88446378D01*
X127419042Y-88446378D02*
X127385901Y-88479519D01*
X127385901Y-88479519D02*
X127319619Y-88512660D01*
X127319619Y-88512660D02*
X127187055Y-88512660D01*
X127187055Y-88512660D02*
X127120773Y-88545801D01*
X127120773Y-88545801D02*
X127087632Y-88578942D01*
X127087632Y-88578942D02*
X127054491Y-88645224D01*
X127054491Y-88645224D02*
X127054491Y-88777788D01*
X127054491Y-88777788D02*
X127087632Y-88844070D01*
X127087632Y-88844070D02*
X127120773Y-88877211D01*
X127120773Y-88877211D02*
X127187055Y-88910351D01*
X127187055Y-88910351D02*
X127319619Y-88910351D01*
X127319619Y-88910351D02*
X127385901Y-88877211D01*
X127385901Y-88877211D02*
X127419042Y-88844070D01*
X127419042Y-88844070D02*
X127452183Y-88777788D01*
X127452183Y-88777788D02*
X127452183Y-88645224D01*
X127452183Y-88645224D02*
X127419042Y-88578942D01*
X127419042Y-88578942D02*
X127385901Y-88545801D01*
X127385901Y-88545801D02*
X127319619Y-88512660D01*
D25*
X175023720Y-98531836D02*
X174473387Y-98917069D01*
X175023720Y-99192236D02*
X173868020Y-99192236D01*
X173868020Y-99192236D02*
X173868020Y-98751969D01*
X173868020Y-98751969D02*
X173923053Y-98641903D01*
X173923053Y-98641903D02*
X173978087Y-98586869D01*
X173978087Y-98586869D02*
X174088153Y-98531836D01*
X174088153Y-98531836D02*
X174253253Y-98531836D01*
X174253253Y-98531836D02*
X174363320Y-98586869D01*
X174363320Y-98586869D02*
X174418353Y-98641903D01*
X174418353Y-98641903D02*
X174473387Y-98751969D01*
X174473387Y-98751969D02*
X174473387Y-99192236D01*
X175023720Y-98036536D02*
X173868020Y-98036536D01*
X173868020Y-98036536D02*
X175023720Y-97376136D01*
X175023720Y-97376136D02*
X173868020Y-97376136D01*
X174253253Y-96330503D02*
X175023720Y-96330503D01*
X173812987Y-96605670D02*
X174638487Y-96880836D01*
X174638487Y-96880836D02*
X174638487Y-96165403D01*
X127327672Y-95218950D02*
X126995053Y-95451783D01*
X127327672Y-95618093D02*
X126629172Y-95618093D01*
X126629172Y-95618093D02*
X126629172Y-95351998D01*
X126629172Y-95351998D02*
X126662434Y-95285474D01*
X126662434Y-95285474D02*
X126695696Y-95252212D01*
X126695696Y-95252212D02*
X126762220Y-95218950D01*
X126762220Y-95218950D02*
X126862006Y-95218950D01*
X126862006Y-95218950D02*
X126928530Y-95252212D01*
X126928530Y-95252212D02*
X126961791Y-95285474D01*
X126961791Y-95285474D02*
X126995053Y-95351998D01*
X126995053Y-95351998D02*
X126995053Y-95618093D01*
X127327672Y-94919593D02*
X126629172Y-94919593D01*
X126629172Y-94919593D02*
X127327672Y-94520450D01*
X127327672Y-94520450D02*
X126629172Y-94520450D01*
X126629172Y-94254355D02*
X126629172Y-93821950D01*
X126629172Y-93821950D02*
X126895268Y-94054783D01*
X126895268Y-94054783D02*
X126895268Y-93954998D01*
X126895268Y-93954998D02*
X126928530Y-93888474D01*
X126928530Y-93888474D02*
X126961791Y-93855212D01*
X126961791Y-93855212D02*
X127028315Y-93821950D01*
X127028315Y-93821950D02*
X127194625Y-93821950D01*
X127194625Y-93821950D02*
X127261149Y-93855212D01*
X127261149Y-93855212D02*
X127294411Y-93888474D01*
X127294411Y-93888474D02*
X127327672Y-93954998D01*
X127327672Y-93954998D02*
X127327672Y-94154569D01*
X127327672Y-94154569D02*
X127294411Y-94221093D01*
X127294411Y-94221093D02*
X127261149Y-94254355D01*
D28*
X141104570Y-116174335D02*
X141137711Y-116207476D01*
X141137711Y-116207476D02*
X141170851Y-116306899D01*
X141170851Y-116306899D02*
X141170851Y-116373181D01*
X141170851Y-116373181D02*
X141137711Y-116472604D01*
X141137711Y-116472604D02*
X141071429Y-116538886D01*
X141071429Y-116538886D02*
X141005147Y-116572027D01*
X141005147Y-116572027D02*
X140872583Y-116605168D01*
X140872583Y-116605168D02*
X140773160Y-116605168D01*
X140773160Y-116605168D02*
X140640596Y-116572027D01*
X140640596Y-116572027D02*
X140574314Y-116538886D01*
X140574314Y-116538886D02*
X140508032Y-116472604D01*
X140508032Y-116472604D02*
X140474891Y-116373181D01*
X140474891Y-116373181D02*
X140474891Y-116306899D01*
X140474891Y-116306899D02*
X140508032Y-116207476D01*
X140508032Y-116207476D02*
X140541173Y-116174335D01*
X140474891Y-115942349D02*
X140474891Y-115511516D01*
X140474891Y-115511516D02*
X140740019Y-115743503D01*
X140740019Y-115743503D02*
X140740019Y-115644080D01*
X140740019Y-115644080D02*
X140773160Y-115577798D01*
X140773160Y-115577798D02*
X140806301Y-115544657D01*
X140806301Y-115544657D02*
X140872583Y-115511516D01*
X140872583Y-115511516D02*
X141038288Y-115511516D01*
X141038288Y-115511516D02*
X141104570Y-115544657D01*
X141104570Y-115544657D02*
X141137711Y-115577798D01*
X141137711Y-115577798D02*
X141170851Y-115644080D01*
X141170851Y-115644080D02*
X141170851Y-115842926D01*
X141170851Y-115842926D02*
X141137711Y-115909208D01*
X141137711Y-115909208D02*
X141104570Y-115942349D01*
X132661851Y-100680335D02*
X132330442Y-100912322D01*
X132661851Y-101078027D02*
X131965891Y-101078027D01*
X131965891Y-101078027D02*
X131965891Y-100812899D01*
X131965891Y-100812899D02*
X131999032Y-100746617D01*
X131999032Y-100746617D02*
X132032173Y-100713476D01*
X132032173Y-100713476D02*
X132098455Y-100680335D01*
X132098455Y-100680335D02*
X132197878Y-100680335D01*
X132197878Y-100680335D02*
X132264160Y-100713476D01*
X132264160Y-100713476D02*
X132297301Y-100746617D01*
X132297301Y-100746617D02*
X132330442Y-100812899D01*
X132330442Y-100812899D02*
X132330442Y-101078027D01*
X132661851Y-100017516D02*
X132661851Y-100415208D01*
X132661851Y-100216362D02*
X131965891Y-100216362D01*
X131965891Y-100216362D02*
X132065314Y-100282644D01*
X132065314Y-100282644D02*
X132131596Y-100348926D01*
X132131596Y-100348926D02*
X132164737Y-100415208D01*
D26*
X130345517Y-100857813D02*
X130311263Y-100892067D01*
X130311263Y-100892067D02*
X130208502Y-100926320D01*
X130208502Y-100926320D02*
X130139994Y-100926320D01*
X130139994Y-100926320D02*
X130037233Y-100892067D01*
X130037233Y-100892067D02*
X129968726Y-100823559D01*
X129968726Y-100823559D02*
X129934472Y-100755052D01*
X129934472Y-100755052D02*
X129900218Y-100618037D01*
X129900218Y-100618037D02*
X129900218Y-100515276D01*
X129900218Y-100515276D02*
X129934472Y-100378261D01*
X129934472Y-100378261D02*
X129968726Y-100309753D01*
X129968726Y-100309753D02*
X130037233Y-100241246D01*
X130037233Y-100241246D02*
X130139994Y-100206992D01*
X130139994Y-100206992D02*
X130208502Y-100206992D01*
X130208502Y-100206992D02*
X130311263Y-100241246D01*
X130311263Y-100241246D02*
X130345517Y-100275500D01*
X130688054Y-100926320D02*
X130825069Y-100926320D01*
X130825069Y-100926320D02*
X130893576Y-100892067D01*
X130893576Y-100892067D02*
X130927830Y-100857813D01*
X130927830Y-100857813D02*
X130996337Y-100755052D01*
X130996337Y-100755052D02*
X131030591Y-100618037D01*
X131030591Y-100618037D02*
X131030591Y-100344007D01*
X131030591Y-100344007D02*
X130996337Y-100275500D01*
X130996337Y-100275500D02*
X130962084Y-100241246D01*
X130962084Y-100241246D02*
X130893576Y-100206992D01*
X130893576Y-100206992D02*
X130756561Y-100206992D01*
X130756561Y-100206992D02*
X130688054Y-100241246D01*
X130688054Y-100241246D02*
X130653800Y-100275500D01*
X130653800Y-100275500D02*
X130619546Y-100344007D01*
X130619546Y-100344007D02*
X130619546Y-100515276D01*
X130619546Y-100515276D02*
X130653800Y-100583783D01*
X130653800Y-100583783D02*
X130688054Y-100618037D01*
X130688054Y-100618037D02*
X130756561Y-100652291D01*
X130756561Y-100652291D02*
X130893576Y-100652291D01*
X130893576Y-100652291D02*
X130962084Y-100618037D01*
X130962084Y-100618037D02*
X130996337Y-100583783D01*
X130996337Y-100583783D02*
X131030591Y-100515276D01*
X136063907Y-101032200D02*
X136029653Y-101066454D01*
X136029653Y-101066454D02*
X135926892Y-101100707D01*
X135926892Y-101100707D02*
X135858384Y-101100707D01*
X135858384Y-101100707D02*
X135755623Y-101066454D01*
X135755623Y-101066454D02*
X135687116Y-100997946D01*
X135687116Y-100997946D02*
X135652862Y-100929439D01*
X135652862Y-100929439D02*
X135618608Y-100792424D01*
X135618608Y-100792424D02*
X135618608Y-100689663D01*
X135618608Y-100689663D02*
X135652862Y-100552648D01*
X135652862Y-100552648D02*
X135687116Y-100484140D01*
X135687116Y-100484140D02*
X135755623Y-100415633D01*
X135755623Y-100415633D02*
X135858384Y-100381379D01*
X135858384Y-100381379D02*
X135926892Y-100381379D01*
X135926892Y-100381379D02*
X136029653Y-100415633D01*
X136029653Y-100415633D02*
X136063907Y-100449887D01*
X136748981Y-101100707D02*
X136337936Y-101100707D01*
X136543459Y-101100707D02*
X136543459Y-100381379D01*
X136543459Y-100381379D02*
X136474951Y-100484140D01*
X136474951Y-100484140D02*
X136406444Y-100552648D01*
X136406444Y-100552648D02*
X136337936Y-100586902D01*
X137434055Y-101100707D02*
X137023010Y-101100707D01*
X137228533Y-101100707D02*
X137228533Y-100381379D01*
X137228533Y-100381379D02*
X137160025Y-100484140D01*
X137160025Y-100484140D02*
X137091518Y-100552648D01*
X137091518Y-100552648D02*
X137023010Y-100586902D01*
D25*
X129418020Y-91242036D02*
X130243520Y-91242036D01*
X130243520Y-91242036D02*
X130408620Y-91297069D01*
X130408620Y-91297069D02*
X130518687Y-91407136D01*
X130518687Y-91407136D02*
X130573720Y-91572236D01*
X130573720Y-91572236D02*
X130573720Y-91682303D01*
X130573720Y-90691703D02*
X129418020Y-90691703D01*
X129418020Y-90691703D02*
X129418020Y-90251436D01*
X129418020Y-90251436D02*
X129473053Y-90141370D01*
X129473053Y-90141370D02*
X129528087Y-90086336D01*
X129528087Y-90086336D02*
X129638153Y-90031303D01*
X129638153Y-90031303D02*
X129803253Y-90031303D01*
X129803253Y-90031303D02*
X129913320Y-90086336D01*
X129913320Y-90086336D02*
X129968353Y-90141370D01*
X129968353Y-90141370D02*
X130023387Y-90251436D01*
X130023387Y-90251436D02*
X130023387Y-90691703D01*
X129528087Y-89591036D02*
X129473053Y-89536003D01*
X129473053Y-89536003D02*
X129418020Y-89425936D01*
X129418020Y-89425936D02*
X129418020Y-89150770D01*
X129418020Y-89150770D02*
X129473053Y-89040703D01*
X129473053Y-89040703D02*
X129528087Y-88985670D01*
X129528087Y-88985670D02*
X129638153Y-88930636D01*
X129638153Y-88930636D02*
X129748220Y-88930636D01*
X129748220Y-88930636D02*
X129913320Y-88985670D01*
X129913320Y-88985670D02*
X130573720Y-89646070D01*
X130573720Y-89646070D02*
X130573720Y-88930636D01*
X132292669Y-110513689D02*
X132292669Y-111449256D01*
X132292669Y-111449256D02*
X132347703Y-111559322D01*
X132347703Y-111559322D02*
X132402736Y-111614356D01*
X132402736Y-111614356D02*
X132512803Y-111669389D01*
X132512803Y-111669389D02*
X132732936Y-111669389D01*
X132732936Y-111669389D02*
X132843003Y-111614356D01*
X132843003Y-111614356D02*
X132898036Y-111559322D01*
X132898036Y-111559322D02*
X132953069Y-111449256D01*
X132953069Y-111449256D02*
X132953069Y-110513689D01*
X134053736Y-110513689D02*
X133503402Y-110513689D01*
X133503402Y-110513689D02*
X133448369Y-111064022D01*
X133448369Y-111064022D02*
X133503402Y-111008989D01*
X133503402Y-111008989D02*
X133613469Y-110953956D01*
X133613469Y-110953956D02*
X133888636Y-110953956D01*
X133888636Y-110953956D02*
X133998702Y-111008989D01*
X133998702Y-111008989D02*
X134053736Y-111064022D01*
X134053736Y-111064022D02*
X134108769Y-111174089D01*
X134108769Y-111174089D02*
X134108769Y-111449256D01*
X134108769Y-111449256D02*
X134053736Y-111559322D01*
X134053736Y-111559322D02*
X133998702Y-111614356D01*
X133998702Y-111614356D02*
X133888636Y-111669389D01*
X133888636Y-111669389D02*
X133613469Y-111669389D01*
X133613469Y-111669389D02*
X133503402Y-111614356D01*
X133503402Y-111614356D02*
X133448369Y-111559322D01*
D26*
X118575021Y-85859755D02*
X118182845Y-85299503D01*
X117902719Y-85859755D02*
X117902719Y-84683227D01*
X117902719Y-84683227D02*
X118350920Y-84683227D01*
X118350920Y-84683227D02*
X118462971Y-84739252D01*
X118462971Y-84739252D02*
X118518996Y-84795277D01*
X118518996Y-84795277D02*
X118575021Y-84907327D01*
X118575021Y-84907327D02*
X118575021Y-85075403D01*
X118575021Y-85075403D02*
X118518996Y-85187453D01*
X118518996Y-85187453D02*
X118462971Y-85243478D01*
X118462971Y-85243478D02*
X118350920Y-85299503D01*
X118350920Y-85299503D02*
X117902719Y-85299503D01*
X119079247Y-85243478D02*
X119471423Y-85243478D01*
X119639499Y-85859755D02*
X119079247Y-85859755D01*
X119079247Y-85859755D02*
X119079247Y-84683227D01*
X119079247Y-84683227D02*
X119639499Y-84683227D01*
X120087700Y-85803730D02*
X120255776Y-85859755D01*
X120255776Y-85859755D02*
X120535901Y-85859755D01*
X120535901Y-85859755D02*
X120647952Y-85803730D01*
X120647952Y-85803730D02*
X120703977Y-85747704D01*
X120703977Y-85747704D02*
X120760002Y-85635654D01*
X120760002Y-85635654D02*
X120760002Y-85523604D01*
X120760002Y-85523604D02*
X120703977Y-85411554D01*
X120703977Y-85411554D02*
X120647952Y-85355528D01*
X120647952Y-85355528D02*
X120535901Y-85299503D01*
X120535901Y-85299503D02*
X120311801Y-85243478D01*
X120311801Y-85243478D02*
X120199750Y-85187453D01*
X120199750Y-85187453D02*
X120143725Y-85131428D01*
X120143725Y-85131428D02*
X120087700Y-85019378D01*
X120087700Y-85019378D02*
X120087700Y-84907327D01*
X120087700Y-84907327D02*
X120143725Y-84795277D01*
X120143725Y-84795277D02*
X120199750Y-84739252D01*
X120199750Y-84739252D02*
X120311801Y-84683227D01*
X120311801Y-84683227D02*
X120591926Y-84683227D01*
X120591926Y-84683227D02*
X120760002Y-84739252D01*
X121264228Y-85243478D02*
X121656404Y-85243478D01*
X121824480Y-85859755D02*
X121264228Y-85859755D01*
X121264228Y-85859755D02*
X121264228Y-84683227D01*
X121264228Y-84683227D02*
X121824480Y-84683227D01*
X122160631Y-84683227D02*
X122832933Y-84683227D01*
X122496782Y-85859755D02*
X122496782Y-84683227D01*
X123449209Y-84683227D02*
X123561259Y-84683227D01*
X123561259Y-84683227D02*
X123673309Y-84739252D01*
X123673309Y-84739252D02*
X123729335Y-84795277D01*
X123729335Y-84795277D02*
X123785360Y-84907327D01*
X123785360Y-84907327D02*
X123841385Y-85131428D01*
X123841385Y-85131428D02*
X123841385Y-85411554D01*
X123841385Y-85411554D02*
X123785360Y-85635654D01*
X123785360Y-85635654D02*
X123729335Y-85747704D01*
X123729335Y-85747704D02*
X123673309Y-85803730D01*
X123673309Y-85803730D02*
X123561259Y-85859755D01*
X123561259Y-85859755D02*
X123449209Y-85859755D01*
X123449209Y-85859755D02*
X123337159Y-85803730D01*
X123337159Y-85803730D02*
X123281133Y-85747704D01*
X123281133Y-85747704D02*
X123225108Y-85635654D01*
X123225108Y-85635654D02*
X123169083Y-85411554D01*
X123169083Y-85411554D02*
X123169083Y-85131428D01*
X123169083Y-85131428D02*
X123225108Y-84907327D01*
X123225108Y-84907327D02*
X123281133Y-84795277D01*
X123281133Y-84795277D02*
X123337159Y-84739252D01*
X123337159Y-84739252D02*
X123449209Y-84683227D01*
X118161879Y-79552598D02*
X118161879Y-79141554D01*
X118881207Y-79347076D02*
X118161879Y-79347076D01*
X118846954Y-78936032D02*
X118881207Y-78833271D01*
X118881207Y-78833271D02*
X118881207Y-78662002D01*
X118881207Y-78662002D02*
X118846954Y-78593495D01*
X118846954Y-78593495D02*
X118812700Y-78559241D01*
X118812700Y-78559241D02*
X118744192Y-78524987D01*
X118744192Y-78524987D02*
X118675685Y-78524987D01*
X118675685Y-78524987D02*
X118607178Y-78559241D01*
X118607178Y-78559241D02*
X118572924Y-78593495D01*
X118572924Y-78593495D02*
X118538670Y-78662002D01*
X118538670Y-78662002D02*
X118504416Y-78799017D01*
X118504416Y-78799017D02*
X118470163Y-78867524D01*
X118470163Y-78867524D02*
X118435909Y-78901778D01*
X118435909Y-78901778D02*
X118367402Y-78936032D01*
X118367402Y-78936032D02*
X118298894Y-78936032D01*
X118298894Y-78936032D02*
X118230387Y-78901778D01*
X118230387Y-78901778D02*
X118196133Y-78867524D01*
X118196133Y-78867524D02*
X118161879Y-78799017D01*
X118161879Y-78799017D02*
X118161879Y-78627748D01*
X118161879Y-78627748D02*
X118196133Y-78524987D01*
X118401655Y-77908421D02*
X118881207Y-77908421D01*
X118127626Y-78079689D02*
X118641431Y-78250958D01*
X118641431Y-78250958D02*
X118641431Y-77805659D01*
X118230387Y-77565884D02*
X118196133Y-77531630D01*
X118196133Y-77531630D02*
X118161879Y-77463123D01*
X118161879Y-77463123D02*
X118161879Y-77291854D01*
X118161879Y-77291854D02*
X118196133Y-77223347D01*
X118196133Y-77223347D02*
X118230387Y-77189093D01*
X118230387Y-77189093D02*
X118298894Y-77154839D01*
X118298894Y-77154839D02*
X118367402Y-77154839D01*
X118367402Y-77154839D02*
X118470163Y-77189093D01*
X118470163Y-77189093D02*
X118881207Y-77600137D01*
X118881207Y-77600137D02*
X118881207Y-77154839D01*
X118161879Y-76709541D02*
X118161879Y-76641034D01*
X118161879Y-76641034D02*
X118196133Y-76572526D01*
X118196133Y-76572526D02*
X118230387Y-76538273D01*
X118230387Y-76538273D02*
X118298894Y-76504019D01*
X118298894Y-76504019D02*
X118435909Y-76469765D01*
X118435909Y-76469765D02*
X118607178Y-76469765D01*
X118607178Y-76469765D02*
X118744192Y-76504019D01*
X118744192Y-76504019D02*
X118812700Y-76538273D01*
X118812700Y-76538273D02*
X118846954Y-76572526D01*
X118846954Y-76572526D02*
X118881207Y-76641034D01*
X118881207Y-76641034D02*
X118881207Y-76709541D01*
X118881207Y-76709541D02*
X118846954Y-76778049D01*
X118846954Y-76778049D02*
X118812700Y-76812302D01*
X118812700Y-76812302D02*
X118744192Y-76846556D01*
X118744192Y-76846556D02*
X118607178Y-76880810D01*
X118607178Y-76880810D02*
X118435909Y-76880810D01*
X118435909Y-76880810D02*
X118298894Y-76846556D01*
X118298894Y-76846556D02*
X118230387Y-76812302D01*
X118230387Y-76812302D02*
X118196133Y-76778049D01*
X118196133Y-76778049D02*
X118161879Y-76709541D01*
X118161879Y-76229989D02*
X118161879Y-75784691D01*
X118161879Y-75784691D02*
X118435909Y-76024467D01*
X118435909Y-76024467D02*
X118435909Y-75921706D01*
X118435909Y-75921706D02*
X118470163Y-75853199D01*
X118470163Y-75853199D02*
X118504416Y-75818945D01*
X118504416Y-75818945D02*
X118572924Y-75784691D01*
X118572924Y-75784691D02*
X118744192Y-75784691D01*
X118744192Y-75784691D02*
X118812700Y-75818945D01*
X118812700Y-75818945D02*
X118846954Y-75853199D01*
X118846954Y-75853199D02*
X118881207Y-75921706D01*
X118881207Y-75921706D02*
X118881207Y-76127228D01*
X118881207Y-76127228D02*
X118846954Y-76195736D01*
X118846954Y-76195736D02*
X118812700Y-76229989D01*
X118881207Y-75099617D02*
X118881207Y-75510662D01*
X118881207Y-75305139D02*
X118161879Y-75305139D01*
X118161879Y-75305139D02*
X118264640Y-75373647D01*
X118264640Y-75373647D02*
X118333148Y-75442154D01*
X118333148Y-75442154D02*
X118367402Y-75510662D01*
X118607178Y-74791334D02*
X118607178Y-74243275D01*
X118881207Y-73523946D02*
X118881207Y-73934991D01*
X118881207Y-73729468D02*
X118161879Y-73729468D01*
X118161879Y-73729468D02*
X118264640Y-73797976D01*
X118264640Y-73797976D02*
X118333148Y-73866483D01*
X118333148Y-73866483D02*
X118367402Y-73934991D01*
X118161879Y-72907380D02*
X118161879Y-73044394D01*
X118161879Y-73044394D02*
X118196133Y-73112902D01*
X118196133Y-73112902D02*
X118230387Y-73147156D01*
X118230387Y-73147156D02*
X118333148Y-73215663D01*
X118333148Y-73215663D02*
X118470163Y-73249917D01*
X118470163Y-73249917D02*
X118744192Y-73249917D01*
X118744192Y-73249917D02*
X118812700Y-73215663D01*
X118812700Y-73215663D02*
X118846954Y-73181409D01*
X118846954Y-73181409D02*
X118881207Y-73112902D01*
X118881207Y-73112902D02*
X118881207Y-72975887D01*
X118881207Y-72975887D02*
X118846954Y-72907380D01*
X118846954Y-72907380D02*
X118812700Y-72873126D01*
X118812700Y-72873126D02*
X118744192Y-72838872D01*
X118744192Y-72838872D02*
X118572924Y-72838872D01*
X118572924Y-72838872D02*
X118504416Y-72873126D01*
X118504416Y-72873126D02*
X118470163Y-72907380D01*
X118470163Y-72907380D02*
X118435909Y-72975887D01*
X118435909Y-72975887D02*
X118435909Y-73112902D01*
X118435909Y-73112902D02*
X118470163Y-73181409D01*
X118470163Y-73181409D02*
X118504416Y-73215663D01*
X118504416Y-73215663D02*
X118572924Y-73249917D01*
X118161879Y-72393574D02*
X118161879Y-72325067D01*
X118161879Y-72325067D02*
X118196133Y-72256559D01*
X118196133Y-72256559D02*
X118230387Y-72222306D01*
X118230387Y-72222306D02*
X118298894Y-72188052D01*
X118298894Y-72188052D02*
X118435909Y-72153798D01*
X118435909Y-72153798D02*
X118607178Y-72153798D01*
X118607178Y-72153798D02*
X118744192Y-72188052D01*
X118744192Y-72188052D02*
X118812700Y-72222306D01*
X118812700Y-72222306D02*
X118846954Y-72256559D01*
X118846954Y-72256559D02*
X118881207Y-72325067D01*
X118881207Y-72325067D02*
X118881207Y-72393574D01*
X118881207Y-72393574D02*
X118846954Y-72462082D01*
X118846954Y-72462082D02*
X118812700Y-72496335D01*
X118812700Y-72496335D02*
X118744192Y-72530589D01*
X118744192Y-72530589D02*
X118607178Y-72564843D01*
X118607178Y-72564843D02*
X118435909Y-72564843D01*
X118435909Y-72564843D02*
X118298894Y-72530589D01*
X118298894Y-72530589D02*
X118230387Y-72496335D01*
X118230387Y-72496335D02*
X118196133Y-72462082D01*
X118196133Y-72462082D02*
X118161879Y-72393574D01*
X118881207Y-71434470D02*
X118538670Y-71674246D01*
X118881207Y-71845515D02*
X118161879Y-71845515D01*
X118161879Y-71845515D02*
X118161879Y-71571485D01*
X118161879Y-71571485D02*
X118196133Y-71502978D01*
X118196133Y-71502978D02*
X118230387Y-71468724D01*
X118230387Y-71468724D02*
X118298894Y-71434470D01*
X118298894Y-71434470D02*
X118401655Y-71434470D01*
X118401655Y-71434470D02*
X118470163Y-71468724D01*
X118470163Y-71468724D02*
X118504416Y-71502978D01*
X118504416Y-71502978D02*
X118538670Y-71571485D01*
X118538670Y-71571485D02*
X118538670Y-71845515D01*
X118607178Y-71126187D02*
X118607178Y-70578128D01*
X118161879Y-70338351D02*
X118161879Y-69927307D01*
X118881207Y-70132829D02*
X118161879Y-70132829D01*
X118881207Y-69276486D02*
X118538670Y-69516262D01*
X118881207Y-69687531D02*
X118161879Y-69687531D01*
X118161879Y-69687531D02*
X118161879Y-69413501D01*
X118161879Y-69413501D02*
X118196133Y-69344994D01*
X118196133Y-69344994D02*
X118230387Y-69310740D01*
X118230387Y-69310740D02*
X118298894Y-69276486D01*
X118298894Y-69276486D02*
X118401655Y-69276486D01*
X118401655Y-69276486D02*
X118470163Y-69310740D01*
X118470163Y-69310740D02*
X118504416Y-69344994D01*
X118504416Y-69344994D02*
X118538670Y-69413501D01*
X118538670Y-69413501D02*
X118538670Y-69687531D01*
X118607178Y-68968203D02*
X118607178Y-68420144D01*
X118161879Y-68146113D02*
X118161879Y-67666561D01*
X118161879Y-67666561D02*
X118881207Y-67974845D01*
X118230387Y-67426786D02*
X118196133Y-67392532D01*
X118196133Y-67392532D02*
X118161879Y-67324025D01*
X118161879Y-67324025D02*
X118161879Y-67152756D01*
X118161879Y-67152756D02*
X118196133Y-67084249D01*
X118196133Y-67084249D02*
X118230387Y-67049995D01*
X118230387Y-67049995D02*
X118298894Y-67015741D01*
X118298894Y-67015741D02*
X118367402Y-67015741D01*
X118367402Y-67015741D02*
X118470163Y-67049995D01*
X118470163Y-67049995D02*
X118881207Y-67461039D01*
X118881207Y-67461039D02*
X118881207Y-67015741D01*
X118161879Y-66399175D02*
X118161879Y-66536189D01*
X118161879Y-66536189D02*
X118196133Y-66604697D01*
X118196133Y-66604697D02*
X118230387Y-66638951D01*
X118230387Y-66638951D02*
X118333148Y-66707458D01*
X118333148Y-66707458D02*
X118470163Y-66741712D01*
X118470163Y-66741712D02*
X118744192Y-66741712D01*
X118744192Y-66741712D02*
X118812700Y-66707458D01*
X118812700Y-66707458D02*
X118846954Y-66673204D01*
X118846954Y-66673204D02*
X118881207Y-66604697D01*
X118881207Y-66604697D02*
X118881207Y-66467682D01*
X118881207Y-66467682D02*
X118846954Y-66399175D01*
X118846954Y-66399175D02*
X118812700Y-66364921D01*
X118812700Y-66364921D02*
X118744192Y-66330667D01*
X118744192Y-66330667D02*
X118572924Y-66330667D01*
X118572924Y-66330667D02*
X118504416Y-66364921D01*
X118504416Y-66364921D02*
X118470163Y-66399175D01*
X118470163Y-66399175D02*
X118435909Y-66467682D01*
X118435909Y-66467682D02*
X118435909Y-66604697D01*
X118435909Y-66604697D02*
X118470163Y-66673204D01*
X118470163Y-66673204D02*
X118504416Y-66707458D01*
X118504416Y-66707458D02*
X118572924Y-66741712D01*
X118161879Y-65885369D02*
X118161879Y-65816862D01*
X118161879Y-65816862D02*
X118196133Y-65748354D01*
X118196133Y-65748354D02*
X118230387Y-65714101D01*
X118230387Y-65714101D02*
X118298894Y-65679847D01*
X118298894Y-65679847D02*
X118435909Y-65645593D01*
X118435909Y-65645593D02*
X118607178Y-65645593D01*
X118607178Y-65645593D02*
X118744192Y-65679847D01*
X118744192Y-65679847D02*
X118812700Y-65714101D01*
X118812700Y-65714101D02*
X118846954Y-65748354D01*
X118846954Y-65748354D02*
X118881207Y-65816862D01*
X118881207Y-65816862D02*
X118881207Y-65885369D01*
X118881207Y-65885369D02*
X118846954Y-65953877D01*
X118846954Y-65953877D02*
X118812700Y-65988130D01*
X118812700Y-65988130D02*
X118744192Y-66022384D01*
X118744192Y-66022384D02*
X118607178Y-66056638D01*
X118607178Y-66056638D02*
X118435909Y-66056638D01*
X118435909Y-66056638D02*
X118298894Y-66022384D01*
X118298894Y-66022384D02*
X118230387Y-65988130D01*
X118230387Y-65988130D02*
X118196133Y-65953877D01*
X118196133Y-65953877D02*
X118161879Y-65885369D01*
D33*
X154968888Y-103800295D02*
X154968888Y-104389478D01*
X154556459Y-103152193D02*
X154968888Y-103800295D01*
X154968888Y-103800295D02*
X155381316Y-103152193D01*
X155734826Y-103270030D02*
X155793744Y-103211111D01*
X155793744Y-103211111D02*
X155911581Y-103152193D01*
X155911581Y-103152193D02*
X156206173Y-103152193D01*
X156206173Y-103152193D02*
X156324009Y-103211111D01*
X156324009Y-103211111D02*
X156382928Y-103270030D01*
X156382928Y-103270030D02*
X156441846Y-103387866D01*
X156441846Y-103387866D02*
X156441846Y-103505703D01*
X156441846Y-103505703D02*
X156382928Y-103682458D01*
X156382928Y-103682458D02*
X155675908Y-104389478D01*
X155675908Y-104389478D02*
X156441846Y-104389478D01*
D26*
X135830492Y-116873481D02*
X136412805Y-116873481D01*
X136412805Y-116873481D02*
X136481313Y-116839227D01*
X136481313Y-116839227D02*
X136515567Y-116804974D01*
X136515567Y-116804974D02*
X136549820Y-116736466D01*
X136549820Y-116736466D02*
X136549820Y-116599451D01*
X136549820Y-116599451D02*
X136515567Y-116530944D01*
X136515567Y-116530944D02*
X136481313Y-116496690D01*
X136481313Y-116496690D02*
X136412805Y-116462436D01*
X136412805Y-116462436D02*
X135830492Y-116462436D01*
X135899000Y-116154153D02*
X135864746Y-116119899D01*
X135864746Y-116119899D02*
X135830492Y-116051392D01*
X135830492Y-116051392D02*
X135830492Y-115880123D01*
X135830492Y-115880123D02*
X135864746Y-115811616D01*
X135864746Y-115811616D02*
X135899000Y-115777362D01*
X135899000Y-115777362D02*
X135967507Y-115743108D01*
X135967507Y-115743108D02*
X136036015Y-115743108D01*
X136036015Y-115743108D02*
X136138776Y-115777362D01*
X136138776Y-115777362D02*
X136549820Y-116188406D01*
X136549820Y-116188406D02*
X136549820Y-115743108D01*
D25*
X153982263Y-124744420D02*
X153982263Y-123588720D01*
X153982263Y-123588720D02*
X154422530Y-123588720D01*
X154422530Y-123588720D02*
X154532597Y-123643753D01*
X154532597Y-123643753D02*
X154587630Y-123698787D01*
X154587630Y-123698787D02*
X154642663Y-123808853D01*
X154642663Y-123808853D02*
X154642663Y-123973953D01*
X154642663Y-123973953D02*
X154587630Y-124084020D01*
X154587630Y-124084020D02*
X154532597Y-124139053D01*
X154532597Y-124139053D02*
X154422530Y-124194087D01*
X154422530Y-124194087D02*
X153982263Y-124194087D01*
X155358097Y-123588720D02*
X155578230Y-123588720D01*
X155578230Y-123588720D02*
X155688297Y-123643753D01*
X155688297Y-123643753D02*
X155798363Y-123753820D01*
X155798363Y-123753820D02*
X155853397Y-123973953D01*
X155853397Y-123973953D02*
X155853397Y-124359187D01*
X155853397Y-124359187D02*
X155798363Y-124579320D01*
X155798363Y-124579320D02*
X155688297Y-124689387D01*
X155688297Y-124689387D02*
X155578230Y-124744420D01*
X155578230Y-124744420D02*
X155358097Y-124744420D01*
X155358097Y-124744420D02*
X155248030Y-124689387D01*
X155248030Y-124689387D02*
X155137963Y-124579320D01*
X155137963Y-124579320D02*
X155082930Y-124359187D01*
X155082930Y-124359187D02*
X155082930Y-123973953D01*
X155082930Y-123973953D02*
X155137963Y-123753820D01*
X155137963Y-123753820D02*
X155248030Y-123643753D01*
X155248030Y-123643753D02*
X155358097Y-123588720D01*
X156238630Y-123588720D02*
X156513796Y-124744420D01*
X156513796Y-124744420D02*
X156733930Y-123918920D01*
X156733930Y-123918920D02*
X156954063Y-124744420D01*
X156954063Y-124744420D02*
X157229230Y-123588720D01*
X157669496Y-124139053D02*
X158054730Y-124139053D01*
X158219830Y-124744420D02*
X157669496Y-124744420D01*
X157669496Y-124744420D02*
X157669496Y-123588720D01*
X157669496Y-123588720D02*
X158219830Y-123588720D01*
X159375529Y-124744420D02*
X158990296Y-124194087D01*
X158715129Y-124744420D02*
X158715129Y-123588720D01*
X158715129Y-123588720D02*
X159155396Y-123588720D01*
X159155396Y-123588720D02*
X159265463Y-123643753D01*
X159265463Y-123643753D02*
X159320496Y-123698787D01*
X159320496Y-123698787D02*
X159375529Y-123808853D01*
X159375529Y-123808853D02*
X159375529Y-123973953D01*
X159375529Y-123973953D02*
X159320496Y-124084020D01*
X159320496Y-124084020D02*
X159265463Y-124139053D01*
X159265463Y-124139053D02*
X159155396Y-124194087D01*
X159155396Y-124194087D02*
X158715129Y-124194087D01*
X160090963Y-123588720D02*
X160201029Y-123588720D01*
X160201029Y-123588720D02*
X160311096Y-123643753D01*
X160311096Y-123643753D02*
X160366129Y-123698787D01*
X160366129Y-123698787D02*
X160421163Y-123808853D01*
X160421163Y-123808853D02*
X160476196Y-124028987D01*
X160476196Y-124028987D02*
X160476196Y-124304153D01*
X160476196Y-124304153D02*
X160421163Y-124524287D01*
X160421163Y-124524287D02*
X160366129Y-124634353D01*
X160366129Y-124634353D02*
X160311096Y-124689387D01*
X160311096Y-124689387D02*
X160201029Y-124744420D01*
X160201029Y-124744420D02*
X160090963Y-124744420D01*
X160090963Y-124744420D02*
X159980896Y-124689387D01*
X159980896Y-124689387D02*
X159925863Y-124634353D01*
X159925863Y-124634353D02*
X159870829Y-124524287D01*
X159870829Y-124524287D02*
X159815796Y-124304153D01*
X159815796Y-124304153D02*
X159815796Y-124028987D01*
X159815796Y-124028987D02*
X159870829Y-123808853D01*
X159870829Y-123808853D02*
X159925863Y-123698787D01*
X159925863Y-123698787D02*
X159980896Y-123643753D01*
X159980896Y-123643753D02*
X160090963Y-123588720D01*
D26*
X170425700Y-104707292D02*
X170425700Y-103530764D01*
X170425700Y-103530764D02*
X170705826Y-103530764D01*
X170705826Y-103530764D02*
X170873901Y-103586789D01*
X170873901Y-103586789D02*
X170985952Y-103698839D01*
X170985952Y-103698839D02*
X171041977Y-103810889D01*
X171041977Y-103810889D02*
X171098002Y-104034990D01*
X171098002Y-104034990D02*
X171098002Y-104203065D01*
X171098002Y-104203065D02*
X171041977Y-104427166D01*
X171041977Y-104427166D02*
X170985952Y-104539216D01*
X170985952Y-104539216D02*
X170873901Y-104651267D01*
X170873901Y-104651267D02*
X170705826Y-104707292D01*
X170705826Y-104707292D02*
X170425700Y-104707292D01*
X171546203Y-103642814D02*
X171602228Y-103586789D01*
X171602228Y-103586789D02*
X171714279Y-103530764D01*
X171714279Y-103530764D02*
X171994404Y-103530764D01*
X171994404Y-103530764D02*
X172106455Y-103586789D01*
X172106455Y-103586789D02*
X172162480Y-103642814D01*
X172162480Y-103642814D02*
X172218505Y-103754864D01*
X172218505Y-103754864D02*
X172218505Y-103866915D01*
X172218505Y-103866915D02*
X172162480Y-104034990D01*
X172162480Y-104034990D02*
X171490178Y-104707292D01*
X171490178Y-104707292D02*
X172218505Y-104707292D01*
X124730255Y-86119980D02*
X123553727Y-86119980D01*
X123553727Y-86119980D02*
X123553727Y-85839854D01*
X123553727Y-85839854D02*
X123609752Y-85671779D01*
X123609752Y-85671779D02*
X123721802Y-85559728D01*
X123721802Y-85559728D02*
X123833852Y-85503703D01*
X123833852Y-85503703D02*
X124057953Y-85447678D01*
X124057953Y-85447678D02*
X124226028Y-85447678D01*
X124226028Y-85447678D02*
X124450129Y-85503703D01*
X124450129Y-85503703D02*
X124562179Y-85559728D01*
X124562179Y-85559728D02*
X124674230Y-85671779D01*
X124674230Y-85671779D02*
X124730255Y-85839854D01*
X124730255Y-85839854D02*
X124730255Y-86119980D01*
X123553727Y-85055502D02*
X123553727Y-84327175D01*
X123553727Y-84327175D02*
X124001928Y-84719351D01*
X124001928Y-84719351D02*
X124001928Y-84551276D01*
X124001928Y-84551276D02*
X124057953Y-84439226D01*
X124057953Y-84439226D02*
X124113978Y-84383200D01*
X124113978Y-84383200D02*
X124226028Y-84327175D01*
X124226028Y-84327175D02*
X124506154Y-84327175D01*
X124506154Y-84327175D02*
X124618204Y-84383200D01*
X124618204Y-84383200D02*
X124674230Y-84439226D01*
X124674230Y-84439226D02*
X124730255Y-84551276D01*
X124730255Y-84551276D02*
X124730255Y-84887427D01*
X124730255Y-84887427D02*
X124674230Y-84999477D01*
X124674230Y-84999477D02*
X124618204Y-85055502D01*
D25*
X132859936Y-106547056D02*
X132859936Y-107097389D01*
X132474702Y-105941689D02*
X132859936Y-106547056D01*
X132859936Y-106547056D02*
X133245169Y-105941689D01*
X134235769Y-107097389D02*
X133575369Y-107097389D01*
X133905569Y-107097389D02*
X133905569Y-105941689D01*
X133905569Y-105941689D02*
X133795502Y-106106789D01*
X133795502Y-106106789D02*
X133685436Y-106216856D01*
X133685436Y-106216856D02*
X133575369Y-106271889D01*
D34*
X151854997Y-125061654D02*
X151586077Y-125061654D01*
X151586077Y-125061654D02*
X151586077Y-124496921D01*
X152016350Y-124550705D02*
X152043242Y-124523813D01*
X152043242Y-124523813D02*
X152097026Y-124496921D01*
X152097026Y-124496921D02*
X152231486Y-124496921D01*
X152231486Y-124496921D02*
X152285270Y-124523813D01*
X152285270Y-124523813D02*
X152312162Y-124550705D01*
X152312162Y-124550705D02*
X152339054Y-124604489D01*
X152339054Y-124604489D02*
X152339054Y-124658273D01*
X152339054Y-124658273D02*
X152312162Y-124738949D01*
X152312162Y-124738949D02*
X151989458Y-125061654D01*
X151989458Y-125061654D02*
X152339054Y-125061654D01*
D26*
X161707021Y-123030704D02*
X161650996Y-123086730D01*
X161650996Y-123086730D02*
X161482920Y-123142755D01*
X161482920Y-123142755D02*
X161370870Y-123142755D01*
X161370870Y-123142755D02*
X161202795Y-123086730D01*
X161202795Y-123086730D02*
X161090744Y-122974679D01*
X161090744Y-122974679D02*
X161034719Y-122862629D01*
X161034719Y-122862629D02*
X160978694Y-122638528D01*
X160978694Y-122638528D02*
X160978694Y-122470453D01*
X160978694Y-122470453D02*
X161034719Y-122246352D01*
X161034719Y-122246352D02*
X161090744Y-122134302D01*
X161090744Y-122134302D02*
X161202795Y-122022252D01*
X161202795Y-122022252D02*
X161370870Y-121966227D01*
X161370870Y-121966227D02*
X161482920Y-121966227D01*
X161482920Y-121966227D02*
X161650996Y-122022252D01*
X161650996Y-122022252D02*
X161707021Y-122078277D01*
X162827524Y-123142755D02*
X162155222Y-123142755D01*
X162491373Y-123142755D02*
X162491373Y-121966227D01*
X162491373Y-121966227D02*
X162379323Y-122134302D01*
X162379323Y-122134302D02*
X162267272Y-122246352D01*
X162267272Y-122246352D02*
X162155222Y-122302378D01*
X163555851Y-121966227D02*
X163667901Y-121966227D01*
X163667901Y-121966227D02*
X163779951Y-122022252D01*
X163779951Y-122022252D02*
X163835977Y-122078277D01*
X163835977Y-122078277D02*
X163892002Y-122190327D01*
X163892002Y-122190327D02*
X163948027Y-122414428D01*
X163948027Y-122414428D02*
X163948027Y-122694554D01*
X163948027Y-122694554D02*
X163892002Y-122918654D01*
X163892002Y-122918654D02*
X163835977Y-123030704D01*
X163835977Y-123030704D02*
X163779951Y-123086730D01*
X163779951Y-123086730D02*
X163667901Y-123142755D01*
X163667901Y-123142755D02*
X163555851Y-123142755D01*
X163555851Y-123142755D02*
X163443801Y-123086730D01*
X163443801Y-123086730D02*
X163387775Y-123030704D01*
X163387775Y-123030704D02*
X163331750Y-122918654D01*
X163331750Y-122918654D02*
X163275725Y-122694554D01*
X163275725Y-122694554D02*
X163275725Y-122414428D01*
X163275725Y-122414428D02*
X163331750Y-122190327D01*
X163331750Y-122190327D02*
X163387775Y-122078277D01*
X163387775Y-122078277D02*
X163443801Y-122022252D01*
X163443801Y-122022252D02*
X163555851Y-121966227D01*
D35*
%TO.C,ZU4*%
X142024100Y-118084600D02*
X142024100Y-112496600D01*
X179108100Y-118084600D02*
X142024100Y-118084600D01*
X179108100Y-118084600D02*
X179108100Y-115925600D01*
X179108100Y-112496600D02*
X142024100Y-112496600D01*
X179108100Y-115925600D02*
G75*
G02*
X179108100Y-114655600I0J635000D01*
G01*
X179108100Y-114655600D02*
X179108100Y-112496600D01*
%TO.C,ICSP0*%
X176568100Y-105638600D02*
X176568100Y-106908600D01*
X181013100Y-107543600D02*
X177203100Y-107543600D01*
X181648100Y-106908600D02*
X181013100Y-107543600D01*
X181648100Y-105638600D02*
X181648100Y-106908600D01*
X181013100Y-105003600D02*
X181648100Y-105638600D01*
X176568100Y-106908600D02*
X177203100Y-107543600D01*
X177203100Y-105003600D02*
X176568100Y-105638600D01*
X176568100Y-100558600D02*
X176568100Y-101828600D01*
X176568100Y-103098600D02*
X176568100Y-104368600D01*
X181013100Y-105003600D02*
X177203100Y-105003600D01*
X181013100Y-102463600D02*
X177203100Y-102463600D01*
X181648100Y-104368600D02*
X181013100Y-105003600D01*
X181648100Y-103098600D02*
X181648100Y-104368600D01*
X181013100Y-102463600D02*
X181648100Y-103098600D01*
X181648100Y-101828600D02*
X181013100Y-102463600D01*
X181648100Y-100558600D02*
X181648100Y-101828600D01*
X181013100Y-99923600D02*
X181648100Y-100558600D01*
X177203100Y-99923600D02*
X181013100Y-99923600D01*
X176568100Y-104368600D02*
X177203100Y-105003600D01*
X177203100Y-102463600D02*
X176568100Y-103098600D01*
X176568100Y-101828600D02*
X177203100Y-102463600D01*
X177203100Y-99923600D02*
X176568100Y-100558600D01*
%TO.C,IOL0*%
X159296100Y-79603600D02*
X160566100Y-79603600D01*
X161201100Y-80238600D02*
X160566100Y-79603600D01*
X160566100Y-82143600D02*
X161201100Y-81508600D01*
X158661100Y-80238600D02*
X159296100Y-79603600D01*
X158661100Y-81508600D02*
X158661100Y-80238600D01*
X159296100Y-82143600D02*
X158661100Y-81508600D01*
X160566100Y-82143600D02*
X159296100Y-82143600D01*
X177076100Y-79603600D02*
X178346100Y-79603600D01*
X178981100Y-80238600D02*
X178346100Y-79603600D01*
X178346100Y-82143600D02*
X178981100Y-81508600D01*
X178981100Y-81508600D02*
X178981100Y-80238600D01*
X175806100Y-79603600D02*
X176441100Y-80238600D01*
X174536100Y-79603600D02*
X175806100Y-79603600D01*
X173901100Y-80238600D02*
X174536100Y-79603600D01*
X173901100Y-81508600D02*
X173901100Y-80238600D01*
X174536100Y-82143600D02*
X173901100Y-81508600D01*
X175806100Y-82143600D02*
X174536100Y-82143600D01*
X176441100Y-81508600D02*
X175806100Y-82143600D01*
X176441100Y-80238600D02*
X177076100Y-79603600D01*
X176441100Y-81508600D02*
X176441100Y-80238600D01*
X177076100Y-82143600D02*
X176441100Y-81508600D01*
X178346100Y-82143600D02*
X177076100Y-82143600D01*
X169456100Y-79603600D02*
X170726100Y-79603600D01*
X171361100Y-80238600D02*
X170726100Y-79603600D01*
X170726100Y-82143600D02*
X171361100Y-81508600D01*
X173266100Y-79603600D02*
X173901100Y-80238600D01*
X171996100Y-79603600D02*
X173266100Y-79603600D01*
X171361100Y-80238600D02*
X171996100Y-79603600D01*
X171361100Y-81508600D02*
X171361100Y-80238600D01*
X171996100Y-82143600D02*
X171361100Y-81508600D01*
X173266100Y-82143600D02*
X171996100Y-82143600D01*
X173901100Y-81508600D02*
X173266100Y-82143600D01*
X168186100Y-79603600D02*
X168821100Y-80238600D01*
X166916100Y-79603600D02*
X168186100Y-79603600D01*
X166281100Y-80238600D02*
X166916100Y-79603600D01*
X166281100Y-81508600D02*
X166281100Y-80238600D01*
X166916100Y-82143600D02*
X166281100Y-81508600D01*
X168186100Y-82143600D02*
X166916100Y-82143600D01*
X168821100Y-81508600D02*
X168186100Y-82143600D01*
X168821100Y-80238600D02*
X169456100Y-79603600D01*
X168821100Y-81508600D02*
X168821100Y-80238600D01*
X169456100Y-82143600D02*
X168821100Y-81508600D01*
X170726100Y-82143600D02*
X169456100Y-82143600D01*
X161836100Y-79603600D02*
X163106100Y-79603600D01*
X163741100Y-80238600D02*
X163106100Y-79603600D01*
X163106100Y-82143600D02*
X163741100Y-81508600D01*
X165646100Y-79603600D02*
X166281100Y-80238600D01*
X164376100Y-79603600D02*
X165646100Y-79603600D01*
X163741100Y-80238600D02*
X164376100Y-79603600D01*
X163741100Y-81508600D02*
X163741100Y-80238600D01*
X164376100Y-82143600D02*
X163741100Y-81508600D01*
X165646100Y-82143600D02*
X164376100Y-82143600D01*
X166281100Y-81508600D02*
X165646100Y-82143600D01*
X161201100Y-80238600D02*
X161836100Y-79603600D01*
X161201100Y-81508600D02*
X161201100Y-80238600D01*
X161836100Y-82143600D02*
X161201100Y-81508600D01*
X163106100Y-82143600D02*
X161836100Y-82143600D01*
%TO.C,IOH0*%
X132372100Y-79603600D02*
X133642100Y-79603600D01*
X134277100Y-80238600D02*
X133642100Y-79603600D01*
X133642100Y-82143600D02*
X134277100Y-81508600D01*
X131737100Y-80238600D02*
X132372100Y-79603600D01*
X131737100Y-81508600D02*
X131737100Y-80238600D01*
X132372100Y-82143600D02*
X131737100Y-81508600D01*
X133642100Y-82143600D02*
X132372100Y-82143600D01*
X155232100Y-79603600D02*
X156502100Y-79603600D01*
X157137100Y-80238600D02*
X156502100Y-79603600D01*
X156502100Y-82143600D02*
X157137100Y-81508600D01*
X157137100Y-81508600D02*
X157137100Y-80238600D01*
X153962100Y-79603600D02*
X154597100Y-80238600D01*
X152692100Y-79603600D02*
X153962100Y-79603600D01*
X152057100Y-80238600D02*
X152692100Y-79603600D01*
X152057100Y-81508600D02*
X152057100Y-80238600D01*
X152692100Y-82143600D02*
X152057100Y-81508600D01*
X153962100Y-82143600D02*
X152692100Y-82143600D01*
X154597100Y-81508600D02*
X153962100Y-82143600D01*
X154597100Y-80238600D02*
X155232100Y-79603600D01*
X154597100Y-81508600D02*
X154597100Y-80238600D01*
X155232100Y-82143600D02*
X154597100Y-81508600D01*
X156502100Y-82143600D02*
X155232100Y-82143600D01*
X147612100Y-79603600D02*
X148882100Y-79603600D01*
X149517100Y-80238600D02*
X148882100Y-79603600D01*
X148882100Y-82143600D02*
X149517100Y-81508600D01*
X151422100Y-79603600D02*
X152057100Y-80238600D01*
X150152100Y-79603600D02*
X151422100Y-79603600D01*
X149517100Y-80238600D02*
X150152100Y-79603600D01*
X149517100Y-81508600D02*
X149517100Y-80238600D01*
X150152100Y-82143600D02*
X149517100Y-81508600D01*
X151422100Y-82143600D02*
X150152100Y-82143600D01*
X152057100Y-81508600D02*
X151422100Y-82143600D01*
X146342100Y-79603600D02*
X146977100Y-80238600D01*
X145072100Y-79603600D02*
X146342100Y-79603600D01*
X144437100Y-80238600D02*
X145072100Y-79603600D01*
X144437100Y-81508600D02*
X144437100Y-80238600D01*
X145072100Y-82143600D02*
X144437100Y-81508600D01*
X146342100Y-82143600D02*
X145072100Y-82143600D01*
X146977100Y-81508600D02*
X146342100Y-82143600D01*
X146977100Y-80238600D02*
X147612100Y-79603600D01*
X146977100Y-81508600D02*
X146977100Y-80238600D01*
X147612100Y-82143600D02*
X146977100Y-81508600D01*
X148882100Y-82143600D02*
X147612100Y-82143600D01*
X139992100Y-79603600D02*
X141262100Y-79603600D01*
X141897100Y-80238600D02*
X141262100Y-79603600D01*
X141262100Y-82143600D02*
X141897100Y-81508600D01*
X143802100Y-79603600D02*
X144437100Y-80238600D01*
X142532100Y-79603600D02*
X143802100Y-79603600D01*
X141897100Y-80238600D02*
X142532100Y-79603600D01*
X141897100Y-81508600D02*
X141897100Y-80238600D01*
X142532100Y-82143600D02*
X141897100Y-81508600D01*
X143802100Y-82143600D02*
X142532100Y-82143600D01*
X144437100Y-81508600D02*
X143802100Y-82143600D01*
X138722100Y-79603600D02*
X139357100Y-80238600D01*
X137452100Y-79603600D02*
X138722100Y-79603600D01*
X136817100Y-80238600D02*
X137452100Y-79603600D01*
X136817100Y-81508600D02*
X136817100Y-80238600D01*
X137452100Y-82143600D02*
X136817100Y-81508600D01*
X138722100Y-82143600D02*
X137452100Y-82143600D01*
X139357100Y-81508600D02*
X138722100Y-82143600D01*
X139357100Y-80238600D02*
X139992100Y-79603600D01*
X139357100Y-81508600D02*
X139357100Y-80238600D01*
X139992100Y-82143600D02*
X139357100Y-81508600D01*
X141262100Y-82143600D02*
X139992100Y-82143600D01*
X136182100Y-79603600D02*
X136817100Y-80238600D01*
X134912100Y-79603600D02*
X136182100Y-79603600D01*
X134277100Y-80238600D02*
X134912100Y-79603600D01*
X134277100Y-81508600D02*
X134277100Y-80238600D01*
X134912100Y-82143600D02*
X134277100Y-81508600D01*
X136182100Y-82143600D02*
X134912100Y-82143600D01*
X136817100Y-81508600D02*
X136182100Y-82143600D01*
%TO.C,AD0*%
X178346100Y-130403600D02*
X177076100Y-130403600D01*
X176441100Y-129768600D02*
X177076100Y-130403600D01*
X177076100Y-127863600D02*
X176441100Y-128498600D01*
X178981100Y-129768600D02*
X178346100Y-130403600D01*
X178981100Y-128498600D02*
X178981100Y-129768600D01*
X178346100Y-127863600D02*
X178981100Y-128498600D01*
X177076100Y-127863600D02*
X178346100Y-127863600D01*
X165646100Y-130403600D02*
X164376100Y-130403600D01*
X163741100Y-129768600D02*
X164376100Y-130403600D01*
X164376100Y-127863600D02*
X163741100Y-128498600D01*
X163741100Y-128498600D02*
X163741100Y-129768600D01*
X166916100Y-130403600D02*
X166281100Y-129768600D01*
X168186100Y-130403600D02*
X166916100Y-130403600D01*
X168821100Y-129768600D02*
X168186100Y-130403600D01*
X168821100Y-128498600D02*
X168821100Y-129768600D01*
X168186100Y-127863600D02*
X168821100Y-128498600D01*
X166916100Y-127863600D02*
X168186100Y-127863600D01*
X166281100Y-128498600D02*
X166916100Y-127863600D01*
X166281100Y-129768600D02*
X165646100Y-130403600D01*
X166281100Y-128498600D02*
X166281100Y-129768600D01*
X165646100Y-127863600D02*
X166281100Y-128498600D01*
X164376100Y-127863600D02*
X165646100Y-127863600D01*
X173266100Y-130403600D02*
X171996100Y-130403600D01*
X171361100Y-129768600D02*
X171996100Y-130403600D01*
X171996100Y-127863600D02*
X171361100Y-128498600D01*
X169456100Y-130403600D02*
X168821100Y-129768600D01*
X170726100Y-130403600D02*
X169456100Y-130403600D01*
X171361100Y-129768600D02*
X170726100Y-130403600D01*
X171361100Y-128498600D02*
X171361100Y-129768600D01*
X170726100Y-127863600D02*
X171361100Y-128498600D01*
X169456100Y-127863600D02*
X170726100Y-127863600D01*
X168821100Y-128498600D02*
X169456100Y-127863600D01*
X174536100Y-130403600D02*
X173901100Y-129768600D01*
X175806100Y-130403600D02*
X174536100Y-130403600D01*
X176441100Y-129768600D02*
X175806100Y-130403600D01*
X176441100Y-128498600D02*
X176441100Y-129768600D01*
X175806100Y-127863600D02*
X176441100Y-128498600D01*
X174536100Y-127863600D02*
X175806100Y-127863600D01*
X173901100Y-128498600D02*
X174536100Y-127863600D01*
X173901100Y-129768600D02*
X173266100Y-130403600D01*
X173901100Y-128498600D02*
X173901100Y-129768600D01*
X173266100Y-127863600D02*
X173901100Y-128498600D01*
X171996100Y-127863600D02*
X173266100Y-127863600D01*
D36*
%TO.C,PC1*%
X140688100Y-119579600D02*
G75*
G02*
X140688100Y-125479600I-950000J-2950000D01*
G01*
X138788100Y-125479600D02*
G75*
G02*
X138788100Y-119579600I950000J2950000D01*
G01*
X142988100Y-125779600D02*
X140688100Y-125779600D01*
X142988100Y-120979600D02*
X142988100Y-125779600D01*
X141288100Y-119279600D02*
X142988100Y-120979600D01*
X140688100Y-119279600D02*
X141288100Y-119279600D01*
X138188100Y-119279600D02*
X138788100Y-119279600D01*
X136488100Y-120979600D02*
X138188100Y-119279600D01*
X136488100Y-125779600D02*
X136488100Y-120979600D01*
X138788100Y-125779600D02*
X136488100Y-125779600D01*
%TO.C,PC2*%
X133576100Y-119579600D02*
G75*
G02*
X133576100Y-125479600I-950000J-2950000D01*
G01*
X131676100Y-125479600D02*
G75*
G02*
X131676100Y-119579600I950000J2950000D01*
G01*
X135876100Y-125779600D02*
X133576100Y-125779600D01*
X135876100Y-120979600D02*
X135876100Y-125779600D01*
X134176100Y-119279600D02*
X135876100Y-120979600D01*
X133576100Y-119279600D02*
X134176100Y-119279600D01*
X131076100Y-119279600D02*
X131676100Y-119279600D01*
X129376100Y-120979600D02*
X131076100Y-119279600D01*
X129376100Y-125779600D02*
X129376100Y-120979600D01*
X131676100Y-125779600D02*
X129376100Y-125779600D01*
D37*
%TO.C,ON0*%
G36*
X172931100Y-95247600D02*
G01*
X172631100Y-95247600D01*
X172631100Y-94947600D01*
X172931100Y-94947600D01*
X172931100Y-95247600D01*
G37*
G36*
X172931100Y-95772600D02*
G01*
X172631100Y-95772600D01*
X172631100Y-95622600D01*
X172931100Y-95622600D01*
X172931100Y-95772600D01*
G37*
G36*
X172931100Y-94572600D02*
G01*
X172631100Y-94572600D01*
X172631100Y-94422600D01*
X172931100Y-94422600D01*
X172931100Y-94572600D01*
G37*
%TO.C,RX0*%
G36*
X142151100Y-97533600D02*
G01*
X141851100Y-97533600D01*
X141851100Y-97233600D01*
X142151100Y-97233600D01*
X142151100Y-97533600D01*
G37*
G36*
X142151100Y-96858600D02*
G01*
X141851100Y-96858600D01*
X141851100Y-96708600D01*
X142151100Y-96708600D01*
X142151100Y-96858600D01*
G37*
G36*
X142151100Y-98058600D02*
G01*
X141851100Y-98058600D01*
X141851100Y-97908600D01*
X142151100Y-97908600D01*
X142151100Y-98058600D01*
G37*
%TO.C,TX0*%
G36*
X142151100Y-95247600D02*
G01*
X141851100Y-95247600D01*
X141851100Y-94947600D01*
X142151100Y-94947600D01*
X142151100Y-95247600D01*
G37*
G36*
X142151100Y-94572600D02*
G01*
X141851100Y-94572600D01*
X141851100Y-94422600D01*
X142151100Y-94422600D01*
X142151100Y-94572600D01*
G37*
G36*
X142151100Y-95772600D02*
G01*
X141851100Y-95772600D01*
X141851100Y-95622600D01*
X142151100Y-95622600D01*
X142151100Y-95772600D01*
G37*
D21*
%TO.C,D1*%
X135608100Y-127879600D02*
X135608100Y-129879600D01*
X136631100Y-128879600D02*
X135608100Y-127879600D01*
X135608100Y-129879600D02*
X136631100Y-128879600D01*
D36*
X138061700Y-126974600D02*
X133540500Y-126974600D01*
X138061700Y-130784600D02*
X133540500Y-130784600D01*
D38*
%TO.C,X1*%
X115887500Y-128346200D02*
X115887500Y-119380000D01*
X112407700Y-128371600D02*
X120180100Y-128371600D01*
X112407700Y-119380000D02*
X112407700Y-128371600D01*
X115887500Y-119380000D02*
X112407700Y-119380000D01*
X125895100Y-119380000D02*
X115887500Y-119380000D01*
X125895100Y-120751600D02*
X125895100Y-119380000D01*
X125895100Y-128371600D02*
X125577600Y-128371600D01*
X125895100Y-126149100D02*
X125895100Y-128371600D01*
D11*
%TO.C,X2*%
X123621100Y-99473600D02*
X123621100Y-87673600D01*
X107871100Y-99473600D02*
X123621100Y-99473600D01*
X107871100Y-87673600D02*
X107871100Y-99473600D01*
X123621100Y-87673600D02*
X107871100Y-87673600D01*
D21*
%TO.C,U1*%
X120180100Y-117551200D02*
X120180100Y-110998000D01*
X123736100Y-117551200D02*
X120180100Y-117551200D01*
X123736100Y-110998000D02*
X123736100Y-117551200D01*
X120180100Y-110998000D02*
X123736100Y-110998000D01*
D37*
%TO.C,L0*%
G36*
X142451100Y-89659600D02*
G01*
X142151100Y-89659600D01*
X142151100Y-89359600D01*
X142451100Y-89359600D01*
X142451100Y-89659600D01*
G37*
G36*
X142451100Y-90184600D02*
G01*
X142151100Y-90184600D01*
X142151100Y-90034600D01*
X142451100Y-90034600D01*
X142451100Y-90184600D01*
G37*
G36*
X142451100Y-88984600D02*
G01*
X142151100Y-88984600D01*
X142151100Y-88834600D01*
X142451100Y-88834600D01*
X142451100Y-88984600D01*
G37*
D35*
%TO.C,T1*%
X121958100Y-103708200D02*
X122720100Y-103708200D01*
X121958100Y-106603800D02*
X121958100Y-103708200D01*
X122720100Y-106603800D02*
X121958100Y-106603800D01*
X122720100Y-103708200D02*
X122720100Y-106603800D01*
D38*
%TO.C,U3*%
X132866300Y-98602600D02*
G75*
G02*
X132233900Y-98602600I-316200J0D01*
G01*
X132233900Y-98602600D02*
G75*
G02*
X132866300Y-98602600I316200J0D01*
G01*
X131967600Y-99502600D02*
X136650100Y-99502600D01*
X131650100Y-99185100D02*
X131967600Y-99502600D01*
X131650100Y-94502600D02*
X131650100Y-99185100D01*
X136650100Y-94502600D02*
X131650100Y-94502600D01*
X136650100Y-99502600D02*
X136650100Y-94502600D01*
D35*
%TO.C,ICSP1*%
X130594100Y-82905600D02*
X129324100Y-82905600D01*
X128689100Y-87350600D02*
X128689100Y-83540600D01*
X129324100Y-87985600D02*
X128689100Y-87350600D01*
X130594100Y-87985600D02*
X129324100Y-87985600D01*
X131229100Y-87350600D02*
X130594100Y-87985600D01*
X129324100Y-82905600D02*
X128689100Y-83540600D01*
X131229100Y-83540600D02*
X130594100Y-82905600D01*
X135674100Y-82905600D02*
X134404100Y-82905600D01*
X133134100Y-82905600D02*
X131864100Y-82905600D01*
X131229100Y-87350600D02*
X131229100Y-83540600D01*
X133769100Y-87350600D02*
X133769100Y-83540600D01*
X131864100Y-87985600D02*
X131229100Y-87350600D01*
X133134100Y-87985600D02*
X131864100Y-87985600D01*
X133769100Y-87350600D02*
X133134100Y-87985600D01*
X134404100Y-87985600D02*
X133769100Y-87350600D01*
X135674100Y-87985600D02*
X134404100Y-87985600D01*
X136309100Y-87350600D02*
X135674100Y-87985600D01*
X136309100Y-83540600D02*
X136309100Y-87350600D01*
X131864100Y-82905600D02*
X131229100Y-83540600D01*
X133769100Y-83540600D02*
X133134100Y-82905600D01*
X134404100Y-82905600D02*
X133769100Y-83540600D01*
X136309100Y-83540600D02*
X135674100Y-82905600D01*
D37*
%TO.C,L1*%
G36*
X122181100Y-86738600D02*
G01*
X121481100Y-86738600D01*
X121481100Y-86438600D01*
X122181100Y-86438600D01*
X122181100Y-86738600D01*
G37*
D39*
X120831100Y-85963600D02*
X122831100Y-85963600D01*
X122831100Y-87213600D02*
X120831100Y-87213600D01*
D38*
X123131100Y-86588600D02*
X120631100Y-86588600D01*
D35*
%TO.C,RESET-EN0*%
X140754100Y-103352600D02*
X143548100Y-103352600D01*
X140500100Y-105130600D02*
X140500100Y-103606600D01*
X143802100Y-105130600D02*
X143802100Y-103606600D01*
X143802100Y-105130600D02*
G75*
G02*
X143548100Y-105384600I-254000J0D01*
G01*
X140754100Y-105384600D02*
G75*
G02*
X140500100Y-105130600I0J254000D01*
G01*
X140500100Y-103606600D02*
G75*
G02*
X140754100Y-103352600I254000J0D01*
G01*
X143548100Y-103352600D02*
G75*
G02*
X143802100Y-103606600I0J-254000D01*
G01*
X143548100Y-105384600D02*
X140754100Y-105384600D01*
%TO.C,JP2*%
X136309100Y-92430600D02*
X136309100Y-91160600D01*
X136309100Y-89890600D02*
X136309100Y-88620600D01*
X131864100Y-87985600D02*
X135674100Y-87985600D01*
X131864100Y-90525600D02*
X135674100Y-90525600D01*
X131229100Y-88620600D02*
X131864100Y-87985600D01*
X131229100Y-89890600D02*
X131229100Y-88620600D01*
X131864100Y-90525600D02*
X131229100Y-89890600D01*
X131229100Y-91160600D02*
X131864100Y-90525600D01*
X131229100Y-92430600D02*
X131229100Y-91160600D01*
X131864100Y-93065600D02*
X131229100Y-92430600D01*
X135674100Y-93065600D02*
X131864100Y-93065600D01*
X136309100Y-88620600D02*
X135674100Y-87985600D01*
X135674100Y-90525600D02*
X136309100Y-89890600D01*
X136309100Y-91160600D02*
X135674100Y-90525600D01*
X135674100Y-93065600D02*
X136309100Y-92430600D01*
D40*
%TO.C,U5*%
X134551700Y-112299200D02*
G75*
G02*
X133551700Y-112299200I-500000J0D01*
G01*
X133551700Y-112299200D02*
G75*
G02*
X134551700Y-112299200I500000J0D01*
G01*
D35*
X131637100Y-110150600D02*
X131637100Y-110054600D01*
X131637100Y-110800600D02*
X131637100Y-110607600D01*
X131637100Y-111450600D02*
X131637100Y-111257600D01*
X131637100Y-112100600D02*
X131637100Y-111907600D01*
X131637100Y-112654600D02*
X131637100Y-112557600D01*
X134887100Y-110150600D02*
X134887100Y-110054600D01*
X134887100Y-110800600D02*
X134887100Y-110607600D01*
X134887100Y-111450600D02*
X134887100Y-111257600D01*
X134887100Y-112100600D02*
X134887100Y-111907600D01*
X134887100Y-112694600D02*
X134887100Y-112557600D01*
X134562100Y-109729600D02*
G75*
G02*
X134887100Y-110054600I0J-325000D01*
G01*
X134887100Y-112654600D02*
G75*
G02*
X134562100Y-112979600I-325000J0D01*
G01*
X131962100Y-112979600D02*
G75*
G02*
X131637100Y-112654600I0J325000D01*
G01*
X131637100Y-110054600D02*
G75*
G02*
X131962100Y-109729600I325000J0D01*
G01*
X134562100Y-112979600D02*
X131962100Y-112979600D01*
X131962100Y-109729600D02*
X134562100Y-109729600D01*
D38*
%TO.C,RESET0*%
X121761100Y-82270600D02*
G75*
G02*
X119361100Y-82270600I-1200000J0D01*
G01*
X119361100Y-82270600D02*
G75*
G02*
X121761100Y-82270600I1200000J0D01*
G01*
X122061100Y-82270600D02*
G75*
G02*
X119061100Y-82270600I-1500000J0D01*
G01*
X119061100Y-82270600D02*
G75*
G02*
X122061100Y-82270600I1500000J0D01*
G01*
X119561100Y-84270600D02*
X117711100Y-84270600D01*
X121561100Y-84270600D02*
X123411100Y-84270600D01*
X121561100Y-80270600D02*
X123411100Y-80270600D01*
X117711100Y-80270600D02*
X119561100Y-80270600D01*
X119561100Y-84270600D02*
X119561100Y-84470600D01*
X119561100Y-84070600D02*
X119561100Y-84270600D01*
X121561100Y-84070600D02*
X119561100Y-84070600D01*
X121561100Y-84270600D02*
X121561100Y-84070600D01*
X121561100Y-84470600D02*
X121561100Y-84270600D01*
X119561100Y-84470600D02*
X121561100Y-84470600D01*
X119561100Y-80270600D02*
X119561100Y-80470600D01*
X119561100Y-80070600D02*
X119561100Y-80270600D01*
X121561100Y-80070600D02*
X119561100Y-80070600D01*
X121561100Y-80270600D02*
X121561100Y-80070600D01*
X121561100Y-80470600D02*
X121561100Y-80270600D01*
X119561100Y-80470600D02*
X121561100Y-80470600D01*
X117461100Y-82770600D02*
X117711100Y-82770600D01*
X117461100Y-81770600D02*
X117461100Y-82770600D01*
X117711100Y-81770600D02*
X117461100Y-81770600D01*
X117711100Y-82770600D02*
X117711100Y-84270600D01*
X117711100Y-80270600D02*
X117711100Y-81770600D01*
X123411100Y-84270600D02*
X123411100Y-80270600D01*
D41*
%TO.C,Y2*%
X157086100Y-105981600D02*
X157086100Y-107581600D01*
X153886100Y-105981600D02*
X153886100Y-107581600D01*
D35*
%TO.C,U2*%
X136992100Y-115011600D02*
X136992100Y-115105600D01*
X136992100Y-117761600D02*
X136992100Y-117855600D01*
X135372100Y-117855600D02*
X135372100Y-117761600D01*
X135372100Y-115105600D02*
X135372100Y-115011600D01*
X135372100Y-116955600D02*
X135372100Y-116861600D01*
X135372100Y-116005600D02*
X135372100Y-115911600D01*
X136992100Y-115911600D02*
X136992100Y-116955600D01*
X135372100Y-115011600D02*
X136992100Y-115011600D01*
X136992100Y-117855600D02*
X135372100Y-117855600D01*
%TO.C,POWER0*%
X160566100Y-130403600D02*
X159296100Y-130403600D01*
X158661100Y-129768600D02*
X159296100Y-130403600D01*
X159296100Y-127863600D02*
X158661100Y-128498600D01*
X161201100Y-129768600D02*
X160566100Y-130403600D01*
X161201100Y-128498600D02*
X161201100Y-129768600D01*
X160566100Y-127863600D02*
X161201100Y-128498600D01*
X159296100Y-127863600D02*
X160566100Y-127863600D01*
X142786100Y-130403600D02*
X141516100Y-130403600D01*
X140881100Y-129768600D02*
X141516100Y-130403600D01*
X141516100Y-127863600D02*
X140881100Y-128498600D01*
X140881100Y-128498600D02*
X140881100Y-129768600D01*
X144056100Y-130403600D02*
X143421100Y-129768600D01*
X145326100Y-130403600D02*
X144056100Y-130403600D01*
X145961100Y-129768600D02*
X145326100Y-130403600D01*
X145961100Y-128498600D02*
X145961100Y-129768600D01*
X145326100Y-127863600D02*
X145961100Y-128498600D01*
X144056100Y-127863600D02*
X145326100Y-127863600D01*
X143421100Y-128498600D02*
X144056100Y-127863600D01*
X143421100Y-129768600D02*
X142786100Y-130403600D01*
X143421100Y-128498600D02*
X143421100Y-129768600D01*
X142786100Y-127863600D02*
X143421100Y-128498600D01*
X141516100Y-127863600D02*
X142786100Y-127863600D01*
X150406100Y-130403600D02*
X149136100Y-130403600D01*
X148501100Y-129768600D02*
X149136100Y-130403600D01*
X149136100Y-127863600D02*
X148501100Y-128498600D01*
X146596100Y-130403600D02*
X145961100Y-129768600D01*
X147866100Y-130403600D02*
X146596100Y-130403600D01*
X148501100Y-129768600D02*
X147866100Y-130403600D01*
X148501100Y-128498600D02*
X148501100Y-129768600D01*
X147866100Y-127863600D02*
X148501100Y-128498600D01*
X146596100Y-127863600D02*
X147866100Y-127863600D01*
X145961100Y-128498600D02*
X146596100Y-127863600D01*
X151676100Y-130403600D02*
X151041100Y-129768600D01*
X152946100Y-130403600D02*
X151676100Y-130403600D01*
X153581100Y-129768600D02*
X152946100Y-130403600D01*
X153581100Y-128498600D02*
X153581100Y-129768600D01*
X152946100Y-127863600D02*
X153581100Y-128498600D01*
X151676100Y-127863600D02*
X152946100Y-127863600D01*
X151041100Y-128498600D02*
X151676100Y-127863600D01*
X151041100Y-129768600D02*
X150406100Y-130403600D01*
X151041100Y-128498600D02*
X151041100Y-129768600D01*
X150406100Y-127863600D02*
X151041100Y-128498600D01*
X149136100Y-127863600D02*
X150406100Y-127863600D01*
X158026100Y-130403600D02*
X156756100Y-130403600D01*
X156121100Y-129768600D02*
X156756100Y-130403600D01*
X156756100Y-127863600D02*
X156121100Y-128498600D01*
X154216100Y-130403600D02*
X153581100Y-129768600D01*
X155486100Y-130403600D02*
X154216100Y-130403600D01*
X156121100Y-129768600D02*
X155486100Y-130403600D01*
X156121100Y-128498600D02*
X156121100Y-129768600D01*
X155486100Y-127863600D02*
X156121100Y-128498600D01*
X154216100Y-127863600D02*
X155486100Y-127863600D01*
X153581100Y-128498600D02*
X154216100Y-127863600D01*
X158661100Y-129768600D02*
X158026100Y-130403600D01*
X158661100Y-128498600D02*
X158661100Y-129768600D01*
X158026100Y-127863600D02*
X158661100Y-128498600D01*
X156756100Y-127863600D02*
X158026100Y-127863600D01*
D37*
%TO.C,D2*%
G36*
X174434500Y-103479600D02*
G01*
X172859700Y-103479600D01*
X172859700Y-102870000D01*
X174434500Y-102870000D01*
X174434500Y-103479600D01*
G37*
D21*
X173147100Y-104233600D02*
X174147100Y-104233600D01*
X173647100Y-103233600D02*
X173147100Y-104233600D01*
X174147100Y-104233600D02*
X173647100Y-103233600D01*
D37*
%TO.C,D3*%
G36*
X128079500Y-86309200D02*
G01*
X126504700Y-86309200D01*
X126504700Y-85699600D01*
X128079500Y-85699600D01*
X128079500Y-86309200D01*
G37*
D21*
X127792100Y-84945600D02*
X126792100Y-84945600D01*
X127292100Y-85945600D02*
X127792100Y-84945600D01*
X126792100Y-84945600D02*
X127292100Y-85945600D01*
D40*
%TO.C,Y1*%
X136563100Y-103733600D02*
G75*
G02*
X136563100Y-107289600I0J-1778000D01*
G01*
D35*
X136563100Y-103225600D02*
G75*
G02*
X136563100Y-107797600I0J-2286000D01*
G01*
X129705100Y-107797600D02*
G75*
G02*
X129705100Y-103225600I0J2286000D01*
G01*
D40*
X129705100Y-107289600D02*
G75*
G02*
X129705100Y-103733600I0J1778000D01*
G01*
X129705100Y-107289600D02*
X136563100Y-107289600D01*
X136563100Y-103733600D02*
X129705100Y-103733600D01*
D35*
X129705100Y-107797600D02*
X136563100Y-107797600D01*
X136563100Y-103225600D02*
X129705100Y-103225600D01*
D37*
%TO.C,L2*%
G36*
X153677100Y-123695600D02*
G01*
X152977100Y-123695600D01*
X152977100Y-123395600D01*
X153677100Y-123395600D01*
X153677100Y-123695600D01*
G37*
D39*
X154327100Y-124170600D02*
X152327100Y-124170600D01*
X152327100Y-122920600D02*
X154327100Y-122920600D01*
D38*
X152027100Y-123545600D02*
X154527100Y-123545600D01*
%TD*%
M02*
