%TF.GenerationSoftware,KiCad,Pcbnew,9.0.6*%
%TF.CreationDate,2026-02-23T21:39:28+00:00*%
%TF.ProjectId,20250806_UNOQ,32303235-3038-4303-965f-554e4f512e6b,rev?*%
%TF.SameCoordinates,Original*%
%TF.FileFunction,Legend,Bot*%
%TF.FilePolarity,Positive*%
%FSLAX46Y46*%
G04 Gerber Fmt 4.6, Leading zero omitted, Abs format (unit mm)*
G04 Created by KiCad (PCBNEW 9.0.6) date 2026-02-23 21:39:28*
%MOMM*%
%LPD*%
G01*
G04 APERTURE LIST*
%ADD10C,0.170688*%
%ADD11C,0.114300*%
%ADD12C,0.152400*%
G04 APERTURE END LIST*
D10*
X154793331Y-86553538D02*
X154793331Y-85301826D01*
X154793331Y-86493933D02*
X154912542Y-86553538D01*
X154912542Y-86553538D02*
X155150963Y-86553538D01*
X155150963Y-86553538D02*
X155270174Y-86493933D01*
X155270174Y-86493933D02*
X155329779Y-86434327D01*
X155329779Y-86434327D02*
X155389384Y-86315117D01*
X155389384Y-86315117D02*
X155389384Y-85957485D01*
X155389384Y-85957485D02*
X155329779Y-85838274D01*
X155329779Y-85838274D02*
X155270174Y-85778669D01*
X155270174Y-85778669D02*
X155150963Y-85719063D01*
X155150963Y-85719063D02*
X154912542Y-85719063D01*
X154912542Y-85719063D02*
X154793331Y-85778669D01*
X153720435Y-86493933D02*
X153839646Y-86553538D01*
X153839646Y-86553538D02*
X154078067Y-86553538D01*
X154078067Y-86553538D02*
X154197278Y-86493933D01*
X154197278Y-86493933D02*
X154256883Y-86374722D01*
X154256883Y-86374722D02*
X154256883Y-85897879D01*
X154256883Y-85897879D02*
X154197278Y-85778669D01*
X154197278Y-85778669D02*
X154078067Y-85719063D01*
X154078067Y-85719063D02*
X153839646Y-85719063D01*
X153839646Y-85719063D02*
X153720435Y-85778669D01*
X153720435Y-85778669D02*
X153660830Y-85897879D01*
X153660830Y-85897879D02*
X153660830Y-86017090D01*
X153660830Y-86017090D02*
X154256883Y-86136301D01*
X153183987Y-86493933D02*
X153064777Y-86553538D01*
X153064777Y-86553538D02*
X152826355Y-86553538D01*
X152826355Y-86553538D02*
X152707145Y-86493933D01*
X152707145Y-86493933D02*
X152647539Y-86374722D01*
X152647539Y-86374722D02*
X152647539Y-86315117D01*
X152647539Y-86315117D02*
X152707145Y-86195906D01*
X152707145Y-86195906D02*
X152826355Y-86136301D01*
X152826355Y-86136301D02*
X153005171Y-86136301D01*
X153005171Y-86136301D02*
X153124382Y-86076695D01*
X153124382Y-86076695D02*
X153183987Y-85957485D01*
X153183987Y-85957485D02*
X153183987Y-85897879D01*
X153183987Y-85897879D02*
X153124382Y-85778669D01*
X153124382Y-85778669D02*
X153005171Y-85719063D01*
X153005171Y-85719063D02*
X152826355Y-85719063D01*
X152826355Y-85719063D02*
X152707145Y-85778669D01*
X152111091Y-86553538D02*
X152111091Y-85719063D01*
X152111091Y-85301826D02*
X152170696Y-85361431D01*
X152170696Y-85361431D02*
X152111091Y-85421037D01*
X152111091Y-85421037D02*
X152051486Y-85361431D01*
X152051486Y-85361431D02*
X152111091Y-85301826D01*
X152111091Y-85301826D02*
X152111091Y-85421037D01*
X150978590Y-85719063D02*
X150978590Y-86732354D01*
X150978590Y-86732354D02*
X151038195Y-86851565D01*
X151038195Y-86851565D02*
X151097801Y-86911170D01*
X151097801Y-86911170D02*
X151217011Y-86970775D01*
X151217011Y-86970775D02*
X151395827Y-86970775D01*
X151395827Y-86970775D02*
X151515038Y-86911170D01*
X150978590Y-86493933D02*
X151097801Y-86553538D01*
X151097801Y-86553538D02*
X151336222Y-86553538D01*
X151336222Y-86553538D02*
X151455433Y-86493933D01*
X151455433Y-86493933D02*
X151515038Y-86434327D01*
X151515038Y-86434327D02*
X151574643Y-86315117D01*
X151574643Y-86315117D02*
X151574643Y-85957485D01*
X151574643Y-85957485D02*
X151515038Y-85838274D01*
X151515038Y-85838274D02*
X151455433Y-85778669D01*
X151455433Y-85778669D02*
X151336222Y-85719063D01*
X151336222Y-85719063D02*
X151097801Y-85719063D01*
X151097801Y-85719063D02*
X150978590Y-85778669D01*
X150382537Y-85719063D02*
X150382537Y-86553538D01*
X150382537Y-85838274D02*
X150322932Y-85778669D01*
X150322932Y-85778669D02*
X150203721Y-85719063D01*
X150203721Y-85719063D02*
X150024905Y-85719063D01*
X150024905Y-85719063D02*
X149905694Y-85778669D01*
X149905694Y-85778669D02*
X149846089Y-85897879D01*
X149846089Y-85897879D02*
X149846089Y-86553538D01*
X148773193Y-86493933D02*
X148892404Y-86553538D01*
X148892404Y-86553538D02*
X149130825Y-86553538D01*
X149130825Y-86553538D02*
X149250036Y-86493933D01*
X149250036Y-86493933D02*
X149309641Y-86374722D01*
X149309641Y-86374722D02*
X149309641Y-85897879D01*
X149309641Y-85897879D02*
X149250036Y-85778669D01*
X149250036Y-85778669D02*
X149130825Y-85719063D01*
X149130825Y-85719063D02*
X148892404Y-85719063D01*
X148892404Y-85719063D02*
X148773193Y-85778669D01*
X148773193Y-85778669D02*
X148713588Y-85897879D01*
X148713588Y-85897879D02*
X148713588Y-86017090D01*
X148713588Y-86017090D02*
X149309641Y-86136301D01*
X147640692Y-86553538D02*
X147640692Y-85301826D01*
X147640692Y-86493933D02*
X147759903Y-86553538D01*
X147759903Y-86553538D02*
X147998324Y-86553538D01*
X147998324Y-86553538D02*
X148117535Y-86493933D01*
X148117535Y-86493933D02*
X148177140Y-86434327D01*
X148177140Y-86434327D02*
X148236745Y-86315117D01*
X148236745Y-86315117D02*
X148236745Y-85957485D01*
X148236745Y-85957485D02*
X148177140Y-85838274D01*
X148177140Y-85838274D02*
X148117535Y-85778669D01*
X148117535Y-85778669D02*
X147998324Y-85719063D01*
X147998324Y-85719063D02*
X147759903Y-85719063D01*
X147759903Y-85719063D02*
X147640692Y-85778669D01*
X146090954Y-86553538D02*
X146090954Y-85301826D01*
X146090954Y-85778669D02*
X145971743Y-85719063D01*
X145971743Y-85719063D02*
X145733322Y-85719063D01*
X145733322Y-85719063D02*
X145614111Y-85778669D01*
X145614111Y-85778669D02*
X145554506Y-85838274D01*
X145554506Y-85838274D02*
X145494901Y-85957485D01*
X145494901Y-85957485D02*
X145494901Y-86315117D01*
X145494901Y-86315117D02*
X145554506Y-86434327D01*
X145554506Y-86434327D02*
X145614111Y-86493933D01*
X145614111Y-86493933D02*
X145733322Y-86553538D01*
X145733322Y-86553538D02*
X145971743Y-86553538D01*
X145971743Y-86553538D02*
X146090954Y-86493933D01*
X145077664Y-85719063D02*
X144779637Y-86553538D01*
X144481610Y-85719063D02*
X144779637Y-86553538D01*
X144779637Y-86553538D02*
X144898848Y-86851565D01*
X144898848Y-86851565D02*
X144958453Y-86911170D01*
X144958453Y-86911170D02*
X145077664Y-86970775D01*
X153349595Y-87497063D02*
X152872752Y-87497063D01*
X153170779Y-87079826D02*
X153170779Y-88152722D01*
X153170779Y-88152722D02*
X153111174Y-88271933D01*
X153111174Y-88271933D02*
X152991963Y-88331538D01*
X152991963Y-88331538D02*
X152872752Y-88331538D01*
X152455515Y-88331538D02*
X152455515Y-87497063D01*
X152455515Y-87079826D02*
X152515120Y-87139431D01*
X152515120Y-87139431D02*
X152455515Y-87199037D01*
X152455515Y-87199037D02*
X152395910Y-87139431D01*
X152395910Y-87139431D02*
X152455515Y-87079826D01*
X152455515Y-87079826D02*
X152455515Y-87199037D01*
X151859462Y-87497063D02*
X151859462Y-88331538D01*
X151859462Y-87616274D02*
X151799857Y-87556669D01*
X151799857Y-87556669D02*
X151680646Y-87497063D01*
X151680646Y-87497063D02*
X151501830Y-87497063D01*
X151501830Y-87497063D02*
X151382619Y-87556669D01*
X151382619Y-87556669D02*
X151323014Y-87675879D01*
X151323014Y-87675879D02*
X151323014Y-88331538D01*
X150726961Y-88331538D02*
X150726961Y-87079826D01*
X150607750Y-87854695D02*
X150250118Y-88331538D01*
X150250118Y-87497063D02*
X150726961Y-87973906D01*
X149236827Y-88271933D02*
X149356038Y-88331538D01*
X149356038Y-88331538D02*
X149594459Y-88331538D01*
X149594459Y-88331538D02*
X149713670Y-88271933D01*
X149713670Y-88271933D02*
X149773275Y-88152722D01*
X149773275Y-88152722D02*
X149773275Y-87675879D01*
X149773275Y-87675879D02*
X149713670Y-87556669D01*
X149713670Y-87556669D02*
X149594459Y-87497063D01*
X149594459Y-87497063D02*
X149356038Y-87497063D01*
X149356038Y-87497063D02*
X149236827Y-87556669D01*
X149236827Y-87556669D02*
X149177222Y-87675879D01*
X149177222Y-87675879D02*
X149177222Y-87795090D01*
X149177222Y-87795090D02*
X149773275Y-87914301D01*
X148640774Y-88331538D02*
X148640774Y-87497063D01*
X148640774Y-87735485D02*
X148581169Y-87616274D01*
X148581169Y-87616274D02*
X148521563Y-87556669D01*
X148521563Y-87556669D02*
X148402353Y-87497063D01*
X148402353Y-87497063D02*
X148283142Y-87497063D01*
X146912220Y-88331538D02*
X146912220Y-87497063D01*
X146912220Y-87079826D02*
X146971825Y-87139431D01*
X146971825Y-87139431D02*
X146912220Y-87199037D01*
X146912220Y-87199037D02*
X146852615Y-87139431D01*
X146852615Y-87139431D02*
X146912220Y-87079826D01*
X146912220Y-87079826D02*
X146912220Y-87199037D01*
X146494983Y-87497063D02*
X146018140Y-87497063D01*
X146316167Y-87079826D02*
X146316167Y-88152722D01*
X146316167Y-88152722D02*
X146256562Y-88271933D01*
X146256562Y-88271933D02*
X146137351Y-88331538D01*
X146137351Y-88331538D02*
X146018140Y-88331538D01*
X178570779Y-86426538D02*
X178570779Y-85174826D01*
X178570779Y-85174826D02*
X178153542Y-86068906D01*
X178153542Y-86068906D02*
X177736304Y-85174826D01*
X177736304Y-85174826D02*
X177736304Y-86426538D01*
X177199856Y-86068906D02*
X176603803Y-86068906D01*
X177319067Y-86426538D02*
X176901830Y-85174826D01*
X176901830Y-85174826D02*
X176484592Y-86426538D01*
X176067355Y-86426538D02*
X176067355Y-85174826D01*
X176067355Y-85174826D02*
X175769328Y-85174826D01*
X175769328Y-85174826D02*
X175590512Y-85234431D01*
X175590512Y-85234431D02*
X175471302Y-85353642D01*
X175471302Y-85353642D02*
X175411696Y-85472853D01*
X175411696Y-85472853D02*
X175352091Y-85711274D01*
X175352091Y-85711274D02*
X175352091Y-85890090D01*
X175352091Y-85890090D02*
X175411696Y-86128511D01*
X175411696Y-86128511D02*
X175471302Y-86247722D01*
X175471302Y-86247722D02*
X175590512Y-86366933D01*
X175590512Y-86366933D02*
X175769328Y-86426538D01*
X175769328Y-86426538D02*
X176067355Y-86426538D01*
X174815643Y-85770879D02*
X174398406Y-85770879D01*
X174219590Y-86426538D02*
X174815643Y-86426538D01*
X174815643Y-86426538D02*
X174815643Y-85174826D01*
X174815643Y-85174826D02*
X174219590Y-85174826D01*
X172729457Y-86426538D02*
X172729457Y-85174826D01*
X172133404Y-86426538D02*
X172133404Y-85174826D01*
X172133404Y-85174826D02*
X171418140Y-86426538D01*
X171418140Y-86426538D02*
X171418140Y-85174826D01*
X177935779Y-88966538D02*
X177935779Y-87714826D01*
X177518542Y-87714826D02*
X176803278Y-87714826D01*
X177160910Y-88966538D02*
X177160910Y-87714826D01*
X176445646Y-88608906D02*
X175849593Y-88608906D01*
X176564857Y-88966538D02*
X176147620Y-87714826D01*
X176147620Y-87714826D02*
X175730382Y-88966538D01*
X174717092Y-88966538D02*
X175313145Y-88966538D01*
X175313145Y-88966538D02*
X175313145Y-87714826D01*
X174061433Y-88370485D02*
X174061433Y-88966538D01*
X174478670Y-87714826D02*
X174061433Y-88370485D01*
X174061433Y-88370485D02*
X173644195Y-87714826D01*
D11*
X121891369Y-89912553D02*
X122001436Y-89857520D01*
X122001436Y-89857520D02*
X122166536Y-89857520D01*
X122166536Y-89857520D02*
X122331636Y-89912553D01*
X122331636Y-89912553D02*
X122441703Y-90022620D01*
X122441703Y-90022620D02*
X122496736Y-90132687D01*
X122496736Y-90132687D02*
X122551769Y-90352820D01*
X122551769Y-90352820D02*
X122551769Y-90517920D01*
X122551769Y-90517920D02*
X122496736Y-90738053D01*
X122496736Y-90738053D02*
X122441703Y-90848120D01*
X122441703Y-90848120D02*
X122331636Y-90958187D01*
X122331636Y-90958187D02*
X122166536Y-91013220D01*
X122166536Y-91013220D02*
X122056469Y-91013220D01*
X122056469Y-91013220D02*
X121891369Y-90958187D01*
X121891369Y-90958187D02*
X121836336Y-90903153D01*
X121836336Y-90903153D02*
X121836336Y-90517920D01*
X121836336Y-90517920D02*
X122056469Y-90517920D01*
X120680636Y-91013220D02*
X121065869Y-90462887D01*
X121341036Y-91013220D02*
X121341036Y-89857520D01*
X121341036Y-89857520D02*
X120900769Y-89857520D01*
X120900769Y-89857520D02*
X120790703Y-89912553D01*
X120790703Y-89912553D02*
X120735669Y-89967587D01*
X120735669Y-89967587D02*
X120680636Y-90077653D01*
X120680636Y-90077653D02*
X120680636Y-90242753D01*
X120680636Y-90242753D02*
X120735669Y-90352820D01*
X120735669Y-90352820D02*
X120790703Y-90407853D01*
X120790703Y-90407853D02*
X120900769Y-90462887D01*
X120900769Y-90462887D02*
X121341036Y-90462887D01*
X119965203Y-89857520D02*
X119745069Y-89857520D01*
X119745069Y-89857520D02*
X119635003Y-89912553D01*
X119635003Y-89912553D02*
X119524936Y-90022620D01*
X119524936Y-90022620D02*
X119469903Y-90242753D01*
X119469903Y-90242753D02*
X119469903Y-90627987D01*
X119469903Y-90627987D02*
X119524936Y-90848120D01*
X119524936Y-90848120D02*
X119635003Y-90958187D01*
X119635003Y-90958187D02*
X119745069Y-91013220D01*
X119745069Y-91013220D02*
X119965203Y-91013220D01*
X119965203Y-91013220D02*
X120075269Y-90958187D01*
X120075269Y-90958187D02*
X120185336Y-90848120D01*
X120185336Y-90848120D02*
X120240369Y-90627987D01*
X120240369Y-90627987D02*
X120240369Y-90242753D01*
X120240369Y-90242753D02*
X120185336Y-90022620D01*
X120185336Y-90022620D02*
X120075269Y-89912553D01*
X120075269Y-89912553D02*
X119965203Y-89857520D01*
X118974603Y-89857520D02*
X118974603Y-90793087D01*
X118974603Y-90793087D02*
X118919570Y-90903153D01*
X118919570Y-90903153D02*
X118864536Y-90958187D01*
X118864536Y-90958187D02*
X118754470Y-91013220D01*
X118754470Y-91013220D02*
X118534336Y-91013220D01*
X118534336Y-91013220D02*
X118424270Y-90958187D01*
X118424270Y-90958187D02*
X118369236Y-90903153D01*
X118369236Y-90903153D02*
X118314203Y-90793087D01*
X118314203Y-90793087D02*
X118314203Y-89857520D01*
X117763870Y-91013220D02*
X117763870Y-89857520D01*
X117763870Y-89857520D02*
X117103470Y-91013220D01*
X117103470Y-91013220D02*
X117103470Y-89857520D01*
X116553137Y-91013220D02*
X116553137Y-89857520D01*
X116553137Y-89857520D02*
X116277970Y-89857520D01*
X116277970Y-89857520D02*
X116112870Y-89912553D01*
X116112870Y-89912553D02*
X116002804Y-90022620D01*
X116002804Y-90022620D02*
X115947770Y-90132687D01*
X115947770Y-90132687D02*
X115892737Y-90352820D01*
X115892737Y-90352820D02*
X115892737Y-90517920D01*
X115892737Y-90517920D02*
X115947770Y-90738053D01*
X115947770Y-90738053D02*
X116002804Y-90848120D01*
X116002804Y-90848120D02*
X116112870Y-90958187D01*
X116112870Y-90958187D02*
X116277970Y-91013220D01*
X116277970Y-91013220D02*
X116553137Y-91013220D01*
X115177304Y-89857520D02*
X115067237Y-89857520D01*
X115067237Y-89857520D02*
X114957170Y-89912553D01*
X114957170Y-89912553D02*
X114902137Y-89967587D01*
X114902137Y-89967587D02*
X114847104Y-90077653D01*
X114847104Y-90077653D02*
X114792070Y-90297787D01*
X114792070Y-90297787D02*
X114792070Y-90572953D01*
X114792070Y-90572953D02*
X114847104Y-90793087D01*
X114847104Y-90793087D02*
X114902137Y-90903153D01*
X114902137Y-90903153D02*
X114957170Y-90958187D01*
X114957170Y-90958187D02*
X115067237Y-91013220D01*
X115067237Y-91013220D02*
X115177304Y-91013220D01*
X115177304Y-91013220D02*
X115287370Y-90958187D01*
X115287370Y-90958187D02*
X115342404Y-90903153D01*
X115342404Y-90903153D02*
X115397437Y-90793087D01*
X115397437Y-90793087D02*
X115452470Y-90572953D01*
X115452470Y-90572953D02*
X115452470Y-90297787D01*
X115452470Y-90297787D02*
X115397437Y-90077653D01*
X115397437Y-90077653D02*
X115342404Y-89967587D01*
X115342404Y-89967587D02*
X115287370Y-89912553D01*
X115287370Y-89912553D02*
X115177304Y-89857520D01*
D12*
%TO.C,GROUND0*%
X127038100Y-90017600D02*
X124244100Y-90017600D01*
X127292100Y-91795600D02*
X127292100Y-90271600D01*
X123990100Y-91795600D02*
X123990100Y-90271600D01*
X124244100Y-92049600D02*
G75*
G02*
X123990100Y-91795600I0J254000D01*
G01*
X127292100Y-91795600D02*
G75*
G02*
X127038100Y-92049600I-254000J0D01*
G01*
X127038100Y-90017600D02*
G75*
G02*
X127292100Y-90271600I0J-254000D01*
G01*
X123990100Y-90271600D02*
G75*
G02*
X124244100Y-90017600I254000J0D01*
G01*
X124244100Y-92049600D02*
X127038100Y-92049600D01*
%TD*%
M02*
