%TF.GenerationSoftware,KiCad,Pcbnew,9.0.6*%
%TF.CreationDate,2026-02-23T21:39:28+00:00*%
%TF.ProjectId,20250806_UNOQ,32303235-3038-4303-965f-554e4f512e6b,rev?*%
%TF.SameCoordinates,Original*%
%TF.FileFunction,Paste,Top*%
%TF.FilePolarity,Positive*%
%FSLAX46Y46*%
G04 Gerber Fmt 4.6, Leading zero omitted, Abs format (unit mm)*
G04 Created by KiCad (PCBNEW 9.0.6) date 2026-02-23 21:39:28*
%MOMM*%
%LPD*%
G01*
G04 APERTURE LIST*
G04 Aperture macros list*
%AMRoundRect*
0 Rectangle with rounded corners*
0 $1 Rounding radius*
0 $2 $3 $4 $5 $6 $7 $8 $9 X,Y pos of 4 corners*
0 Add a 4 corners polygon primitive as box body*
4,1,4,$2,$3,$4,$5,$6,$7,$8,$9,$2,$3,0*
0 Add four circle primitives for the rounded corners*
1,1,$1+$1,$2,$3*
1,1,$1+$1,$4,$5*
1,1,$1+$1,$6,$7*
1,1,$1+$1,$8,$9*
0 Add four rect primitives between the rounded corners*
20,1,$1+$1,$2,$3,$4,$5,0*
20,1,$1+$1,$4,$5,$6,$7,0*
20,1,$1+$1,$6,$7,$8,$9,0*
20,1,$1+$1,$8,$9,$2,$3,0*%
G04 Aperture macros list end*
%ADD10C,0.304800*%
%ADD11C,0.000000*%
%ADD12RoundRect,0.318720X-0.079680X0.180480X-0.079680X-0.180480X0.079680X-0.180480X0.079680X0.180480X0*%
%ADD13RoundRect,0.063000X0.567000X-1.367000X0.567000X1.367000X-0.567000X1.367000X-0.567000X-1.367000X0*%
%ADD14RoundRect,0.054000X-0.486000X0.486000X-0.486000X-0.486000X0.486000X-0.486000X0.486000X0.486000X0*%
%ADD15RoundRect,0.054000X0.486000X-0.486000X0.486000X0.486000X-0.486000X0.486000X-0.486000X-0.486000X0*%
%ADD16RoundRect,0.108000X0.972000X0.972000X-0.972000X0.972000X-0.972000X-0.972000X0.972000X-0.972000X0*%
%ADD17RoundRect,0.457200X-0.000010X-0.000010X0.000010X-0.000010X0.000010X0.000010X-0.000010X0.000010X0*%
%ADD18RoundRect,0.099000X0.891000X-1.591000X0.891000X1.591000X-0.891000X1.591000X-0.891000X-1.591000X0*%
%ADD19RoundRect,0.054864X1.001776X-0.493776X1.001776X0.493776X-1.001776X0.493776X-1.001776X-0.493776X0*%
%ADD20RoundRect,0.085500X1.519500X-0.769500X1.519500X0.769500X-1.519500X0.769500X-1.519500X-0.769500X0*%
%ADD21RoundRect,0.318720X0.079680X-0.180480X0.079680X0.180480X-0.079680X0.180480X-0.079680X-0.180480X0*%
%ADD22RoundRect,0.044245X-0.349455X0.298655X-0.349455X-0.298655X0.349455X-0.298655X0.349455X0.298655X0*%
%ADD23RoundRect,0.318720X-0.180480X-0.079680X0.180480X-0.079680X0.180480X0.079680X-0.180480X0.079680X0*%
%ADD24RoundRect,0.071360X-0.227840X0.017840X-0.227840X-0.017840X0.227840X-0.017840X0.227840X0.017840X0*%
%ADD25RoundRect,0.071360X0.017840X0.227840X-0.017840X0.227840X-0.017840X-0.227840X0.017840X-0.227840X0*%
%ADD26RoundRect,0.045639X0.403561X0.403561X-0.403561X0.403561X-0.403561X-0.403561X0.403561X-0.403561X0*%
%ADD27RoundRect,0.045639X0.503561X0.403561X-0.503561X0.403561X-0.503561X-0.403561X0.503561X-0.403561X0*%
%ADD28RoundRect,0.052578X-0.473202X-0.689102X0.473202X-0.689102X0.473202X0.689102X-0.473202X0.689102X0*%
%ADD29RoundRect,0.318720X0.079680X0.180480X-0.079680X0.180480X-0.079680X-0.180480X0.079680X-0.180480X0*%
%ADD30RoundRect,0.040477X-0.233723X0.158723X-0.233723X-0.158723X0.233723X-0.158723X0.233723X0.158723X0*%
%ADD31RoundRect,0.040477X0.233723X-0.158723X0.233723X0.158723X-0.233723X0.158723X-0.233723X-0.158723X0*%
%ADD32RoundRect,0.318720X0.180480X0.079680X-0.180480X0.079680X-0.180480X-0.079680X0.180480X-0.079680X0*%
%ADD33RoundRect,0.318720X-0.079680X-0.180480X0.079680X-0.180480X0.079680X0.180480X-0.079680X0.180480X0*%
%ADD34RoundRect,0.033596X0.515604X-0.065604X0.515604X0.065604X-0.515604X0.065604X-0.515604X-0.065604X0*%
%ADD35RoundRect,0.094500X-0.635500X-0.535500X0.635500X-0.535500X0.635500X0.535500X-0.635500X0.535500X0*%
%ADD36RoundRect,0.043427X0.255773X-0.905773X0.255773X0.905773X-0.255773X0.905773X-0.255773X-0.905773X0*%
%ADD37RoundRect,0.041416X-0.507784X0.182784X-0.507784X-0.182784X0.507784X-0.182784X0.507784X0.182784X0*%
%ADD38RoundRect,0.063000X-0.767000X0.567000X-0.767000X-0.567000X0.767000X-0.567000X0.767000X0.567000X0*%
%ADD39RoundRect,0.063000X0.767000X-0.567000X0.767000X0.567000X-0.767000X0.567000X-0.767000X-0.567000X0*%
%ADD40RoundRect,0.045639X-0.503561X-0.403561X0.503561X-0.403561X0.503561X0.403561X-0.503561X0.403561X0*%
G04 APERTURE END LIST*
D10*
X133159500Y-91795600D02*
G75*
G02*
X131838700Y-91795600I-660400J0D01*
G01*
X131838700Y-91795600D02*
G75*
G02*
X133159500Y-91795600I660400J0D01*
G01*
X135701400Y-91795600D02*
G75*
G02*
X134376800Y-91795600I-662300J0D01*
G01*
X134376800Y-91795600D02*
G75*
G02*
X135701400Y-91795600I662300J0D01*
G01*
X133159500Y-89255600D02*
G75*
G02*
X131838700Y-89255600I-660400J0D01*
G01*
X131838700Y-89255600D02*
G75*
G02*
X133159500Y-89255600I660400J0D01*
G01*
X135701400Y-89255600D02*
G75*
G02*
X134376800Y-89255600I-662300J0D01*
G01*
X134376800Y-89255600D02*
G75*
G02*
X135701400Y-89255600I662300J0D01*
G01*
D11*
%TO.C,U3*%
G36*
X134785100Y-97637600D02*
G01*
X133515100Y-97637600D01*
X133515100Y-96367600D01*
X134785100Y-96367600D01*
X134785100Y-97637600D01*
G37*
%TO.C,RESET0*%
G36*
X116751100Y-82651600D02*
G01*
X115862100Y-82651600D01*
X115862100Y-81889600D01*
X116751100Y-81889600D01*
X116751100Y-82651600D01*
G37*
%TD*%
D12*
%TO.C,C2*%
X125387100Y-101828600D03*
X127165100Y-101828600D03*
%TD*%
D13*
%TO.C,PC1*%
X139738100Y-120129600D03*
X139738100Y-124929600D03*
%TD*%
%TO.C,PC2*%
X132626100Y-120129600D03*
X132626100Y-124929600D03*
%TD*%
D14*
%TO.C,ON0*%
X171581100Y-95097600D03*
X173681100Y-95097600D03*
%TD*%
D15*
%TO.C,RX0*%
X143201100Y-97383600D03*
X141101100Y-97383600D03*
%TD*%
%TO.C,TX0*%
X143201100Y-95097600D03*
X141101100Y-95097600D03*
%TD*%
D16*
%TO.C,D1*%
X133601100Y-128879600D03*
X138001100Y-128879600D03*
%TD*%
D17*
%TO.C,FD1*%
X120561100Y-81762600D03*
%TD*%
%TO.C,FD2*%
X168051100Y-114932600D03*
%TD*%
%TO.C,FD3*%
X117941100Y-128263600D03*
%TD*%
D18*
%TO.C,U1*%
X118859100Y-114274600D03*
D19*
X125056900Y-111963200D03*
X125056900Y-114274600D03*
X125056900Y-116586000D03*
%TD*%
D12*
%TO.C,C4*%
X141262100Y-87223600D03*
X143040100Y-87223600D03*
%TD*%
D20*
%TO.C,F1*%
X118275100Y-103180600D03*
X118275100Y-107080600D03*
%TD*%
D21*
%TO.C,C7*%
X143040100Y-100177600D03*
X141262100Y-100177600D03*
%TD*%
D14*
%TO.C,L0*%
X141101100Y-89509600D03*
X143201100Y-89509600D03*
%TD*%
D22*
%TO.C,T1*%
X121323100Y-105156000D03*
X123355100Y-104190800D03*
X123355100Y-106121200D03*
%TD*%
D23*
%TO.C,C1*%
X132626100Y-117195600D03*
X132626100Y-115417600D03*
%TD*%
D24*
%TO.C,U3*%
X131700100Y-98752600D03*
X131700100Y-98252600D03*
X131700100Y-97752600D03*
X131700100Y-97252600D03*
X131700100Y-96752600D03*
X131700100Y-96252600D03*
X131700100Y-95752600D03*
X131700100Y-95252600D03*
D25*
X132400100Y-94552600D03*
X132900100Y-94552600D03*
X133400100Y-94552600D03*
X133900100Y-94552600D03*
X134400100Y-94552600D03*
X134900100Y-94552600D03*
X135400100Y-94552600D03*
X135900100Y-94552600D03*
D24*
X136600100Y-95252600D03*
X136600100Y-95752600D03*
X136600100Y-96252600D03*
X136600100Y-96752600D03*
X136600100Y-97252600D03*
X136600100Y-97752600D03*
X136600100Y-98252600D03*
X136600100Y-98752600D03*
D25*
X135900100Y-99452600D03*
X135400100Y-99452600D03*
X134900100Y-99452600D03*
X134400100Y-99452600D03*
X133900100Y-99452600D03*
X133400100Y-99452600D03*
X132900100Y-99452600D03*
X132400100Y-99452600D03*
%TD*%
D21*
%TO.C,C5*%
X143040100Y-101828600D03*
X141262100Y-101828600D03*
%TD*%
D26*
%TO.C,Z1*%
X125911100Y-92303600D03*
X127911100Y-92303600D03*
%TD*%
%TO.C,Z2*%
X125911100Y-98018600D03*
X127911100Y-98018600D03*
%TD*%
D27*
%TO.C,L1*%
X120731100Y-86588600D03*
X122931100Y-86588600D03*
%TD*%
D28*
%TO.C,RESET-EN0*%
X142913100Y-104368600D03*
X141389100Y-104368600D03*
%TD*%
D29*
%TO.C,R2*%
X154597100Y-108940600D03*
X156375100Y-108940600D03*
%TD*%
D30*
%TO.C,RN2*%
X142826100Y-91103600D03*
X142826100Y-91903600D03*
X142826100Y-92703600D03*
X142826100Y-93503600D03*
X141476100Y-93503600D03*
X141476100Y-92703600D03*
X141476100Y-91903600D03*
X141476100Y-91103600D03*
%TD*%
D31*
%TO.C,RN1*%
X141476100Y-108997600D03*
X141476100Y-108197600D03*
X141476100Y-107397600D03*
X141476100Y-106597600D03*
X142826100Y-106597600D03*
X142826100Y-107397600D03*
X142826100Y-108197600D03*
X142826100Y-108997600D03*
%TD*%
D21*
%TO.C,C6*%
X160820100Y-108813600D03*
X159042100Y-108813600D03*
%TD*%
D12*
%TO.C,C8*%
X126022100Y-89763600D03*
X127800100Y-89763600D03*
%TD*%
D31*
%TO.C,RN4*%
X171956100Y-99091600D03*
X171956100Y-98291600D03*
X171956100Y-97491600D03*
X171956100Y-96691600D03*
X173306100Y-96691600D03*
X173306100Y-97491600D03*
X173306100Y-98291600D03*
X173306100Y-99091600D03*
%TD*%
%TO.C,RN3*%
X126363100Y-96043600D03*
X126363100Y-95243600D03*
X126363100Y-94443600D03*
X126363100Y-93643600D03*
X127713100Y-93643600D03*
X127713100Y-94443600D03*
X127713100Y-95243600D03*
X127713100Y-96043600D03*
%TD*%
D32*
%TO.C,C3*%
X139738100Y-115417600D03*
X139738100Y-117195600D03*
%TD*%
D33*
%TO.C,R1*%
X134150100Y-102082600D03*
X132372100Y-102082600D03*
%TD*%
D12*
%TO.C,C9*%
X129324100Y-102082600D03*
X131102100Y-102082600D03*
%TD*%
D21*
%TO.C,C11*%
X137325100Y-102082600D03*
X135547100Y-102082600D03*
%TD*%
D34*
%TO.C,U5*%
X135374100Y-112329600D03*
X135374100Y-111679600D03*
X135374100Y-111029600D03*
X135374100Y-110379600D03*
X131149100Y-110379600D03*
X131149100Y-111029600D03*
X131149100Y-111679600D03*
X131149100Y-112329600D03*
%TD*%
D35*
%TO.C,RESET0*%
X124761100Y-84520600D03*
X116361100Y-84520600D03*
X124761100Y-80020600D03*
X116361100Y-80020600D03*
%TD*%
D36*
%TO.C,Y2*%
X156486100Y-106781600D03*
X155486100Y-106781600D03*
X154486100Y-106781600D03*
%TD*%
D37*
%TO.C,U2*%
X137482100Y-115483600D03*
X137482100Y-117383600D03*
X134882100Y-117383600D03*
X134882100Y-116433600D03*
X134882100Y-115483600D03*
%TD*%
D38*
%TO.C,D2*%
X173647100Y-105433600D03*
X173647100Y-102033600D03*
%TD*%
D39*
%TO.C,D3*%
X127292100Y-83745600D03*
X127292100Y-87145600D03*
%TD*%
D40*
%TO.C,L2*%
X154427100Y-123545600D03*
X152227100Y-123545600D03*
%TD*%
D12*
%TO.C,C10*%
X157645100Y-121132600D03*
X159423100Y-121132600D03*
%TD*%
M02*
